<svg width="17" height="32" viewBox="0 0 17 32" fill="none" xmlns="http://www.w3.org/2000/svg">
<path d="M0.357227 16.4692L14.8082 30.8812C15.0356 31.1081 15.3439 31.2354 15.6651 31.235C15.9864 31.2346 16.2943 31.1066 16.5212 30.8792C16.7481 30.6518 16.8754 30.3435 16.875 30.0223C16.8746 29.701 16.7466 29.3931 16.5192 29.1662L2.92823 15.6122L16.5192 2.05821C16.7422 1.83043 16.8665 1.52391 16.8649 1.20513C16.8634 0.886356 16.7362 0.581045 16.511 0.355438C16.2858 0.129831 15.9807 0.0021228 15.6619 2.08748e-05C15.3431 -0.00208105 15.0364 0.121593 14.8082 0.344211L0.357227 14.7552C0.244297 14.8676 0.154687 15.0013 0.0935416 15.1484C0.0323958 15.2956 0.000920722 15.4534 0.000920708 15.6127C0.000920694 15.7721 0.0323957 15.9298 0.0935415 16.077C0.154687 16.2242 0.244296 16.3578 0.357227 16.4702L0.357227 16.4692Z" fill="#DE33FE"/>
</svg>
