<svg width="17" height="32" viewBox="0 0 17 32" fill="none" xmlns="http://www.w3.org/2000/svg">
<path d="M16.5178 14.7658L2.06677 0.353775C1.83935 0.126882 1.53111 -0.000374246 1.20986 8.26764e-07C0.888611 0.0003759 0.580667 0.128352 0.353775 0.355775C0.126882 0.583198 -0.000374246 0.891439 8.26764e-07 1.21269C0.0003759 1.53394 0.128352 1.84188 0.355775 2.06877L13.9468 15.6228L0.355775 29.1768C0.132757 29.4046 0.00854571 29.7111 0.0100891 30.0299C0.0116325 30.3486 0.138806 30.6539 0.364019 30.8795C0.589232 31.1052 0.894319 31.2329 1.21309 31.235C1.53186 31.2371 1.83861 31.1134 2.06677 30.8908L16.5178 16.4798C16.6307 16.3673 16.7203 16.2337 16.7815 16.0866C16.8426 15.9394 16.8741 15.7816 16.8741 15.6223C16.8741 15.4629 16.8426 15.3051 16.7815 15.158C16.7203 15.0108 16.6307 14.8772 16.5178 14.7648V14.7658Z" fill="#DE33FE"/>
</svg>
