<svg width="8" height="4" viewBox="0 0 8 4" fill="none" xmlns="http://www.w3.org/2000/svg">
<path d="M4.21815 3.91554L7.90939 0.489929C7.9675 0.436018 8.0001 0.36295 8 0.286797C7.9999 0.210645 7.96713 0.137647 7.90888 0.0838623C7.85063 0.0300774 7.77168 -8.87125e-05 7.6894 1.99355e-07C7.60712 8.91112e-05 7.52825 0.0304257 7.47014 0.0843364L3.99865 3.30608L0.527157 0.0843365C0.468818 0.0314701 0.390309 0.00202584 0.308663 0.0023917C0.227018 0.00275756 0.148821 0.032904 0.0910378 0.0862907C0.0332541 0.139677 0.000545504 0.211998 7.15633e-06 0.287563C-0.000531192 0.363128 0.0311446 0.435842 0.088162 0.489929L3.77915 3.91554C3.80795 3.94231 3.84217 3.96355 3.87986 3.97804C3.91755 3.99254 3.95796 4 3.99878 4C4.03959 4 4.08 3.99254 4.11769 3.97804C4.15538 3.96355 4.18961 3.94231 4.2184 3.91554L4.21815 3.91554Z" fill="white"/>
</svg>
