<svg width="17" height="32" viewBox="0 0 17 32" fill="none" xmlns="http://www.w3.org/2000/svg">
<path d="M16.5178 15.0008L2.06677 0.58876C1.83935 0.361867 1.53111 0.234611 1.20986 0.234986C0.888611 0.235361 0.580667 0.363337 0.353775 0.59076C0.126882 0.818183 -0.000374246 1.12642 8.26764e-07 1.44767C0.0003759 1.76892 0.128352 2.07687 0.355775 2.30376L13.9468 15.8578L0.355775 29.4118C0.132757 29.6395 0.00854571 29.9461 0.0100891 30.2648C0.0116325 30.5836 0.138806 30.8889 0.364019 31.1145C0.589232 31.3401 0.894319 31.4678 1.21309 31.4699C1.53186 31.4721 1.83861 31.3484 2.06677 31.1258L16.5178 16.7148C16.6307 16.6023 16.7203 16.4687 16.7815 16.3216C16.8426 16.1744 16.8741 16.0166 16.8741 15.8573C16.8741 15.6979 16.8426 15.5401 16.7815 15.393C16.7203 15.2458 16.6307 15.1122 16.5178 14.9998V15.0008Z" fill="#DE33FE"/>
</svg>
