<svg width="17" height="32" viewBox="0 0 17 32" fill="none" xmlns="http://www.w3.org/2000/svg">
<path d="M0.35625 16.4692L14.8072 30.8812C15.0347 31.1081 15.3429 31.2354 15.6642 31.235C15.9854 31.2346 16.2934 31.1066 16.5202 30.8792C16.7471 30.6518 16.8744 30.3435 16.874 30.0223C16.8736 29.701 16.7457 29.3931 16.5182 29.1662L2.92725 15.6122L16.5183 2.05821C16.7413 1.83043 16.8655 1.52391 16.8639 1.20513C16.8624 0.886356 16.7352 0.581045 16.51 0.355438C16.2848 0.129831 15.9797 0.0021228 15.6609 2.08748e-05C15.3422 -0.00208105 15.0354 0.121593 14.8073 0.344211L0.35625 14.7552C0.24332 14.8676 0.153711 15.0013 0.092565 15.1484C0.0314192 15.2956 -5.58408e-05 15.4534 -5.58547e-05 15.6127C-5.58686e-05 15.7721 0.0314192 15.9298 0.092565 16.077C0.153711 16.2242 0.24332 16.3578 0.35625 16.4702L0.35625 16.4692Z" fill="#DE33FE"/>
</svg>
