<svg width="18" height="16" viewBox="0 0 18 16" fill="none" xmlns="http://www.w3.org/2000/svg">
<path d="M12.9705 0.411865C12.0512 0.411865 11.2084 0.705179 10.4655 1.28368C9.75324 1.83829 9.27905 2.54469 8.99989 3.05835C8.72072 2.54465 8.24653 1.83829 7.53431 1.28368C6.79141 0.705179 5.94859 0.411865 5.0293 0.411865C2.4639 0.411865 0.529297 2.52467 0.529297 5.32644C0.529297 8.35333 2.94285 10.4243 6.59665 13.5594C7.21712 14.0918 7.92041 14.6953 8.6514 15.339C8.74775 15.4239 8.8715 15.4707 8.99989 15.4707C9.12827 15.4707 9.25202 15.4239 9.34837 15.339C10.0794 14.6953 10.7827 14.0918 11.4035 13.5591C15.0569 10.4243 17.4705 8.35333 17.4705 5.32644C17.4705 2.52467 15.5359 0.411865 12.9705 0.411865Z" fill="#DE33FE"/>
</svg>
