<svg width="12" height="11" viewBox="0 0 12 11" fill="none" xmlns="http://www.w3.org/2000/svg">
<path d="M8.48179 0.882355C7.90723 0.882355 7.38047 1.06568 6.91616 1.42724C6.47102 1.77387 6.17465 2.21537 6.00017 2.53641C5.82569 2.21535 5.52933 1.77387 5.08419 1.42724C4.61988 1.06568 4.09311 0.882355 3.51855 0.882355C1.91518 0.882355 0.706055 2.20285 0.706055 3.95396C0.706055 5.84577 2.21453 7.14012 4.49815 9.09958C4.88595 9.43234 5.3255 9.80952 5.78237 10.2118C5.84259 10.2649 5.91993 10.2941 6.00017 10.2941C6.08041 10.2941 6.15775 10.2649 6.21798 10.2118C6.67488 9.80948 7.11442 9.43232 7.50244 9.09937C9.78582 7.14012 11.2943 5.84577 11.2943 3.95396C11.2943 2.20285 10.0852 0.882355 8.48179 0.882355Z" fill="#DE33FE"/>
</svg>
