<svg width="10" height="10" viewBox="0 0 10 10" fill="none" xmlns="http://www.w3.org/2000/svg">
<path d="M9.98564 3.85268C9.95119 3.74661 9.85953 3.6693 9.74918 3.65329L6.64913 3.2028L5.26271 0.393693C5.21338 0.293693 5.11152 0.230392 5.00002 0.230392C4.88849 0.230392 4.78666 0.293693 4.7373 0.393693L3.35082 3.2028L0.250836 3.65329C0.140505 3.6693 0.0488058 3.74661 0.0143528 3.85266C-0.0201197 3.95874 0.0086302 4.07516 0.0884932 4.15299L2.33161 6.33959L1.80216 9.42713C1.78329 9.53706 1.82849 9.64811 1.9187 9.71368C1.96974 9.75075 2.03018 9.76961 2.09093 9.76961C2.13757 9.76961 2.18436 9.7585 2.22722 9.73596L5 8.27819L7.77266 9.73594C7.87139 9.78784 7.99098 9.7792 8.0812 9.71366C8.17141 9.64811 8.21663 9.53702 8.19778 9.4271L7.66815 6.33959L9.91152 4.15297C9.99136 4.07516 10.0201 3.95874 9.98564 3.85268Z" fill="#16B8C3"/>
</svg>
