<svg width="17" height="17" viewBox="0 0 17 17" fill="none" xmlns="http://www.w3.org/2000/svg">
<path d="M15.5723 5.76828C15.5922 5.67983 15.6028 5.58927 15.6028 5.49653V3.36886C15.6028 1.52625 11.5833 0.531982 7.8014 0.531982C4.01947 0.531982 0 1.52625 0 3.36886C0 3.44836 0.00797526 3.52612 0.0225911 3.60243C0.00875651 3.64035 0 3.68078 0 3.72349V5.49653C0 6.08599 0.411849 6.58846 1.09518 6.99953C1.07474 7.08885 1.06383 7.17905 1.06383 7.26955C1.06383 7.34904 1.07181 7.42681 1.08643 7.50314C1.07256 7.54107 1.06383 7.58149 1.06383 7.6242V9.39725C1.06383 9.56004 1.09583 9.71607 1.15563 9.86551C0.50127 10.3504 0.354622 10.8358 0.354622 11.1703C0.354622 11.2498 0.362598 11.3276 0.377214 11.4039C0.363346 11.4418 0.354622 11.4822 0.354622 11.5249V13.298C0.354622 15.1406 4.37412 16.1348 8.15605 16.1348C11.938 16.1348 15.9575 15.1406 15.9575 13.298V11.1703C15.9575 11.0129 15.926 10.8574 15.865 10.7056C16.3708 10.3337 16.6667 9.89673 16.6667 9.39725V7.26958V7.26955C16.6667 6.87905 16.4709 6.31177 15.5723 5.76828ZM2.64788 1.95005C4.01914 1.49299 5.84941 1.24123 7.8014 1.24123C9.75338 1.24123 11.5836 1.49299 12.9549 1.95005C14.1689 2.3547 14.8936 2.88511 14.8936 3.36886C14.8936 3.85262 14.1689 4.38302 12.9549 4.78768C11.5836 5.24474 9.75338 5.4965 7.8014 5.4965C5.84941 5.4965 4.01911 5.24474 2.64788 4.78768C1.43392 4.38302 0.709212 3.85262 0.709212 3.36886C0.709212 2.88511 1.43395 2.3547 2.64788 1.95005ZM14.8936 4.60672V5.49653C14.8936 5.90633 14.3721 6.3493 13.4752 6.72124V5.35513C14.0468 5.1436 14.5317 4.8937 14.8936 4.60672ZM12.766 5.58595V6.97531C12.3318 7.11014 11.8558 7.22528 11.3475 7.31952V5.90806C11.8473 5.81987 12.3241 5.71235 12.766 5.58595ZM10.6383 6.01847V7.43491C10.1834 7.49865 9.70879 7.54696 9.21989 7.5787V6.15959C9.70039 6.1283 10.1761 6.08114 10.6383 6.01847ZM8.51064 6.19419V7.61287C8.27643 7.6203 8.03988 7.62417 7.80143 7.62417C7.56299 7.62417 7.3264 7.6203 7.09222 7.61287V6.19416C7.32887 6.20184 7.56559 6.20571 7.80143 6.20571C8.03724 6.20575 8.27399 6.20187 8.51064 6.19419ZM6.38298 6.15959V7.57873C5.89408 7.54696 5.41943 7.49868 4.96452 7.43495V6.01851C5.42676 6.08114 5.90244 6.1283 6.38298 6.15959ZM4.25531 5.90809V7.31955C3.74704 7.22528 3.27103 7.11017 2.83688 6.97534V5.58595C3.27874 5.71235 3.7556 5.81991 4.25531 5.90809ZM0.709212 5.49653V4.60672C1.07113 4.8937 1.55605 5.1436 2.12764 5.35513V6.72124C1.23076 6.3493 0.709212 5.90633 0.709212 5.49653ZM1.77305 8.50737C2.13496 8.79435 2.61989 9.04426 3.19147 9.25578V10.6219C2.2946 10.25 1.77305 9.80702 1.77305 9.39722V8.50737ZM2.48226 14.5227C1.58538 14.1507 1.06383 13.7078 1.06383 13.298V12.4082C1.42575 12.6951 1.91068 12.945 2.48226 13.1566V14.5227ZM4.60993 15.121C4.10166 15.0267 3.62565 14.9116 3.1915 14.7768V13.3874C3.63337 13.5138 4.11022 13.6213 4.60993 13.7095V15.121ZM6.7376 15.3801C6.2487 15.3484 5.77406 15.3001 5.31914 15.2363V13.8199C5.78138 13.8825 6.25706 13.9297 6.7376 13.961V15.3801ZM8.86523 15.4143C8.63102 15.4217 8.39447 15.4256 8.15602 15.4256C7.91758 15.4256 7.68099 15.4217 7.44681 15.4143V13.9956C7.68346 14.0033 7.92018 14.0072 8.15602 14.0072C8.39186 14.0072 8.62858 14.0033 8.86523 13.9956V15.4143ZM10.9929 15.2363C10.538 15.3001 10.0634 15.3484 9.57448 15.3801V13.961C10.055 13.9297 10.5307 13.8826 10.9929 13.8199V15.2363ZM13.1206 14.7767C12.6864 14.9116 12.2104 15.0267 11.7021 15.1209V13.7095C12.2019 13.6213 12.6787 13.5138 13.1206 13.3874V14.7767ZM15.2482 13.298C15.2482 13.7078 14.7267 14.1507 13.8298 14.5227V13.1566C14.4014 12.945 14.8864 12.6951 15.2482 12.4082V13.298ZM13.3096 12.5891C11.9382 13.0462 10.108 13.2979 8.15605 13.2979C6.20407 13.2979 4.37376 13.0462 3.00254 12.5891C1.78857 12.1845 1.06387 11.6541 1.06387 11.1703C1.06387 10.8927 1.3042 10.6389 1.55986 10.4473C2.74753 11.6145 5.88014 12.2341 8.8653 12.2341C11.2525 12.2341 13.7339 11.8378 15.2397 11.0822C15.245 11.1117 15.2483 11.141 15.2483 11.1703C15.2482 11.6541 14.5235 12.1845 13.3096 12.5891ZM3.90072 10.8761V9.48664C4.34258 9.61301 4.81943 9.72056 5.31914 9.80874V11.2203C4.81087 11.126 4.33486 11.0109 3.90072 10.8761ZM6.02839 11.3357V9.91916C6.49062 9.98179 6.96631 10.029 7.44681 10.0603V11.4794C6.95791 11.4477 6.48327 11.3994 6.02839 11.3357ZM8.15602 11.5136V10.0948C8.39268 10.1025 8.62939 10.1064 8.86523 10.1064C9.10107 10.1064 9.33779 10.1025 9.57445 10.0948V11.5136C9.34023 11.521 9.10368 11.5249 8.86523 11.5249C8.62679 11.5249 8.39023 11.521 8.15602 11.5136ZM10.2837 11.4794V10.0602C10.7642 10.029 11.2399 9.98179 11.7021 9.91913V11.3356C11.2472 11.3994 10.7726 11.4477 10.2837 11.4794ZM12.4114 11.2203V9.80874C12.9111 9.72056 13.388 9.61301 13.8298 9.48664V10.8761C13.3956 11.0109 12.9196 11.126 12.4114 11.2203ZM15.9575 9.39725C15.9575 9.80705 15.4359 10.25 14.539 10.622V9.25581C15.1106 9.04426 15.5956 8.79439 15.9575 8.50741V9.39725ZM14.0188 8.68836C12.6475 9.14546 10.8173 9.39718 8.86527 9.39718C6.91328 9.39718 5.08297 9.14546 3.71175 8.68836C2.56032 8.30457 1.85026 7.80767 1.78005 7.34471C3.3028 7.99406 5.59242 8.33342 7.80143 8.33342C10.9102 8.33342 14.1788 7.66148 15.2442 6.39891C15.7059 6.68566 15.9575 6.99061 15.9575 7.26955C15.9575 7.7533 15.2327 8.28371 14.0188 8.68836Z" fill="#DE33FE"/>
</svg>
