<svg width="12" height="12" viewBox="0 0 12 12" fill="none" xmlns="http://www.w3.org/2000/svg">
<path d="M11.8949 3.48958L8.6449 0.114619C8.53888 0.00466566 8.37638 -0.0298494 8.23493 0.0270958C8.09293 0.0845903 7.99992 0.222101 7.99992 0.375084V2.00013H7.87495C5.18699 2.00013 3 4.18711 3 6.87507V7.62506C3 7.79901 3.1225 7.94403 3.29196 7.98358C3.31952 7.99054 3.34698 7.99356 3.37445 7.99356C3.51599 7.99356 3.65148 7.91052 3.71694 7.78006C4.41997 6.37355 5.83344 5.50006 7.40593 5.50006H7.99992V7.12501C7.99992 7.27808 8.09293 7.41559 8.23493 7.47254C8.37546 7.53003 8.53888 7.49506 8.6449 7.38502L11.8949 4.01005C12.0349 3.86458 12.0349 3.63561 11.8949 3.48958Z" fill="#16B8C3"/>
<path d="M10.4999 11.9998H1.49998C0.672997 11.9998 0 11.3269 0 10.4998V3.49998C0 2.673 0.672997 2 1.49998 2H2.99997C3.27645 2 3.49993 2.22348 3.49993 2.49996C3.49993 2.77645 3.27645 2.99993 2.99997 2.99993H1.49998C1.22396 2.99993 0.999928 3.22396 0.999928 3.49998V10.4998C0.999928 10.7759 1.22396 10.9999 1.49998 10.9999H10.4999C10.7758 10.9999 10.9998 10.7759 10.9998 10.4998V6.49995C10.9998 6.22346 11.2233 5.99989 11.4998 5.99989C11.7764 5.99989 11.9999 6.22346 11.9999 6.49995V10.4998C11.9999 11.3269 11.3269 11.9998 10.4999 11.9998Z" fill="#16B8C3"/>
</svg>
