<svg width="16" height="16" viewBox="0 0 16 16" fill="none" xmlns="http://www.w3.org/2000/svg">
<path d="M15.1778 6.20312C14.8434 5.78438 14.3872 5.55312 13.8934 5.55312H12.7653C12.6591 2.65937 10.5622 0.34375 7.99969 0.34375C5.43719 0.34375 3.34032 2.65937 3.23407 5.55312H2.10594C1.61219 5.55312 1.15594 5.78438 0.82157 6.20312C0.399695 6.72813 0.24657 7.45938 0.405945 8.1625L1.75907 14.125C1.96219 15.025 2.66219 15.6562 3.45907 15.6562H12.5372C13.3341 15.6562 14.0341 15.0281 14.2372 14.125L15.5934 8.1625C15.7528 7.45938 15.5997 6.72813 15.1778 6.20312ZM7.99969 1.61875C9.8622 1.61875 11.3872 3.3625 11.4872 5.55312H4.51219C4.61219 3.36562 6.13719 1.61875 7.99969 1.61875ZM14.3497 7.87813L12.9966 13.8438C12.9278 14.15 12.7309 14.3813 12.5403 14.3813H3.45907C3.26844 14.3813 3.07157 14.15 3.00282 13.8438L1.64969 7.87813C1.57782 7.5625 1.53407 6.82812 2.10594 6.82812H13.8934C14.5091 6.82812 14.4216 7.5625 14.3497 7.87813Z" fill="white"/>
<path d="M4.83428 8.09692C4.48115 8.09692 4.19678 8.3813 4.19678 8.73442V12.7188C4.19678 13.0719 4.48115 13.3563 4.83428 13.3563C5.1874 13.3563 5.47178 13.0719 5.47178 12.7188V8.73442C5.4749 8.38442 5.1874 8.09692 4.83428 8.09692Z" fill="white"/>
<path d="M7.92461 8.09692C7.57149 8.09692 7.28711 8.3813 7.28711 8.73442V12.7188C7.28711 13.0719 7.57149 13.3563 7.92461 13.3563C8.27774 13.3563 8.56212 13.0719 8.56212 12.7188V8.73442C8.56212 8.38442 8.27462 8.09692 7.92461 8.09692Z" fill="white"/>
<path d="M11.0125 8.09692C10.6594 8.09692 10.375 8.3813 10.375 8.73442V12.7188C10.375 13.0719 10.6594 13.3563 11.0125 13.3563C11.3656 13.3563 11.65 13.0719 11.65 12.7188V8.73442C11.65 8.38442 11.3656 8.09692 11.0125 8.09692Z" fill="white"/>
</svg>
