<svg width="10" height="10" viewBox="0 0 10 10" fill="none" xmlns="http://www.w3.org/2000/svg">
<path d="M9.3434 3.46093C9.35529 3.40786 9.3617 3.35353 9.3617 3.29788V2.02128C9.3617 0.915715 6.95 0.319153 4.68084 0.319153C2.41168 0.319153 0 0.915715 0 2.02128C0 2.06898 0.00478516 2.11564 0.0135547 2.16142C0.00525391 2.18417 0 2.20843 0 2.23406V3.29788C0 3.65156 0.247109 3.95304 0.657109 4.19968C0.644844 4.25327 0.638301 4.30739 0.638301 4.36169C0.638301 4.40939 0.643086 4.45605 0.651855 4.50185C0.643535 4.5246 0.638301 4.54886 0.638301 4.57448V5.63831C0.638301 5.73599 0.6575 5.8296 0.693379 5.91927C0.300762 6.21021 0.212773 6.50144 0.212773 6.70214C0.212773 6.74984 0.217559 6.7965 0.226328 6.84228C0.218008 6.86503 0.212773 6.88927 0.212773 6.91491V7.97874C0.212773 9.08431 2.62447 9.68087 4.89363 9.68087C7.16279 9.68087 9.57449 9.08431 9.57449 7.97874V6.70214C9.57449 6.60769 9.55561 6.51441 9.51898 6.42333C9.8225 6.20021 10 5.938 10 5.63831V4.36171V4.36169C10 4.12739 9.88256 3.78702 9.3434 3.46093ZM1.58873 1.16999C2.41148 0.895754 3.50965 0.7447 4.68084 0.7447C5.85203 0.7447 6.95016 0.895754 7.77295 1.16999C8.50133 1.41279 8.93615 1.73103 8.93615 2.02128C8.93615 2.31154 8.50133 2.62978 7.77295 2.87257C6.95014 3.14681 5.85203 3.29786 4.68084 3.29786C3.50965 3.29786 2.41146 3.14681 1.58873 2.87257C0.860352 2.62978 0.425527 2.31154 0.425527 2.02128C0.425527 1.73103 0.860371 1.41279 1.58873 1.16999ZM8.93617 2.764V3.29788C8.93617 3.54376 8.62324 3.80954 8.08512 4.03271V3.21304C8.42807 3.08613 8.71902 2.93618 8.93617 2.764ZM7.65957 3.35154V4.18515C7.39906 4.26605 7.11348 4.33513 6.80852 4.39167V3.5448C7.10836 3.49189 7.39445 3.42738 7.65957 3.35154ZM6.38299 3.61105V4.46091C6.11004 4.49915 5.82527 4.52814 5.53193 4.54718V3.69572C5.82023 3.67695 6.10564 3.64864 6.38299 3.61105ZM5.10639 3.71648V4.56769C4.96586 4.57214 4.82393 4.57447 4.68086 4.57447C4.53779 4.57447 4.39584 4.57214 4.25533 4.56769V3.71646C4.39732 3.72107 4.53936 3.72339 4.68086 3.72339C4.82234 3.72341 4.96439 3.72109 5.10639 3.71648ZM3.82979 3.69572V4.5472C3.53645 4.52814 3.25166 4.49917 2.97871 4.46093V3.61107C3.25605 3.64865 3.54147 3.67695 3.82979 3.69572ZM2.55318 3.54482V4.39169C2.24822 4.33513 1.96262 4.26607 1.70213 4.18517V3.35154C1.96725 3.42738 2.25336 3.49191 2.55318 3.54482ZM0.425527 3.29788V2.764C0.642676 2.93618 0.933633 3.08613 1.27658 3.21304V4.03271C0.738457 3.80954 0.425527 3.54376 0.425527 3.29788ZM1.06383 5.10439C1.28098 5.27657 1.57193 5.42652 1.91488 5.55343V6.37312C1.37676 6.14995 1.06383 5.88417 1.06383 5.63829V5.10439ZM1.48936 8.71357C0.95123 8.4904 0.638301 8.22462 0.638301 7.97874V7.44486C0.855449 7.61704 1.14641 7.76698 1.48936 7.8939V8.71357ZM2.76596 9.07255C2.461 9.01599 2.17539 8.94693 1.9149 8.86603V8.03239C2.18002 8.10822 2.46613 8.17275 2.76596 8.22568V9.07255ZM4.04256 9.22804C3.74922 9.20898 3.46443 9.17999 3.19148 9.14177V8.29191C3.46883 8.32948 3.75424 8.35779 4.04256 8.37657V9.22804ZM5.31914 9.24855C5.17861 9.253 5.03668 9.25533 4.89361 9.25533C4.75055 9.25533 4.60859 9.253 4.46809 9.24855V8.39734C4.61008 8.40195 4.75211 8.40427 4.89361 8.40427C5.03512 8.40427 5.17715 8.40195 5.31914 8.39734V9.24855ZM6.59574 9.14177C6.32279 9.18001 6.03803 9.209 5.74469 9.22804V8.37657C6.03301 8.35781 6.31842 8.3295 6.59574 8.29193V9.14177ZM7.87234 8.86601C7.61184 8.94691 7.32625 9.01599 7.02129 9.07253V8.22566C7.32113 8.17275 7.60725 8.10822 7.87234 8.03239V8.86601ZM9.14894 7.97874C9.14894 8.22462 8.83602 8.4904 8.29789 8.71357V7.8939C8.64086 7.76697 8.93182 7.61704 9.14894 7.44486V7.97874ZM7.98574 7.55343C7.16293 7.82767 6.06482 7.97872 4.89363 7.97872C3.72244 7.97872 2.62426 7.82767 1.80152 7.55343C1.07314 7.31064 0.63832 6.99239 0.63832 6.70214C0.63832 6.5356 0.78252 6.38331 0.935918 6.26837C1.64852 6.96866 3.52809 7.34044 5.31918 7.34044C6.75148 7.34044 8.24033 7.10267 9.14385 6.64931C9.14699 6.66697 9.14896 6.68456 9.14896 6.70214C9.14895 6.99241 8.7141 7.31064 7.98574 7.55343ZM2.34043 6.5256V5.69195C2.60555 5.76777 2.89166 5.8323 3.19148 5.88521V6.73212C2.88652 6.67558 2.60092 6.6065 2.34043 6.5256ZM3.61703 6.80136V5.95146C3.89438 5.98904 4.17979 6.01734 4.46809 6.03613V6.88763C4.17475 6.86857 3.88996 6.83958 3.61703 6.80136ZM4.89361 6.90812V6.05687C5.03561 6.06148 5.17764 6.0638 5.31914 6.0638C5.46064 6.0638 5.60268 6.06148 5.74467 6.05687V6.90812C5.60414 6.91257 5.46221 6.9149 5.31914 6.9149C5.17607 6.9149 5.03414 6.91257 4.89361 6.90812ZM6.17022 6.88761V6.03611C6.45854 6.01734 6.74395 5.98904 7.02127 5.95144V6.80134C6.74834 6.83958 6.46355 6.86857 6.17022 6.88761ZM7.44682 6.73212V5.88521C7.74666 5.8323 8.03277 5.76777 8.29787 5.69195V6.5256C8.03736 6.6065 7.75178 6.67558 7.44682 6.73212ZM9.57447 5.63831C9.57447 5.88419 9.26154 6.14997 8.72342 6.37314V5.55345C9.06639 5.42652 9.35734 5.27659 9.57447 5.10441V5.63831ZM8.41127 5.21298C7.58852 5.48724 6.49035 5.63827 5.31916 5.63827C4.14797 5.63827 3.04979 5.48724 2.22705 5.21298C1.53619 4.98271 1.11016 4.68456 1.06803 4.40679C1.98168 4.7964 3.35545 5.00001 4.68086 5.00001C6.54609 5.00001 8.50729 4.59685 9.1465 3.83931C9.42352 4.01136 9.57447 4.19433 9.57447 4.36169C9.57447 4.65195 9.13963 4.97019 8.41127 5.21298Z" fill="#FFEA03"/>
</svg>
