<svg width="17" height="17" viewBox="0 0 17 17" fill="none" xmlns="http://www.w3.org/2000/svg">
<path d="M15.5725 5.76816C15.5923 5.67971 15.603 5.58915 15.603 5.49641V3.36874C15.603 1.52613 11.5835 0.53186 7.80152 0.53186C4.01959 0.53186 0.00012207 1.52613 0.00012207 3.36874C0.00012207 3.44823 0.00809733 3.526 0.0227132 3.6023C0.00887858 3.64023 0.00012207 3.68066 0.00012207 3.72336V5.49641C0.00012207 6.08586 0.411971 6.58834 1.0953 6.99941C1.07486 7.08873 1.06396 7.17893 1.06396 7.26943C1.06396 7.34892 1.07193 7.42669 1.08655 7.50302C1.07268 7.54094 1.06396 7.58137 1.06396 7.62408V9.39713C1.06396 9.55992 1.09596 9.71594 1.15575 9.86539C0.501392 10.3503 0.354744 10.8357 0.354744 11.1702C0.354744 11.2497 0.36272 11.3274 0.377336 11.4037C0.363468 11.4417 0.354744 11.4821 0.354744 11.5248V13.2978C0.354744 15.1405 4.37424 16.1347 8.15618 16.1347C11.9381 16.1347 15.9576 15.1405 15.9576 13.2978V11.1702C15.9576 11.0128 15.9261 10.8573 15.8651 10.7055C16.371 10.3336 16.6668 9.89661 16.6668 9.39713V7.26946V7.26943C16.6668 6.87893 16.4711 6.31165 15.5725 5.76816ZM2.64801 1.94993C4.01926 1.49286 5.84954 1.24111 7.80152 1.24111C9.75351 1.24111 11.5837 1.49286 12.955 1.94993C14.169 2.35458 14.8937 2.88499 14.8937 3.36874C14.8937 3.8525 14.169 4.3829 12.955 4.78756C11.5837 5.24462 9.75351 5.49638 7.80152 5.49638C5.84954 5.49638 4.01923 5.24462 2.64801 4.78756C1.43404 4.3829 0.709334 3.8525 0.709334 3.36874C0.709334 2.88499 1.43407 2.35458 2.64801 1.94993ZM14.8937 4.6066V5.49641C14.8937 5.90621 14.3722 6.34918 13.4753 6.72112V5.35501C14.0469 5.14348 14.5318 4.89358 14.8937 4.6066ZM12.7661 5.58583V6.97519C12.3319 7.11002 11.8559 7.22516 11.3476 7.31939V5.90794C11.8474 5.81975 12.3242 5.71223 12.7661 5.58583ZM10.6384 6.01835V7.43479C10.1835 7.49853 9.70891 7.54683 9.22001 7.57857V6.15947C9.70051 6.12818 10.1762 6.08101 10.6384 6.01835ZM8.51077 6.19407V7.61275C8.27655 7.62017 8.04 7.62405 7.80155 7.62405C7.56311 7.62405 7.32652 7.62017 7.09234 7.61275V6.19404C7.329 6.20172 7.56571 6.20559 7.80155 6.20559C8.03736 6.20562 8.27411 6.20175 8.51077 6.19407ZM6.3831 6.15947V7.57861C5.8942 7.54683 5.41956 7.49856 4.96464 7.43482V6.01838C5.42688 6.08101 5.90256 6.12818 6.3831 6.15947ZM4.25543 5.90797V7.31943C3.74716 7.22516 3.27115 7.11005 2.837 6.97522V5.58583C3.27887 5.71223 3.75572 5.81978 4.25543 5.90797ZM0.709334 5.49641V4.6066C1.07125 4.89358 1.55618 5.14348 2.12776 5.35501V6.72112C1.23088 6.34918 0.709334 5.90621 0.709334 5.49641ZM1.77317 8.50725C2.13508 8.79423 2.62001 9.04413 3.19159 9.25566V10.6218C2.29472 10.2499 1.77317 9.80689 1.77317 9.3971V8.50725ZM2.48238 14.5226C1.58551 14.1506 1.06396 13.7076 1.06396 13.2978V12.408C1.42587 12.695 1.9108 12.9449 2.48238 13.1564V14.5226ZM4.61005 15.1209C4.10178 15.0266 3.62577 14.9115 3.19163 14.7767V13.3873C3.63349 13.5136 4.11034 13.6212 4.61005 13.7094V15.1209ZM6.73772 15.38C6.24882 15.3482 5.77418 15.2999 5.31926 15.2362V13.8198C5.7815 13.8824 6.25719 13.9296 6.73772 13.9609V15.38ZM8.86536 15.4142C8.63114 15.4216 8.39459 15.4255 8.15614 15.4255C7.9177 15.4255 7.68111 15.4216 7.44693 15.4142V13.9955C7.68359 14.0032 7.9203 14.0071 8.15614 14.0071C8.39198 14.0071 8.6287 14.0032 8.86536 13.9955V15.4142ZM10.993 15.2362C10.5381 15.3 10.0635 15.3483 9.5746 15.38V13.9609C10.0551 13.9296 10.5308 13.8824 10.993 13.8198V15.2362ZM13.1207 14.7766C12.6865 14.9115 12.2105 15.0266 11.7023 15.1208V13.7094C12.202 13.6212 12.6789 13.5136 13.1207 13.3873V14.7766ZM15.2484 13.2978C15.2484 13.7076 14.7268 14.1506 13.8299 14.5226V13.1564C14.4016 12.9449 14.8865 12.695 15.2484 12.408V13.2978ZM13.3097 12.589C11.9383 13.0461 10.1082 13.2978 8.15618 13.2978C6.20419 13.2978 4.37388 13.0461 3.00266 12.589C1.7887 12.1843 1.06399 11.6539 1.06399 11.1702C1.06399 10.8926 1.30432 10.6388 1.55999 10.4472C2.74765 11.6144 5.88027 12.234 8.86542 12.234C11.2526 12.234 13.734 11.8377 15.2399 11.0821C15.2451 11.1115 15.2484 11.1409 15.2484 11.1702C15.2484 11.654 14.5236 12.1843 13.3097 12.589ZM3.90084 10.8759V9.48652C4.3427 9.61288 4.81956 9.72044 5.31926 9.80862V11.2201C4.81099 11.1259 4.33499 11.0108 3.90084 10.8759ZM6.02851 11.3355V9.91903C6.49075 9.98167 6.96643 10.0288 7.44693 10.0601V11.4793C6.95803 11.4476 6.48339 11.3992 6.02851 11.3355ZM8.15614 11.5135V10.0947C8.3928 10.1024 8.62952 10.1063 8.86536 10.1063C9.1012 10.1063 9.33792 10.1024 9.57457 10.0947V11.5135C9.34036 11.5209 9.1038 11.5248 8.86536 11.5248C8.62691 11.5248 8.39036 11.5209 8.15614 11.5135ZM10.2838 11.4793V10.0601C10.7643 10.0288 11.24 9.98167 11.7022 9.919V11.3355C11.2474 11.3992 10.7727 11.4476 10.2838 11.4793ZM12.4115 11.2201V9.80862C12.9112 9.72044 13.3881 9.61288 13.8299 9.48652V10.8759C13.3957 11.0108 12.9198 11.1259 12.4115 11.2201ZM15.9576 9.39713C15.9576 9.80693 15.436 10.2499 14.5392 10.6218V9.25569C15.1108 9.04413 15.5957 8.79426 15.9576 8.50728V9.39713ZM14.0189 8.68824C12.6476 9.14534 10.8174 9.39706 8.86539 9.39706C6.9134 9.39706 5.0831 9.14534 3.71187 8.68824C2.56044 8.30445 1.85038 7.80754 1.78017 7.34459C3.30292 7.99394 5.59254 8.33329 7.80155 8.33329C10.9103 8.33329 14.1789 7.66135 15.2443 6.39879C15.706 6.68554 15.9576 6.99049 15.9576 7.26943C15.9576 7.75318 15.2328 8.28359 14.0189 8.68824Z" fill="#FFEA03"/>
</svg>
