<svg width="16" height="16" viewBox="0 0 16 16" fill="none" xmlns="http://www.w3.org/2000/svg">
<g clip-path="url(#clip0)">
<path d="M4.33317 12.6667H2.99984C2.81584 12.6667 2.6665 12.5173 2.6665 12.3333C2.6665 12.1493 2.81584 12 2.99984 12H4.33317C4.51717 12 4.6665 12.1493 4.6665 12.3333C4.6665 12.5173 4.51717 12.6667 4.33317 12.6667Z" fill="white"/>
<path d="M15.1668 12.6665H14.3335C14.1495 12.6665 14.0001 12.5172 14.0001 12.3332C14.0001 12.1492 14.1495 11.9998 14.3335 11.9998H14.8901L15.3395 9.60517C15.3335 8.37984 14.2868 7.33317 13.0001 7.33317H10.8115L9.75079 11.9998H11.6668C11.8508 11.9998 12.0001 12.1492 12.0001 12.3332C12.0001 12.5172 11.8508 12.6665 11.6668 12.6665H9.33345C9.23212 12.6665 9.13612 12.6205 9.07279 12.5412C9.00945 12.4625 8.98545 12.3585 9.00812 12.2598L10.2201 6.9265C10.2548 6.77384 10.3895 6.6665 10.5455 6.6665H13.0001C14.6541 6.6665 16.0001 8.0125 16.0001 9.6665L15.4941 12.3945C15.4648 12.5525 15.3275 12.6665 15.1668 12.6665Z" fill="white"/>
<path d="M12.9999 13.9998C12.0813 13.9998 11.3333 13.2525 11.3333 12.3332C11.3333 11.4138 12.0813 10.6665 12.9999 10.6665C13.9186 10.6665 14.6666 11.4138 14.6666 12.3332C14.6666 13.2525 13.9186 13.9998 12.9999 13.9998ZM12.9999 11.3332C12.4486 11.3332 11.9999 11.7818 11.9999 12.3332C11.9999 12.8845 12.4486 13.3332 12.9999 13.3332C13.5513 13.3332 13.9999 12.8845 13.9999 12.3332C13.9999 11.7818 13.5513 11.3332 12.9999 11.3332Z" fill="white"/>
<path d="M5.66667 13.9998C4.748 13.9998 4 13.2525 4 12.3332C4 11.4138 4.748 10.6665 5.66667 10.6665C6.58533 10.6665 7.33333 11.4138 7.33333 12.3332C7.33333 13.2525 6.58533 13.9998 5.66667 13.9998ZM5.66667 11.3332C5.11533 11.3332 4.66667 11.7818 4.66667 12.3332C4.66667 12.8845 5.11533 13.3332 5.66667 13.3332C6.218 13.3332 6.66667 12.8845 6.66667 12.3332C6.66667 11.7818 6.218 11.3332 5.66667 11.3332Z" fill="white"/>
<path d="M4.33325 6.66667H1.66659C1.48259 6.66667 1.33325 6.51733 1.33325 6.33333C1.33325 6.14933 1.48259 6 1.66659 6H4.33325C4.51725 6 4.66658 6.14933 4.66658 6.33333C4.66658 6.51733 4.51725 6.66667 4.33325 6.66667Z" fill="white"/>
<path d="M4.33341 8.66667H1.00008C0.816081 8.66667 0.666748 8.51733 0.666748 8.33333C0.666748 8.14933 0.816081 8 1.00008 8H4.33341C4.51741 8 4.66675 8.14933 4.66675 8.33333C4.66675 8.51733 4.51741 8.66667 4.33341 8.66667Z" fill="white"/>
<path d="M4.33333 10.6667H0.333333C0.149333 10.6667 0 10.5173 0 10.3333C0 10.1493 0.149333 10 0.333333 10H4.33333C4.51733 10 4.66667 10.1493 4.66667 10.3333C4.66667 10.5173 4.51733 10.6667 4.33333 10.6667Z" fill="white"/>
<path d="M9.33317 12.6665H6.99984C6.81584 12.6665 6.6665 12.5172 6.6665 12.3332C6.6665 12.1492 6.81584 11.9998 6.99984 11.9998H9.06717L10.5818 5.33317H2.99984C2.81584 5.33317 2.6665 5.18384 2.6665 4.99984C2.6665 4.81584 2.81584 4.6665 2.99984 4.6665H10.9998C11.1012 4.6665 11.1972 4.7125 11.2605 4.79184C11.3238 4.8705 11.3478 4.9745 11.3252 5.07317L9.6585 12.4065C9.62384 12.5592 9.4885 12.6665 9.33317 12.6665Z" fill="white"/>
</g>
<defs>
<clipPath id="clip0">
<rect width="16" height="16" fill="white"/>
</clipPath>
</defs>
</svg>
