<svg width="18" height="16" viewBox="0 0 18 16" fill="none" xmlns="http://www.w3.org/2000/svg">
<path d="M13.1245 0C12.1693 0 11.2936 0.304774 10.5216 0.905874C9.78159 1.48215 9.28887 2.21615 8.9988 2.74989C8.70873 2.21612 8.21601 1.48215 7.47596 0.905874C6.70404 0.304774 5.82829 0 4.87308 0C2.20745 0 0.197266 2.19535 0.197266 5.10659C0.197266 8.25174 2.70512 10.4036 6.50168 13.6612C7.14639 14.2145 7.87716 14.8415 8.6367 15.5103C8.73682 15.5986 8.8654 15.6472 8.9988 15.6472C9.1322 15.6472 9.26079 15.5986 9.3609 15.5103C10.1205 14.8414 10.8512 14.2144 11.4963 13.6609C15.2925 10.4036 17.8003 8.25174 17.8003 5.10659C17.8003 2.19535 15.7901 0 13.1245 0Z" fill="url(#paint0_linear)"/>
<defs>
<linearGradient id="paint0_linear" x1="8.9988" y1="0" x2="8.9988" y2="15.6472" gradientUnits="userSpaceOnUse">
<stop stop-color="#16B8C3"/>
<stop offset="1" stop-color="#281AC8"/>
</linearGradient>
</defs>
</svg>
