<svg width="10" height="10" viewBox="0 0 10 10" fill="none" xmlns="http://www.w3.org/2000/svg">
<path d="M9.3434 3.46111C9.35529 3.40805 9.3617 3.35371 9.3617 3.29807V2.02146C9.3617 0.915899 6.95 0.319336 4.68084 0.319336C2.41168 0.319336 0 0.915899 0 2.02146C0 2.06916 0.00478516 2.11582 0.0135547 2.1616C0.00525391 2.18436 0 2.20861 0 2.23424V3.29807C0 3.65174 0.247109 3.95322 0.657109 4.19986C0.644844 4.25346 0.638301 4.30758 0.638301 4.36188C0.638301 4.40957 0.643086 4.45623 0.651855 4.50203C0.643535 4.52479 0.638301 4.54904 0.638301 4.57467V5.6385C0.638301 5.73617 0.6575 5.82979 0.693379 5.91945C0.300762 6.21039 0.212773 6.50162 0.212773 6.70232C0.212773 6.75002 0.217559 6.79668 0.226328 6.84246C0.218008 6.86521 0.212773 6.88945 0.212773 6.9151V7.97893C0.212773 9.08449 2.62447 9.68106 4.89363 9.68106C7.16279 9.68106 9.57449 9.08449 9.57449 7.97893V6.70232C9.57449 6.60787 9.55561 6.51459 9.51898 6.42352C9.8225 6.20039 10 5.93818 10 5.6385V4.36189V4.36188C10 4.12758 9.88256 3.78721 9.3434 3.46111ZM1.58873 1.17018C2.41148 0.895938 3.50965 0.744883 4.68084 0.744883C5.85203 0.744883 6.95016 0.895938 7.77295 1.17018C8.50133 1.41297 8.93615 1.73121 8.93615 2.02146C8.93615 2.31172 8.50133 2.62996 7.77295 2.87275C6.95014 3.14699 5.85203 3.29805 4.68084 3.29805C3.50965 3.29805 2.41146 3.14699 1.58873 2.87275C0.860352 2.62996 0.425527 2.31172 0.425527 2.02146C0.425527 1.73121 0.860371 1.41297 1.58873 1.17018ZM8.93617 2.76418V3.29807C8.93617 3.54395 8.62324 3.80973 8.08512 4.03289V3.21322C8.42807 3.08631 8.71902 2.93637 8.93617 2.76418ZM7.65957 3.35172V4.18533C7.39906 4.26623 7.11348 4.33531 6.80852 4.39186V3.54498C7.10836 3.49207 7.39445 3.42756 7.65957 3.35172ZM6.38299 3.61123V4.46109C6.11004 4.49934 5.82527 4.52832 5.53193 4.54736V3.6959C5.82023 3.67713 6.10564 3.64883 6.38299 3.61123ZM5.10639 3.71666V4.56787C4.96586 4.57232 4.82393 4.57465 4.68086 4.57465C4.53779 4.57465 4.39584 4.57232 4.25533 4.56787V3.71664C4.39732 3.72125 4.53936 3.72357 4.68086 3.72357C4.82234 3.72359 4.96439 3.72127 5.10639 3.71666ZM3.82979 3.6959V4.54738C3.53645 4.52832 3.25166 4.49936 2.97871 4.46111V3.61125C3.25605 3.64883 3.54147 3.67713 3.82979 3.6959ZM2.55318 3.545V4.39188C2.24822 4.33531 1.96262 4.26625 1.70213 4.18535V3.35172C1.96725 3.42756 2.25336 3.49209 2.55318 3.545ZM0.425527 3.29807V2.76418C0.642676 2.93637 0.933633 3.08631 1.27658 3.21322V4.03289C0.738457 3.80973 0.425527 3.54395 0.425527 3.29807ZM1.06383 5.10457C1.28098 5.27676 1.57193 5.4267 1.91488 5.55361V6.3733C1.37676 6.15014 1.06383 5.88436 1.06383 5.63848V5.10457ZM1.48936 8.71375C0.95123 8.49059 0.638301 8.2248 0.638301 7.97893V7.44504C0.855449 7.61723 1.14641 7.76717 1.48936 7.89408V8.71375ZM2.76596 9.07273C2.461 9.01617 2.17539 8.94711 1.9149 8.86621V8.03258C2.18002 8.1084 2.46613 8.17293 2.76596 8.22586V9.07273ZM4.04256 9.22822C3.74922 9.20916 3.46443 9.18018 3.19148 9.14195V8.29209C3.46883 8.32967 3.75424 8.35797 4.04256 8.37676V9.22822ZM5.31914 9.24873C5.17861 9.25318 5.03668 9.25551 4.89361 9.25551C4.75055 9.25551 4.60859 9.25318 4.46809 9.24873V8.39752C4.61008 8.40213 4.75211 8.40445 4.89361 8.40445C5.03512 8.40445 5.17715 8.40213 5.31914 8.39752V9.24873ZM6.59574 9.14195C6.32279 9.1802 6.03803 9.20918 5.74469 9.22822V8.37676C6.03301 8.35799 6.31842 8.32969 6.59574 8.29211V9.14195ZM7.87234 8.86619C7.61184 8.94709 7.32625 9.01617 7.02129 9.07271V8.22584C7.32113 8.17293 7.60725 8.1084 7.87234 8.03258V8.86619ZM9.14894 7.97893C9.14894 8.2248 8.83602 8.49059 8.29789 8.71375V7.89408C8.64086 7.76715 8.93182 7.61723 9.14894 7.44504V7.97893ZM7.98574 7.55361C7.16293 7.82785 6.06482 7.97891 4.89363 7.97891C3.72244 7.97891 2.62426 7.82785 1.80152 7.55361C1.07314 7.31082 0.63832 6.99258 0.63832 6.70232C0.63832 6.53578 0.78252 6.3835 0.935918 6.26855C1.64852 6.96885 3.52809 7.34062 5.31918 7.34062C6.75148 7.34062 8.24033 7.10285 9.14385 6.64949C9.14699 6.66715 9.14896 6.68475 9.14896 6.70232C9.14895 6.9926 8.7141 7.31082 7.98574 7.55361ZM2.34043 6.52578V5.69213C2.60555 5.76795 2.89166 5.83248 3.19148 5.88539V6.7323C2.88652 6.67576 2.60092 6.60668 2.34043 6.52578ZM3.61703 6.80154V5.95164C3.89438 5.98922 4.17979 6.01752 4.46809 6.03631V6.88781C4.17475 6.86875 3.88996 6.83977 3.61703 6.80154ZM4.89361 6.9083V6.05705C5.03561 6.06166 5.17764 6.06398 5.31914 6.06398C5.46064 6.06398 5.60268 6.06166 5.74467 6.05705V6.9083C5.60414 6.91275 5.46221 6.91508 5.31914 6.91508C5.17607 6.91508 5.03414 6.91275 4.89361 6.9083ZM6.17022 6.88779V6.03629C6.45854 6.01752 6.74395 5.98922 7.02127 5.95162V6.80152C6.74834 6.83977 6.46355 6.86875 6.17022 6.88779ZM7.44682 6.7323V5.88539C7.74666 5.83248 8.03277 5.76795 8.29787 5.69213V6.52578C8.03736 6.60668 7.75178 6.67576 7.44682 6.7323ZM9.57447 5.6385C9.57447 5.88438 9.26154 6.15016 8.72342 6.37332V5.55363C9.06639 5.4267 9.35734 5.27678 9.57447 5.10459V5.6385ZM8.41127 5.21316C7.58852 5.48742 6.49035 5.63846 5.31916 5.63846C4.14797 5.63846 3.04979 5.48742 2.22705 5.21316C1.53619 4.98289 1.11016 4.68475 1.06803 4.40697C1.98168 4.79658 3.35545 5.0002 4.68086 5.0002C6.54609 5.0002 8.50729 4.59703 9.1465 3.83949C9.42352 4.01154 9.57447 4.19451 9.57447 4.36188C9.57447 4.65213 9.13963 4.97037 8.41127 5.21316Z" fill="#DE33FE"/>
</svg>
