<svg width="16" height="16" viewBox="0 0 16 16" fill="none" xmlns="http://www.w3.org/2000/svg">
<g clip-path="url(#clip0)">
<path d="M4.33366 12.6667H3.00033C2.81633 12.6667 2.66699 12.5173 2.66699 12.3333C2.66699 12.1493 2.81633 12 3.00033 12H4.33366C4.51766 12 4.66699 12.1493 4.66699 12.3333C4.66699 12.5173 4.51766 12.6667 4.33366 12.6667Z" fill="white"/>
<path d="M15.167 12.6665H14.3337C14.1497 12.6665 14.0004 12.5172 14.0004 12.3332C14.0004 12.1492 14.1497 11.9998 14.3337 11.9998H14.8904L15.3397 9.60517C15.3337 8.37984 14.287 7.33317 13.0004 7.33317H10.8117L9.75103 11.9998H11.667C11.851 11.9998 12.0004 12.1492 12.0004 12.3332C12.0004 12.5172 11.851 12.6665 11.667 12.6665H9.3337C9.23237 12.6665 9.13637 12.6205 9.07303 12.5412C9.0097 12.4625 8.9857 12.3585 9.00837 12.2598L10.2204 6.9265C10.255 6.77384 10.3897 6.6665 10.5457 6.6665H13.0004C14.6544 6.6665 16.0004 8.0125 16.0004 9.6665L15.4944 12.3945C15.465 12.5525 15.3277 12.6665 15.167 12.6665Z" fill="white"/>
<path d="M12.9997 13.9998C12.081 13.9998 11.333 13.2525 11.333 12.3332C11.333 11.4138 12.081 10.6665 12.9997 10.6665C13.9183 10.6665 14.6663 11.4138 14.6663 12.3332C14.6663 13.2525 13.9183 13.9998 12.9997 13.9998ZM12.9997 11.3332C12.4483 11.3332 11.9997 11.7818 11.9997 12.3332C11.9997 12.8845 12.4483 13.3332 12.9997 13.3332C13.551 13.3332 13.9997 12.8845 13.9997 12.3332C13.9997 11.7818 13.551 11.3332 12.9997 11.3332Z" fill="white"/>
<path d="M5.66667 13.9998C4.748 13.9998 4 13.2525 4 12.3332C4 11.4138 4.748 10.6665 5.66667 10.6665C6.58533 10.6665 7.33333 11.4138 7.33333 12.3332C7.33333 13.2525 6.58533 13.9998 5.66667 13.9998ZM5.66667 11.3332C5.11533 11.3332 4.66667 11.7818 4.66667 12.3332C4.66667 12.8845 5.11533 13.3332 5.66667 13.3332C6.218 13.3332 6.66667 12.8845 6.66667 12.3332C6.66667 11.7818 6.218 11.3332 5.66667 11.3332Z" fill="white"/>
<path d="M4.33301 6.66667H1.66634C1.48234 6.66667 1.33301 6.51733 1.33301 6.33333C1.33301 6.14933 1.48234 6 1.66634 6H4.33301C4.51701 6 4.66634 6.14933 4.66634 6.33333C4.66634 6.51733 4.51701 6.66667 4.33301 6.66667Z" fill="white"/>
<path d="M4.33366 8.66667H1.00033C0.816326 8.66667 0.666992 8.51733 0.666992 8.33333C0.666992 8.14933 0.816326 8 1.00033 8H4.33366C4.51766 8 4.66699 8.14933 4.66699 8.33333C4.66699 8.51733 4.51766 8.66667 4.33366 8.66667Z" fill="white"/>
<path d="M4.33333 10.6667H0.333333C0.149333 10.6667 0 10.5173 0 10.3333C0 10.1493 0.149333 10 0.333333 10H4.33333C4.51733 10 4.66667 10.1493 4.66667 10.3333C4.66667 10.5173 4.51733 10.6667 4.33333 10.6667Z" fill="white"/>
<path d="M9.33366 12.6665H7.00033C6.81633 12.6665 6.66699 12.5172 6.66699 12.3332C6.66699 12.1492 6.81633 11.9998 7.00033 11.9998H9.06766L10.5823 5.33317H3.00033C2.81633 5.33317 2.66699 5.18384 2.66699 4.99984C2.66699 4.81584 2.81633 4.6665 3.00033 4.6665H11.0003C11.1017 4.6665 11.1977 4.7125 11.261 4.79184C11.3243 4.8705 11.3483 4.9745 11.3257 5.07317L9.65899 12.4065C9.62433 12.5592 9.48899 12.6665 9.33366 12.6665Z" fill="white"/>
</g>
<defs>
<clipPath id="clip0">
<rect width="16" height="16" fill="white"/>
</clipPath>
</defs>
</svg>
