<svg width="16" height="15" viewBox="0 0 16 15" fill="none" xmlns="http://www.w3.org/2000/svg">
<path d="M11.7222 0.823242C10.8604 0.823242 10.0702 1.09822 9.37375 1.64057C8.70604 2.16051 8.26149 2.82276 7.99977 3.30432C7.73805 2.82273 7.2935 2.16051 6.62579 1.64057C5.92933 1.09822 5.13918 0.823242 4.27734 0.823242C1.87228 0.823242 0.0585938 2.80399 0.0585938 5.43066C0.0585938 8.26836 2.3213 10.2099 5.74674 13.1491C6.32843 13.6482 6.98777 14.214 7.67307 14.8174C7.7634 14.897 7.87941 14.9409 7.99977 14.9409C8.12013 14.9409 8.23615 14.897 8.32648 14.8174C9.01184 14.2139 9.67114 13.6482 10.2532 13.1488C13.6782 10.2099 15.9409 8.26836 15.9409 5.43066C15.9409 2.80399 14.1273 0.823242 11.7222 0.823242Z" fill="#DE33FE"/>
</svg>
