<svg width="10" height="10" viewBox="0 0 10 10" fill="none" xmlns="http://www.w3.org/2000/svg">
<path d="M9.48681 3.87695C9.27782 3.61523 8.99267 3.4707 8.68407 3.4707H7.979C7.91259 1.66211 6.60204 0.214844 5.00048 0.214844C3.39892 0.214844 2.08837 1.66211 2.02197 3.4707H1.31689C1.00829 3.4707 0.723137 3.61523 0.514152 3.87695C0.250481 4.20508 0.154778 4.66211 0.254387 5.10156L1.10009 8.82812C1.22704 9.39062 1.66454 9.78516 2.16259 9.78516H7.83642C8.33447 9.78516 8.77197 9.39258 8.89892 8.82812L9.74657 5.10156C9.84618 4.66211 9.75048 4.20508 9.48681 3.87695ZM5.00048 1.01172C6.16454 1.01172 7.11767 2.10156 7.18017 3.4707H2.82079C2.88329 2.10352 3.83642 1.01172 5.00048 1.01172ZM8.96923 4.92383L8.12353 8.65234C8.08056 8.84375 7.95751 8.98828 7.83837 8.98828H2.16259C2.04345 8.98828 1.9204 8.84375 1.87743 8.65234L1.03173 4.92383C0.986809 4.72656 0.959465 4.26758 1.31689 4.26758H8.68407C9.06884 4.26758 9.01415 4.72656 8.96923 4.92383Z" fill="white"/>
<path d="M3.02148 5.06067C2.80078 5.06067 2.62305 5.2384 2.62305 5.45911V7.94934C2.62305 8.17004 2.80078 8.34778 3.02148 8.34778C3.24219 8.34778 3.41992 8.17004 3.41992 7.94934V5.45911C3.42187 5.24036 3.24219 5.06067 3.02148 5.06067Z" fill="white"/>
<path d="M4.95313 5.06067C4.73242 5.06067 4.55469 5.2384 4.55469 5.45911V7.94934C4.55469 8.17004 4.73242 8.34778 4.95313 8.34778C5.17383 8.34778 5.35157 8.17004 5.35157 7.94934V5.45911C5.35157 5.24036 5.17188 5.06067 4.95313 5.06067Z" fill="white"/>
<path d="M6.88281 5.06067C6.66211 5.06067 6.48438 5.2384 6.48438 5.45911V7.94934C6.48438 8.17004 6.66211 8.34778 6.88281 8.34778C7.10352 8.34778 7.28125 8.17004 7.28125 7.94934V5.45911C7.28125 5.24036 7.10352 5.06067 6.88281 5.06067Z" fill="white"/>
</svg>
