<svg width="21" height="11" viewBox="0 0 21 11" fill="none" xmlns="http://www.w3.org/2000/svg">
<path d="M9.92737 0.232272L0.237851 9.6527C0.0853058 9.80095 -0.000251483 10.0019 6.59277e-07 10.2113C0.000252802 10.4207 0.0862938 10.6215 0.239196 10.7694C0.392097 10.9173 0.599335 11.0002 0.815319 11C1.0313 10.9998 1.23834 10.9163 1.39088 10.7681L10.5036 1.90827L19.6162 10.7681C19.7694 10.9135 19.9754 10.9944 20.1898 10.9934C20.4041 10.9924 20.6093 10.9095 20.761 10.7627C20.9127 10.6159 20.9986 10.417 21 10.2092C21.0014 10.0014 20.9182 9.80144 20.7686 9.6527L11.0797 0.232272C11.0041 0.158655 10.9143 0.100238 10.8154 0.0603785C10.7164 0.0205188 10.6104 4.37705e-07 10.5032 4.23656e-07C10.3961 4.09607e-07 10.29 0.0205187 10.1911 0.0603785C10.0921 0.100238 10.0023 0.158655 9.9267 0.232272L9.92737 0.232272Z" fill="white"/>
</svg>
