<svg width="17" height="32" viewBox="0 0 17 32" fill="none" xmlns="http://www.w3.org/2000/svg">
<path d="M0.357227 16.4686L14.8082 30.8806C15.0356 31.1075 15.3439 31.2347 15.6651 31.2344C15.9864 31.234 16.2943 31.106 16.5212 30.8786C16.7481 30.6512 16.8754 30.3429 16.875 30.0217C16.8746 29.7004 16.7466 29.3925 16.5192 29.1656L2.92823 15.6116L16.5192 2.0576C16.7422 1.82982 16.8665 1.5233 16.8649 1.20452C16.8634 0.885746 16.7362 0.580435 16.511 0.354828C16.2858 0.129221 15.9807 0.00151245 15.6619 -0.000589477C15.3431 -0.0026914 15.0364 0.120983 14.8082 0.343601L0.357227 14.7546C0.244297 14.867 0.154687 15.0007 0.0935416 15.1478C0.0323958 15.295 0.000920722 15.4527 0.000920708 15.6121C0.000920694 15.7715 0.0323957 15.9292 0.0935415 16.0764C0.154687 16.2235 0.244296 16.3572 0.357227 16.4696L0.357227 16.4686Z" fill="white"/>
</svg>
