<svg width="17" height="32" viewBox="0 0 17 32" fill="none" xmlns="http://www.w3.org/2000/svg">
<path d="M16.5178 15.0001L2.06677 0.58815C1.83935 0.361257 1.53111 0.234001 1.20986 0.234376C0.888611 0.234751 0.580667 0.362727 0.353775 0.59015C0.126882 0.817573 -0.000374246 1.12581 8.26764e-07 1.44706C0.0003759 1.76831 0.128352 2.07626 0.355775 2.30315L13.9468 15.8571L0.355775 29.4111C0.132757 29.6389 0.00854571 29.9455 0.0100891 30.2642C0.0116325 30.583 0.138806 30.8883 0.364019 31.1139C0.589232 31.3395 0.894319 31.4672 1.21309 31.4693C1.53186 31.4714 1.83861 31.3478 2.06677 31.1251L16.5178 16.7141C16.6307 16.6017 16.7203 16.4681 16.7815 16.3209C16.8426 16.1738 16.8741 16.016 16.8741 15.8566C16.8741 15.6973 16.8426 15.5395 16.7815 15.3924C16.7203 15.2452 16.6307 15.1116 16.5178 14.9991V15.0001Z" fill="white"/>
</svg>
