<svg width="21" height="11" viewBox="0 0 21 11" fill="none" xmlns="http://www.w3.org/2000/svg">
<path d="M11.0726 10.7677L20.7621 1.3473C20.9147 1.19905 21.0003 0.998111 21 0.788693C20.9997 0.579274 20.9137 0.37853 20.7608 0.230621C20.6079 0.0827128 20.4007 -0.000243992 20.1847 5.03318e-07C19.9687 0.000244999 19.7617 0.0836707 19.6091 0.231925L10.4965 9.09173L1.38379 0.231924C1.23064 0.0865417 1.02456 0.00556997 0.81024 0.00657607C0.595921 0.00758216 0.390654 0.0904849 0.238972 0.237298C0.0872917 0.384112 0.00143049 0.582994 1.71316e-05 0.790797C-0.00139622 0.998601 0.0817527 1.19856 0.231424 1.3473L9.92027 10.7677C9.99586 10.8413 10.0857 10.8998 10.1846 10.9396C10.2836 10.9795 10.3896 11 10.4968 11C10.6039 11 10.71 10.9795 10.8089 10.9396C10.9079 10.8998 10.9977 10.8413 11.0733 10.7677L11.0726 10.7677Z" fill="white"/>
</svg>
