<svg width="25" height="23" viewBox="0 0 25 23" fill="none" xmlns="http://www.w3.org/2000/svg">
<path d="M16.4569 19.5468C16.4976 19.5536 16.5382 19.5569 16.5781 19.5569C16.9297 19.5569 17.24 19.303 17.2997 18.9448L18.0321 14.5503C18.0986 14.1513 17.8291 13.7739 17.4301 13.7074C17.0311 13.6407 16.6537 13.9104 16.5872 14.3094L15.8548 18.704C15.7883 19.103 16.0578 19.4804 16.4569 19.5468Z" fill="white"/>
<path d="M7.74934 18.9447C7.80906 19.303 8.11931 19.5569 8.47092 19.5569C8.51091 19.5569 8.55144 19.5536 8.59221 19.5468C8.99124 19.4803 9.26077 19.1029 9.19426 18.7039L8.46184 14.3094C8.39534 13.9104 8.01804 13.6409 7.61897 13.7073C7.21994 13.7738 6.95041 14.1512 7.01692 14.5502L7.74934 18.9447Z" fill="white"/>
<path d="M24.2676 7.83788H21.6899L16.0504 0.788566C15.7978 0.472794 15.3369 0.421476 15.021 0.67421C14.7051 0.926896 14.6539 1.38778 14.9066 1.70365L19.814 7.83788H5.18599L10.0934 1.70365C10.3461 1.38778 10.2949 0.926847 9.97905 0.67421C9.66313 0.421476 9.20225 0.472746 8.94961 0.788566L3.31011 7.83788H0.732422C0.32793 7.83788 0 8.16581 0 8.5703V11.5C0 11.9045 0.32793 12.2324 0.732422 12.2324H1.64482L4.42275 21.9551C4.51255 22.2696 4.79995 22.4863 5.12695 22.4863H19.873C20.2 22.4863 20.4875 22.2696 20.5773 21.9551L23.3552 12.2324H24.2676C24.6721 12.2324 25 11.9045 25 11.5V8.5703C25 8.16581 24.6721 7.83788 24.2676 7.83788ZM19.3206 21.0215H5.67939L3.16826 12.2324H21.8318L19.3206 21.0215ZM23.5352 10.7676C21.0261 10.7676 3.8418 10.7676 1.46484 10.7676V9.30273H23.5352V10.7676Z" fill="white"/>
<path d="M12.5 19.5566C12.9045 19.5566 13.2324 19.2287 13.2324 18.8242V14.4297C13.2324 14.0252 12.9045 13.6973 12.5 13.6973C12.0955 13.6973 11.7676 14.0252 11.7676 14.4297V18.8242C11.7676 19.2288 12.0955 19.5566 12.5 19.5566Z" fill="white"/>
</svg>
