<svg width="27" height="25" viewBox="0 0 27 25" fill="none" xmlns="http://www.w3.org/2000/svg">
<path d="M17.7729 21.1906C17.8169 21.1979 17.8607 21.2015 17.9039 21.2015C18.2836 21.2015 18.6187 20.9273 18.6832 20.5404L19.4742 15.7943C19.546 15.3634 19.255 14.9558 18.824 14.884C18.3931 14.812 17.9855 15.1033 17.9137 15.5342L17.1227 20.2803C17.0509 20.7112 17.342 21.1188 17.7729 21.1906Z" fill="#00F4C8"/>
<path d="M8.36953 20.5403C8.43402 20.9272 8.7691 21.2014 9.14884 21.2014C9.19203 21.2014 9.2358 21.1979 9.27983 21.1905C9.71078 21.1187 10.0019 20.7112 9.93005 20.2802L9.13903 15.5341C9.06721 15.1032 8.65973 14.8122 8.22873 14.8839C7.79778 14.9557 7.50669 15.3633 7.57851 15.7942L8.36953 20.5403Z" fill="#00F4C8"/>
<path d="M26.209 8.54491H23.4251L17.3345 0.931651C17.0616 0.590618 16.5639 0.535194 16.2227 0.808147C15.8815 1.08105 15.8262 1.57881 16.0992 1.91995L21.3991 8.54491H5.60087L10.9009 1.91995C11.1738 1.57881 11.1185 1.08099 10.7774 0.808147C10.4362 0.535194 9.93843 0.590565 9.66558 0.931651L3.57492 8.54491H0.791016C0.354164 8.54491 0 8.89908 0 9.33593V12.5C0 12.9368 0.354164 13.291 0.791016 13.291H1.77641L4.77657 23.7915C4.87355 24.1311 5.18395 24.3652 5.53711 24.3652H21.4629C21.8161 24.3652 22.1264 24.1311 22.2235 23.7915L25.2236 13.291H26.209C26.6458 13.291 27 12.9368 27 12.5V9.33593C27 8.89908 26.6458 8.54491 26.209 8.54491ZM20.8663 22.7832H6.13375L3.42172 13.291H23.5783L20.8663 22.7832ZM25.418 11.709C22.7082 11.709 4.14914 11.709 1.58203 11.709V10.1269H25.418V11.709Z" fill="#00F4C8"/>
<path d="M13.5 21.2012C13.9369 21.2012 14.291 20.847 14.291 20.4102V15.6641C14.291 15.2272 13.9369 14.873 13.5 14.873C13.0631 14.873 12.709 15.2272 12.709 15.6641V20.4102C12.709 20.8471 13.0631 21.2012 13.5 21.2012Z" fill="#00F4C8"/>
</svg>
