<svg width="16" height="16" viewBox="0 0 16 16" fill="none" xmlns="http://www.w3.org/2000/svg">
<g clip-path="url(#clip0_303:5)">
<path d="M4.33317 12.6667H2.99984C2.81584 12.6667 2.6665 12.5173 2.6665 12.3333C2.6665 12.1493 2.81584 12 2.99984 12H4.33317C4.51717 12 4.6665 12.1493 4.6665 12.3333C4.6665 12.5173 4.51717 12.6667 4.33317 12.6667Z" fill="white"/>
<path d="M15.1668 12.667H14.3335C14.1495 12.667 14.0001 12.5177 14.0001 12.3337C14.0001 12.1497 14.1495 12.0003 14.3335 12.0003H14.8901L15.3395 9.60566C15.3335 8.38033 14.2868 7.33366 13.0001 7.33366H10.8115L9.75079 12.0003H11.6668C11.8508 12.0003 12.0001 12.1497 12.0001 12.3337C12.0001 12.5177 11.8508 12.667 11.6668 12.667H9.33345C9.23212 12.667 9.13612 12.621 9.07279 12.5417C9.00945 12.463 8.98545 12.359 9.00812 12.2603L10.2201 6.92699C10.2548 6.77433 10.3895 6.66699 10.5455 6.66699H13.0001C14.6541 6.66699 16.0001 8.01299 16.0001 9.66699L15.4941 12.395C15.4648 12.553 15.3275 12.667 15.1668 12.667Z" fill="white"/>
<path d="M12.9999 14.0003C12.0813 14.0003 11.3333 13.253 11.3333 12.3337C11.3333 11.4143 12.0813 10.667 12.9999 10.667C13.9186 10.667 14.6666 11.4143 14.6666 12.3337C14.6666 13.253 13.9186 14.0003 12.9999 14.0003ZM12.9999 11.3337C12.4486 11.3337 11.9999 11.7823 11.9999 12.3337C11.9999 12.885 12.4486 13.3337 12.9999 13.3337C13.5513 13.3337 13.9999 12.885 13.9999 12.3337C13.9999 11.7823 13.5513 11.3337 12.9999 11.3337Z" fill="white"/>
<path d="M5.66667 14.0003C4.748 14.0003 4 13.253 4 12.3337C4 11.4143 4.748 10.667 5.66667 10.667C6.58533 10.667 7.33333 11.4143 7.33333 12.3337C7.33333 13.253 6.58533 14.0003 5.66667 14.0003ZM5.66667 11.3337C5.11533 11.3337 4.66667 11.7823 4.66667 12.3337C4.66667 12.885 5.11533 13.3337 5.66667 13.3337C6.218 13.3337 6.66667 12.885 6.66667 12.3337C6.66667 11.7823 6.218 11.3337 5.66667 11.3337Z" fill="white"/>
<path d="M4.33325 6.66667H1.66659C1.48259 6.66667 1.33325 6.51733 1.33325 6.33333C1.33325 6.14933 1.48259 6 1.66659 6H4.33325C4.51725 6 4.66658 6.14933 4.66658 6.33333C4.66658 6.51733 4.51725 6.66667 4.33325 6.66667Z" fill="white"/>
<path d="M4.33341 8.66667H1.00008C0.816081 8.66667 0.666748 8.51733 0.666748 8.33333C0.666748 8.14933 0.816081 8 1.00008 8H4.33341C4.51741 8 4.66675 8.14933 4.66675 8.33333C4.66675 8.51733 4.51741 8.66667 4.33341 8.66667Z" fill="white"/>
<path d="M4.33333 10.6667H0.333333C0.149333 10.6667 0 10.5173 0 10.3333C0 10.1493 0.149333 10 0.333333 10H4.33333C4.51733 10 4.66667 10.1493 4.66667 10.3333C4.66667 10.5173 4.51733 10.6667 4.33333 10.6667Z" fill="white"/>
<path d="M9.33317 12.667H6.99984C6.81584 12.667 6.6665 12.5177 6.6665 12.3337C6.6665 12.1497 6.81584 12.0003 6.99984 12.0003H9.06717L10.5818 5.33366H2.99984C2.81584 5.33366 2.6665 5.18433 2.6665 5.00033C2.6665 4.81633 2.81584 4.66699 2.99984 4.66699H10.9998C11.1012 4.66699 11.1972 4.71299 11.2605 4.79233C11.3238 4.87099 11.3478 4.97499 11.3252 5.07366L9.6585 12.407C9.62384 12.5597 9.4885 12.667 9.33317 12.667Z" fill="white"/>
</g>
<defs>
<clipPath id="clip0_303:5">
<rect width="16" height="16" fill="white"/>
</clipPath>
</defs>
</svg>
