<svg width="16" height="16" viewBox="0 0 16 16" fill="none" xmlns="http://www.w3.org/2000/svg">
<g clip-path="url(#clip0_309_5)">
<path d="M4.33329 12.6667H2.99996C2.81596 12.6667 2.66663 12.5173 2.66663 12.3333C2.66663 12.1493 2.81596 12 2.99996 12H4.33329C4.51729 12 4.66663 12.1493 4.66663 12.3333C4.66663 12.5173 4.51729 12.6667 4.33329 12.6667Z" fill="white"/>
<path d="M15.1667 12.667H14.3333C14.1493 12.667 14 12.5177 14 12.3337C14 12.1497 14.1493 12.0003 14.3333 12.0003H14.89L15.3393 9.60566C15.3333 8.38033 14.2867 7.33366 13 7.33366H10.8113L9.75067 12.0003H11.6667C11.8507 12.0003 12 12.1497 12 12.3337C12 12.5177 11.8507 12.667 11.6667 12.667H9.33333C9.232 12.667 9.136 12.621 9.07267 12.5417C9.00933 12.463 8.98533 12.359 9.008 12.2603L10.22 6.92699C10.2547 6.77433 10.3893 6.66699 10.5453 6.66699H13C14.654 6.66699 16 8.01299 16 9.66699L15.494 12.395C15.4647 12.553 15.3273 12.667 15.1667 12.667Z" fill="white"/>
<path d="M13 14.0003C12.0814 14.0003 11.3334 13.253 11.3334 12.3337C11.3334 11.4143 12.0814 10.667 13 10.667C13.9187 10.667 14.6667 11.4143 14.6667 12.3337C14.6667 13.253 13.9187 14.0003 13 14.0003ZM13 11.3337C12.4487 11.3337 12 11.7823 12 12.3337C12 12.885 12.4487 13.3337 13 13.3337C13.5514 13.3337 14 12.885 14 12.3337C14 11.7823 13.5514 11.3337 13 11.3337Z" fill="white"/>
<path d="M5.66667 14.0003C4.748 14.0003 4 13.253 4 12.3337C4 11.4143 4.748 10.667 5.66667 10.667C6.58533 10.667 7.33333 11.4143 7.33333 12.3337C7.33333 13.253 6.58533 14.0003 5.66667 14.0003ZM5.66667 11.3337C5.11533 11.3337 4.66667 11.7823 4.66667 12.3337C4.66667 12.885 5.11533 13.3337 5.66667 13.3337C6.218 13.3337 6.66667 12.885 6.66667 12.3337C6.66667 11.7823 6.218 11.3337 5.66667 11.3337Z" fill="white"/>
<path d="M4.33337 6.66667H1.66671C1.48271 6.66667 1.33337 6.51733 1.33337 6.33333C1.33337 6.14933 1.48271 6 1.66671 6H4.33337C4.51737 6 4.66671 6.14933 4.66671 6.33333C4.66671 6.51733 4.51737 6.66667 4.33337 6.66667Z" fill="white"/>
<path d="M4.33329 8.66667H0.999959C0.815959 8.66667 0.666626 8.51733 0.666626 8.33333C0.666626 8.14933 0.815959 8 0.999959 8H4.33329C4.51729 8 4.66663 8.14933 4.66663 8.33333C4.66663 8.51733 4.51729 8.66667 4.33329 8.66667Z" fill="white"/>
<path d="M4.33333 10.6667H0.333333C0.149333 10.6667 0 10.5173 0 10.3333C0 10.1493 0.149333 10 0.333333 10H4.33333C4.51733 10 4.66667 10.1493 4.66667 10.3333C4.66667 10.5173 4.51733 10.6667 4.33333 10.6667Z" fill="white"/>
<path d="M9.33329 12.667H6.99996C6.81596 12.667 6.66663 12.5177 6.66663 12.3337C6.66663 12.1497 6.81596 12.0003 6.99996 12.0003H9.06729L10.582 5.33366H2.99996C2.81596 5.33366 2.66663 5.18433 2.66663 5.00033C2.66663 4.81633 2.81596 4.66699 2.99996 4.66699H11C11.1013 4.66699 11.1973 4.71299 11.2606 4.79233C11.324 4.87099 11.348 4.97499 11.3253 5.07366L9.65863 12.407C9.62396 12.5597 9.48863 12.667 9.33329 12.667Z" fill="white"/>
</g>
<defs>
<clipPath id="clip0_309_5">
<rect width="16" height="16" fill="white"/>
</clipPath>
</defs>
</svg>
