<svg width="16" height="22" viewBox="0 0 16 22" fill="none" xmlns="http://www.w3.org/2000/svg">
<path d="M8 0C4.35763 0 0.4375 0.86075 0.4375 2.75V19.25C0.4375 21.1392 4.35763 22 8 22C11.6424 22 15.5625 21.1392 15.5625 19.25V2.75C15.5625 0.86075 11.6424 0 8 0ZM1.8125 2.75825C1.92319 2.376 3.98431 1.375 8 1.375C11.9847 1.375 14.0459 2.36088 14.1854 2.75C14.0459 3.13912 11.9847 4.125 8 4.125C3.98431 4.125 1.92319 3.124 1.8125 2.76238V2.75825ZM8 20.625C3.97881 20.625 1.91631 19.6213 1.81181 19.2603C1.91631 18.8787 3.97881 17.875 8 17.875C11.9847 17.875 14.0459 18.8609 14.1854 19.25C14.0459 19.6391 11.9847 20.625 8 20.625ZM14.1875 17.5814C12.7245 16.8472 10.3079 16.5 8 16.5C5.69206 16.5 3.2755 16.8472 1.8125 17.5807V4.41925C3.2755 5.15281 5.69206 5.5 8 5.5C10.3079 5.5 12.7245 5.15281 14.1875 4.41925V17.5814Z" fill="#EBEBEB"/>
</svg>
