<svg width="78" height="93" viewBox="0 0 78 93" fill="none" xmlns="http://www.w3.org/2000/svg">
<g filter="url(#filter0_dd)">
<path d="M41.3411 85L9 66.2305L9 28.6907L41.3411 9.92248L73.6822 28.6907L73.6822 66.2305L41.3411 85Z" fill="#04133C"/>
</g>
<g clip-path="url(#clip0)">
<path d="M41.1279 57.5799C40.7826 57.5799 40.4497 57.4548 40.1902 57.2275C39.2103 56.3707 38.2656 55.5655 37.4321 54.8553L37.4279 54.8516C34.9842 52.7691 32.874 50.9708 31.4057 49.1992C29.7645 47.2187 29 45.3409 29 43.2896C29 41.2965 29.6834 39.4578 30.9242 38.1119C32.1798 36.75 33.9027 36 35.776 36C37.1762 36 38.4584 36.4427 39.5871 37.3156C40.1567 37.7562 40.673 38.2954 41.1279 38.9245C41.5829 38.2954 42.0991 37.7562 42.6689 37.3156C43.7975 36.4427 45.0798 36 46.4799 36C48.3531 36 50.0761 36.75 51.3317 38.1119C52.5725 39.4578 53.2558 41.2965 53.2558 43.2896C53.2558 45.3409 52.4915 47.2187 50.8502 49.199C49.382 50.9708 47.272 52.769 44.8287 54.8512C43.9937 55.5626 43.0475 56.3691 42.0654 57.2279C41.8061 57.4548 41.473 57.5799 41.1279 57.5799V57.5799ZM35.776 37.4209C34.3043 37.4209 32.9523 38.0082 31.9687 39.0749C30.9705 40.1577 30.4207 41.6544 30.4207 43.2896C30.4207 45.0149 31.0619 46.5579 32.4996 48.2926C33.8892 49.9694 35.9561 51.7308 38.3493 53.7703L38.3537 53.774C39.1903 54.487 40.1388 55.2954 41.1258 56.1585C42.1189 55.2937 43.0688 54.4841 43.9071 53.7699C46.3 51.7304 48.3668 49.9694 49.7563 48.2926C51.1939 46.5579 51.8351 45.0149 51.8351 43.2896C51.8351 41.6544 51.2853 40.1577 50.2871 39.0749C49.3037 38.0082 47.9515 37.4209 46.4799 37.4209C45.4018 37.4209 44.4119 37.7636 43.5379 38.4394C42.759 39.042 42.2164 39.8037 41.8983 40.3366C41.7347 40.6107 41.4467 40.7743 41.1279 40.7743C40.809 40.7743 40.5211 40.6107 40.3575 40.3366C40.0396 39.8037 39.497 39.042 38.7179 38.4394C37.8439 37.7636 36.854 37.4209 35.776 37.4209V37.4209Z" fill="white"/>
</g>
<defs>
<filter id="filter0_dd" x="0" y="0.922852" width="77.6822" height="92.0775" filterUnits="userSpaceOnUse" color-interpolation-filters="sRGB">
<feFlood flood-opacity="0" result="BackgroundImageFix"/>
<feColorMatrix in="SourceAlpha" type="matrix" values="0 0 0 0 0 0 0 0 0 0 0 0 0 0 0 0 0 0 127 0" result="hardAlpha"/>
<feOffset dx="-3" dy="-3"/>
<feGaussianBlur stdDeviation="3"/>
<feComposite in2="hardAlpha" operator="out"/>
<feColorMatrix type="matrix" values="0 0 0 0 0.0862745 0 0 0 0 0.721569 0 0 0 0 0.764706 0 0 0 0.2 0"/>
<feBlend mode="normal" in2="BackgroundImageFix" result="effect1_dropShadow"/>
<feColorMatrix in="SourceAlpha" type="matrix" values="0 0 0 0 0 0 0 0 0 0 0 0 0 0 0 0 0 0 127 0" result="hardAlpha"/>
<feOffset dy="4"/>
<feGaussianBlur stdDeviation="2"/>
<feComposite in2="hardAlpha" operator="out"/>
<feColorMatrix type="matrix" values="0 0 0 0 0.870588 0 0 0 0 0.2 0 0 0 0 0.996078 0 0 0 0.2 0"/>
<feBlend mode="normal" in2="effect1_dropShadow" result="effect2_dropShadow"/>
<feBlend mode="normal" in="SourceGraphic" in2="effect2_dropShadow" result="shape"/>
</filter>
<clipPath id="clip0">
<rect width="24.2558" height="24.2558" fill="white" transform="translate(29.3721 35.0938)"/>
</clipPath>
</defs>
</svg>
