<svg width="9" height="17" viewBox="0 0 9 17" fill="none" xmlns="http://www.w3.org/2000/svg">
<path d="M8.80996 8.03644L1.10234 0.192546C0.981041 0.069057 0.816637 -0.000203688 0.645294 4.49976e-07C0.473952 0.000204588 0.309706 0.0698568 0.18869 0.193634C0.0676741 0.317412 -0.000199609 0.485176 4.40965e-07 0.66002C0.000200491 0.834864 0.0684579 1.00247 0.189757 1.12595L7.43869 8.50287L0.189757 15.8798C0.0708075 16.0038 0.00455796 16.1706 0.00538114 16.3441C0.00620432 16.5176 0.0740339 16.6838 0.194154 16.8065C0.314274 16.9293 0.476996 16.9988 0.647017 17C0.817038 17.0011 0.980644 16.9338 1.10234 16.8127L8.80996 8.96931C8.87019 8.90811 8.91799 8.83539 8.9506 8.7553C8.98321 8.67521 9 8.58933 9 8.5026C9 8.41587 8.98321 8.33 8.9506 8.24991C8.91799 8.16982 8.87019 8.09709 8.80996 8.0359V8.03644Z" fill="#DE33FE"/>
</svg>
