<svg width="9" height="17" viewBox="0 0 9 17" fill="none" xmlns="http://www.w3.org/2000/svg">
<path d="M0.190039 8.96356L7.89766 16.8075C8.01896 16.9309 8.18336 17.0002 8.35471 17C8.52605 16.9998 8.69029 16.9301 8.81131 16.8064C8.93233 16.6826 9.0002 16.5148 9 16.34C8.9998 16.1651 8.93154 15.9975 8.81024 15.874L1.56131 8.49713L8.81024 1.12021C8.92919 0.996237 8.99544 0.829407 8.99462 0.65591C8.9938 0.482412 8.92597 0.316244 8.80585 0.193455C8.68573 0.0706653 8.52301 0.00115772 8.35298 1.52022e-05C8.18296 -0.00112922 8.01936 0.0661811 7.89766 0.187344L0.190039 8.03069C0.129806 8.09188 0.082012 8.16461 0.0493992 8.2447C0.0167864 8.32479 -1.15645e-06 8.41067 -1.16403e-06 8.4974C-1.17161e-06 8.58413 0.0167863 8.67 0.0493991 8.75009C0.0820119 8.83018 0.129806 8.90291 0.190039 8.9641L0.190039 8.96356Z" fill="#DE33FE"/>
</svg>
