<svg width="16" height="16" viewBox="0 0 16 16" fill="none" xmlns="http://www.w3.org/2000/svg">
<path d="M5.5 4.5625C5.67249 4.5625 5.8125 4.42249 5.8125 4.25C5.8125 4.07751 5.67249 3.9375 5.5 3.9375C5.32751 3.9375 5.1875 4.07751 5.1875 4.25C5.1875 4.42249 5.32751 4.5625 5.5 4.5625Z" fill="white"/>
<path d="M5.5 6.4375C5.67249 6.4375 5.8125 6.29749 5.8125 6.125C5.8125 5.95251 5.67249 5.8125 5.5 5.8125C5.32751 5.8125 5.1875 5.95251 5.1875 6.125C5.1875 6.29749 5.32751 6.4375 5.5 6.4375Z" fill="white"/>
<path d="M4.875 16H12.375C13.5812 16 14.5625 15.0187 14.5625 13.8125C14.5625 13.6399 14.4226 13.5 14.25 13.5H13.3125V1.5625C13.3125 0.700928 12.6116 0 11.75 0C11.75 0 2.75806 0 2.6875 0C1.99829 0 1.4375 0.560791 1.4375 1.25V2.8125C1.4375 2.98511 1.57739 3.125 1.75 3.125H3.3125V14.3706C3.3125 15.2198 3.95898 16 4.875 16ZM12.375 15.375H6.12427C6.3208 15.1136 6.4375 14.7858 6.4375 14.4343V14.1218H13.9061C13.761 14.8342 13.1295 15.375 12.375 15.375ZM12.6875 1.5625V13.5H6.125C5.95239 13.5 5.8125 13.6399 5.8125 13.8125V14.4375C5.8125 14.9545 5.39197 15.375 4.875 15.375C4.3147 15.375 3.9375 14.8901 3.9375 14.3706V1.25C3.9375 1.02466 3.87744 0.810547 3.77039 0.625H11.75C12.267 0.625 12.6875 1.04553 12.6875 1.5625ZM2.0625 2.5V1.25C2.0625 0.905396 2.3429 0.625 2.6875 0.625C3.02917 0.625 3.3125 0.900513 3.3125 1.25V2.5H2.0625Z" fill="white"/>
<path d="M8.3125 8.9375C8.3125 9.47852 8.53882 9.97876 8.9375 10.334V12.375C8.9375 12.4902 9.00098 12.5962 9.10254 12.6505C9.2041 12.705 9.32751 12.699 9.42334 12.635L10.1875 12.1256L10.9517 12.635C11.0477 12.6991 11.171 12.7048 11.2725 12.6505C11.374 12.5962 11.4375 12.4902 11.4375 12.375V10.334C11.8363 9.97864 12.0625 9.47839 12.0625 8.9375C12.0625 7.90369 11.2214 7.0625 10.1875 7.0625C9.15356 7.0625 8.3125 7.90356 8.3125 8.9375ZM10.3608 11.49C10.2559 11.42 10.1191 11.42 10.0142 11.49L9.5625 11.7911V10.7058C9.76111 10.776 9.97144 10.8125 10.1875 10.8125C10.4036 10.8125 10.6139 10.776 10.8125 10.7058V11.7911L10.3608 11.49ZM11.4375 8.9375C11.4375 9.64294 10.863 10.1875 10.1875 10.1875C9.51172 10.1875 8.9375 9.64331 8.9375 8.9375C8.9375 8.24829 9.49829 7.6875 10.1875 7.6875C10.8767 7.6875 11.4375 8.24829 11.4375 8.9375Z" fill="white"/>
<path d="M5.5 2.6875H11.125C11.2976 2.6875 11.4375 2.54761 11.4375 2.375C11.4375 2.20239 11.2976 2.0625 11.125 2.0625H5.5C5.32739 2.0625 5.1875 2.20239 5.1875 2.375C5.1875 2.54761 5.32739 2.6875 5.5 2.6875Z" fill="white"/>
<path d="M6.75 4.5625H11.125C11.2976 4.5625 11.4375 4.42261 11.4375 4.25C11.4375 4.07739 11.2976 3.9375 11.125 3.9375H6.75C6.57739 3.9375 6.4375 4.07739 6.4375 4.25C6.4375 4.42261 6.57739 4.5625 6.75 4.5625Z" fill="white"/>
<path d="M6.75 6.4375H11.125C11.2976 6.4375 11.4375 6.29761 11.4375 6.125C11.4375 5.95239 11.2976 5.8125 11.125 5.8125H6.75C6.57739 5.8125 6.4375 5.95239 6.4375 6.125C6.4375 6.29761 6.57739 6.4375 6.75 6.4375Z" fill="white"/>
<path d="M5.5 10.1875H7.375C7.54761 10.1875 7.6875 10.0476 7.6875 9.875C7.6875 9.70239 7.54761 9.5625 7.375 9.5625H5.5C5.32739 9.5625 5.1875 9.70239 5.1875 9.875C5.1875 10.0476 5.32739 10.1875 5.5 10.1875Z" fill="white"/>
<path d="M5.5 8.3125H7.375C7.54761 8.3125 7.6875 8.17261 7.6875 8C7.6875 7.82739 7.54761 7.6875 7.375 7.6875H5.5C5.32739 7.6875 5.1875 7.82739 5.1875 8C5.1875 8.17261 5.32739 8.3125 5.5 8.3125Z" fill="white"/>
<path d="M5.5 12.0625H7.375C7.54761 12.0625 7.6875 11.9226 7.6875 11.75C7.6875 11.5774 7.54761 11.4375 7.375 11.4375H5.5C5.32739 11.4375 5.1875 11.5774 5.1875 11.75C5.1875 11.9226 5.32739 12.0625 5.5 12.0625Z" fill="white"/>
</svg>
