<svg width="12" height="12" viewBox="0 0 12 12" fill="none" xmlns="http://www.w3.org/2000/svg">
<path d="M11.2121 4.15295C11.2264 4.08927 11.234 4.02406 11.234 3.95729V2.42537C11.234 1.09869 8.34 0.382812 5.61701 0.382812C2.89402 0.382812 0 1.09869 0 2.42537C0 2.4826 0.00574219 2.53859 0.0162656 2.59353C0.00630469 2.62084 0 2.64995 0 2.6807V3.95729C0 4.3817 0.296531 4.74348 0.788531 5.03945C0.773813 5.10376 0.765961 5.1687 0.765961 5.23386C0.765961 5.29109 0.771703 5.34709 0.782227 5.40205C0.772242 5.42935 0.765961 5.45846 0.765961 5.48921V6.76581C0.765961 6.88302 0.789 6.99535 0.832055 7.10295C0.360914 7.45208 0.255328 7.80156 0.255328 8.0424C0.255328 8.09963 0.26107 8.15563 0.271594 8.21056C0.261609 8.23787 0.255328 8.26695 0.255328 8.29773V9.57432C0.255328 10.901 3.14937 11.6169 5.87236 11.6169C8.59535 11.6169 11.4894 10.901 11.4894 9.57432V8.0424C11.4894 7.92906 11.4667 7.81712 11.4228 7.70783C11.787 7.44008 12 7.12543 12 6.76581V5.23388V5.23386C12 4.9527 11.8591 4.54426 11.2121 4.15295ZM1.90648 1.40382C2.89378 1.07473 4.21158 0.893469 5.61701 0.893469C7.02244 0.893469 8.34019 1.07473 9.32754 1.40382C10.2016 1.69517 10.7234 2.07706 10.7234 2.42537C10.7234 2.77367 10.2016 3.15556 9.32754 3.44691C8.34016 3.776 7.02244 3.95727 5.61701 3.95727C4.21158 3.95727 2.89376 3.776 1.90648 3.44691C1.03242 3.15556 0.510633 2.77367 0.510633 2.42537C0.510633 2.07706 1.03245 1.69517 1.90648 1.40382ZM10.7234 3.31663V3.95729C10.7234 4.25234 10.3479 4.57128 9.70214 4.83908V3.85548C10.1137 3.70318 10.4628 3.52325 10.7234 3.31663ZM9.19148 4.02167V5.02201C8.87888 5.11909 8.53617 5.20198 8.17022 5.26984V4.25359C8.53003 4.19009 8.87334 4.11268 9.19148 4.02167ZM7.65959 4.33309V5.35292C7.33205 5.39881 6.99033 5.43359 6.63832 5.45645V4.43469C6.98428 4.41216 7.32677 4.3782 7.65959 4.33309ZM6.12766 4.4596V5.48106C5.95903 5.4864 5.78871 5.48919 5.61703 5.48919C5.44535 5.48919 5.27501 5.4864 5.1064 5.48106V4.45958C5.27679 4.46511 5.44723 4.4679 5.61703 4.4679C5.78681 4.46792 5.95727 4.46513 6.12766 4.4596ZM4.59574 4.43469V5.45647C4.24373 5.43359 3.90199 5.39884 3.57445 5.35295V4.33311C3.90727 4.3782 4.24976 4.41216 4.59574 4.43469ZM3.06382 4.25361V5.26986C2.69787 5.20198 2.35514 5.11911 2.04255 5.02203V4.02167C2.3607 4.11268 2.70403 4.19012 3.06382 4.25361ZM0.510633 3.95729V3.31663C0.771211 3.52325 1.12036 3.70318 1.5319 3.85548V4.83908C0.886148 4.57128 0.510633 4.25234 0.510633 3.95729ZM1.27659 6.12509C1.53717 6.33172 1.88632 6.51165 2.29786 6.66395V7.64757C1.65211 7.37977 1.27659 7.06084 1.27659 6.76578V6.12509ZM1.78723 10.4561C1.14148 10.1883 0.765961 9.86938 0.765961 9.57432V8.93366C1.02654 9.14028 1.37569 9.32021 1.78723 9.47251V10.4561ZM3.31915 10.8869C2.9532 10.819 2.61047 10.7361 2.29788 10.6391V9.6387C2.61602 9.72969 2.95936 9.80713 3.31915 9.87064V10.8869ZM4.85107 11.0735C4.49906 11.0506 4.15732 11.0158 3.82978 10.97V9.95012C4.16259 9.99521 4.50509 10.0292 4.85107 10.0517V11.0735ZM6.38297 11.0981C6.21434 11.1034 6.04402 11.1062 5.87234 11.1062C5.70066 11.1062 5.53031 11.1034 5.3617 11.0981V10.0766C5.53209 10.0822 5.70253 10.085 5.87234 10.085C6.04214 10.085 6.21258 10.0822 6.38297 10.0766V11.0981ZM7.91489 10.97C7.58735 11.0158 7.24563 11.0506 6.89362 11.0735V10.0517C7.23961 10.0292 7.5821 9.99524 7.91489 9.95014V10.97ZM9.44681 10.639C9.1342 10.7361 8.7915 10.819 8.42555 10.8869V9.87062C8.78536 9.80713 9.1287 9.72969 9.44681 9.6387V10.639ZM10.9787 9.57432C10.9787 9.86938 10.6032 10.1883 9.95747 10.4561V9.47251C10.369 9.32019 10.7182 9.14028 10.9787 8.93366V9.57432ZM9.58289 9.06395C8.59552 9.39303 7.27779 9.5743 5.87236 9.5743C4.46693 9.5743 3.14911 9.39303 2.16183 9.06395C1.28777 8.77259 0.765984 8.3907 0.765984 8.0424C0.765984 7.84255 0.939023 7.65981 1.1231 7.52188C1.97822 8.36223 4.2337 8.80836 6.38302 8.80836C8.10178 8.80836 9.8884 8.52303 10.9726 7.979C10.9764 8.00019 10.9788 8.02131 10.9788 8.0424C10.9787 8.39073 10.4569 8.77259 9.58289 9.06395ZM2.80852 7.83055V6.83016C3.12666 6.92115 3.46999 6.99859 3.82978 7.06208V8.07838C3.46383 8.01052 3.1211 7.92763 2.80852 7.83055ZM4.34044 8.16146V7.14158C4.67325 7.18667 5.01574 7.22063 5.3617 7.24318V8.26499C5.0097 8.24211 4.66795 8.20733 4.34044 8.16146ZM5.87234 8.28957V7.26807C6.04273 7.2736 6.21316 7.27639 6.38297 7.27639C6.55277 7.27639 6.72321 7.2736 6.8936 7.26807V8.28957C6.72497 8.29491 6.55465 8.2977 6.38297 8.2977C6.21129 8.2977 6.04097 8.29491 5.87234 8.28957ZM7.40426 8.26496V7.24316C7.75024 7.22063 8.09273 7.18667 8.42552 7.14156V8.16144C8.09801 8.20733 7.75627 8.24211 7.40426 8.26496ZM8.93618 8.07838V7.06208C9.29599 6.99859 9.63933 6.92115 9.95745 6.83016V7.83055C9.64484 7.92763 9.30213 8.01052 8.93618 8.07838ZM11.4894 6.76581C11.4894 7.06086 11.1139 7.3798 10.4681 7.64759V6.66397C10.8797 6.51165 11.2288 6.33174 11.4894 6.12512V6.76581ZM10.0935 6.25541C9.10622 6.58452 7.78842 6.76576 6.38299 6.76576C4.97756 6.76576 3.65974 6.58452 2.67246 6.25541C1.84343 5.97908 1.33219 5.6213 1.28163 5.28798C2.37802 5.75551 4.02654 5.99984 5.61703 5.99984C7.85531 5.99984 10.2087 5.51605 10.9758 4.607C11.3082 4.81346 11.4894 5.03302 11.4894 5.23386C11.4894 5.58216 10.9676 5.96406 10.0935 6.25541Z" fill="#7D7D7D"/>
</svg>
