<svg width="12" height="11" viewBox="0 0 12 11" fill="none" xmlns="http://www.w3.org/2000/svg">
<path d="M8.48155 0.882324C7.90699 0.882324 7.38022 1.06565 6.91591 1.42721C6.47077 1.77384 6.17441 2.21534 5.99993 2.53638C5.82545 2.21532 5.52908 1.77384 5.08394 1.42721C4.61963 1.06565 4.09287 0.882324 3.51831 0.882324C1.91494 0.882324 0.705811 2.20282 0.705811 3.95393C0.705811 5.84574 2.21428 7.14009 4.49791 9.09954C4.8857 9.43231 5.32526 9.80949 5.78212 10.2118C5.84235 10.2649 5.91969 10.2941 5.99993 10.2941C6.08017 10.2941 6.15751 10.2649 6.21773 10.2118C6.67464 9.80945 7.11417 9.43229 7.5022 9.09934C9.78557 7.14009 11.294 5.84574 11.294 3.95393C11.294 2.20282 10.0849 0.882324 8.48155 0.882324Z" fill="#DE33FE"/>
</svg>
