<svg width="10" height="10" viewBox="0 0 10 10" fill="none" xmlns="http://www.w3.org/2000/svg">
<path d="M9.98564 3.8527C9.95119 3.74662 9.85953 3.66932 9.74918 3.6533L6.64913 3.20282L5.26271 0.393708C5.21338 0.293708 5.11152 0.230408 5.00002 0.230408C4.88849 0.230408 4.78666 0.293708 4.7373 0.393708L3.35082 3.20282L0.250836 3.6533C0.140505 3.66932 0.0488058 3.74662 0.0143528 3.85268C-0.0201197 3.95875 0.0086302 4.07518 0.0884932 4.15301L2.33161 6.3396L1.80216 9.42715C1.78329 9.53707 1.82849 9.64813 1.9187 9.71369C1.96974 9.75076 2.03018 9.76963 2.09093 9.76963C2.13757 9.76963 2.18436 9.75852 2.22722 9.73598L5 8.27821L7.77266 9.73596C7.87139 9.78785 7.99098 9.77922 8.0812 9.71367C8.17141 9.64813 8.21663 9.53703 8.19778 9.42711L7.66815 6.3396L9.91152 4.15299C9.99136 4.07518 10.0201 3.95875 9.98564 3.8527Z" fill="#16B8C3"/>
</svg>
