<svg width="15" height="15" viewBox="0 0 15 15" fill="none" xmlns="http://www.w3.org/2000/svg">
<path d="M14.9785 5.77914C14.9268 5.62003 14.7893 5.50407 14.6238 5.48005L9.9737 4.80432L7.89407 0.590653C7.82006 0.440654 7.66728 0.345703 7.50003 0.345703C7.33274 0.345703 7.17999 0.440654 7.10595 0.590653L5.02624 4.80432L0.376254 5.48005C0.210757 5.50407 0.0732087 5.62003 0.0215293 5.77911C-0.0301795 5.93822 0.0129453 6.11286 0.13274 6.22961L3.49741 9.5095L2.70324 14.1408C2.67494 14.3057 2.74273 14.4723 2.87805 14.5706C2.9546 14.6262 3.04528 14.6545 3.13639 14.6545C3.20635 14.6545 3.27655 14.6379 3.34082 14.6041L7.5 12.4174L11.659 14.604C11.8071 14.6819 11.9865 14.6689 12.1218 14.5706C12.2571 14.4723 12.3249 14.3056 12.2967 14.1408L11.5022 9.5095L14.8673 6.22958C14.987 6.11286 15.0302 5.93822 14.9785 5.77914Z" fill="#16B8C3"/>
</svg>
