<svg width="30" height="32" viewBox="0 0 30 32" fill="none" xmlns="http://www.w3.org/2000/svg">
<path d="M30 8.49984C30 4.36431 27.0841 0.999783 23.5 0.999783C22.1511 0.999783 20.8362 1.48572 19.7435 2.37792C16.9696 -1.04011 12.2121 -0.729479 9.78556 3.02705C5.50456 0.124714 0 3.67993 0 9.49984C0 13.0381 2.13469 16.0116 4.996 16.7968L4.35362 17.4392C3.595 18.1977 4.13894 19.4999 5.20712 19.4999H6.05306C6.63538 22.4902 12.3781 28.5639 14.5001 30.7064V31.5C14.5001 31.7761 14.7239 32 15.0001 32C15.2762 32 15.5001 31.7761 15.5001 31.5V30.6996C17.8666 28.1959 23.4382 21.8959 23.9592 18.4999H24.7929C25.8616 18.4999 26.4048 17.1975 25.6465 16.4392L25.0041 15.7968C27.8654 15.0116 30 12.0381 30 8.49984ZM15 0.999783C18.0327 0.999783 20.5 3.91568 20.5 7.49983C20.5 11.084 18.0327 13.9999 15 13.9999C11.9673 13.9999 9.5 11.084 9.5 7.49983C9.5 3.91568 11.9673 0.999783 15 0.999783ZM16.4394 16.1463C16.5693 16.2761 16.4766 16.4998 16.2929 16.4998H13.7071C13.5929 16.4998 13.5001 16.407 13.5001 16.2928C13.5001 16.1743 13.474 16.233 14.7148 14.9922C14.9166 15.0023 15.0835 15.0023 15.2853 14.9922L16.4394 16.1463ZM1 9.49984C1 4.45081 5.671 1.36122 9.29681 3.90474C7.80281 7.04764 8.44325 11.035 10.9331 13.3457C9.89625 15.0151 8.26388 15.9999 6.5 15.9999C3.46731 15.9999 1 13.0839 1 9.49984ZM5 18.2928C5 18.1743 4.97394 18.233 6.21475 16.9922C6.428 17.003 6.58344 17.0019 6.78494 16.9919C8.01719 18.2242 7.99994 18.1706 7.99994 18.2927C7.99994 18.4069 7.90706 18.4998 7.79288 18.4998H5.20712C5.09294 18.4999 5 18.407 5 18.2928ZM7.07763 19.4999H7.79294C8.86162 19.4999 9.40481 18.1975 8.6465 17.4392L8.00569 16.7983C9.48588 16.3963 10.7984 15.4065 11.7194 13.9721C12.2659 14.3424 12.8632 14.6231 13.4961 14.7968L12.8537 15.4391C12.0951 16.1976 12.639 17.4998 13.7072 17.4998H14.5001V29.2744C12.6212 27.324 7.78375 22.11 7.07763 19.4999ZM15.5 29.2355V17.4999H16.2929C17.3616 17.4999 17.9048 16.1975 17.1465 15.4392L16.5041 14.7968C17.3236 14.5719 18.0836 14.1678 18.7509 13.6219C19.6308 14.7111 20.7566 15.4613 21.9946 15.7982L21.3536 16.4392C20.595 17.1977 21.1389 18.4999 22.2071 18.4999H22.9468C22.419 21.2311 18.0216 26.4873 15.5 29.2355ZM24.9394 17.1463C25.0693 17.2761 24.9766 17.4998 24.7929 17.4998H22.2071C22.0929 17.4998 22.0001 17.407 22.0001 17.2928C22.0001 17.1743 21.9742 17.2328 23.215 15.992C23.4176 16.0021 23.5761 16.0027 23.7853 15.9922L24.9394 17.1463ZM23.5 14.9999C21.9641 14.9999 20.5183 14.2505 19.4786 12.9305C21.8208 10.3577 22.1626 6.22188 20.3218 3.19861C23.9505 0.159214 29 3.23242 29 8.49984C29 12.0839 26.5327 14.9999 23.5 14.9999Z" fill="white"/>
</svg>
