<svg width="27" height="31" viewBox="0 0 27 31" fill="none" xmlns="http://www.w3.org/2000/svg">
<path d="M26.0101 15.5002C26.0101 13.1007 24.3992 11.0105 22.1538 10.3507C21.9196 7.76601 19.7406 5.73371 17.0958 5.73371C16.8655 5.73371 16.6365 5.75012 16.4099 5.78094C15.9678 4.75855 15.0784 3.97375 13.9898 3.67338C14.2373 2.33446 14.9684 1.91318 15.4285 1.78173C15.9108 1.64399 16.1901 1.14128 16.0523 0.658965C15.9145 0.176774 15.4119 -0.102708 14.9296 0.0352168C13.8595 0.340915 13.0422 1.07819 12.5658 2.16723C12.3466 2.6685 12.2255 3.18259 12.1601 3.6379C11.0176 3.90533 10.0771 4.702 9.61215 5.75478C9.45957 5.74098 9.30627 5.73371 9.15272 5.73371C6.5304 5.73371 4.36587 7.7315 4.10116 10.285C3.07999 10.5318 2.14994 11.075 1.42508 11.8588C0.506106 12.8526 0 14.1458 0 15.5002C0 17.6553 1.2771 19.5176 3.11414 20.3707L4.90564 27.9463C5.33086 29.7443 6.91826 31 8.76583 31H17.2441C19.0918 31 20.6791 29.7443 21.1043 27.9463L22.8959 20.3707C24.733 19.5175 26.0101 17.6553 26.0101 15.5002ZM13.005 5.35602C14.0479 5.35602 14.8964 6.20452 14.8964 7.24737C14.8964 8.29022 14.0479 9.13871 13.005 9.13871C11.9621 9.13871 11.1137 8.29022 11.1137 7.24737C11.1137 6.20452 11.9622 5.35602 13.005 5.35602ZM6.67329 27.5282L5.09642 20.8602C5.18603 20.8647 5.27618 20.867 5.36682 20.867C5.86548 20.867 6.35215 20.7977 6.81727 20.6681L8.8311 29.1836H8.76589C7.76433 29.1836 6.90379 28.5029 6.67329 27.5282ZM13.9054 29.1836V20.7755C15.0017 20.5701 16.0103 20.0258 16.7843 19.2266C17.01 19.4597 17.2558 19.6709 17.5179 19.8586L15.3126 29.1836H13.9054V29.1836ZM12.089 29.1836H10.6976L8.49361 19.864C8.72417 19.6983 8.94281 19.5147 9.14606 19.3123C9.94394 20.1069 10.9695 20.6275 12.089 20.8017V29.1836ZM19.3368 27.5282C19.1063 28.5029 18.2457 29.1836 17.2442 29.1836H17.179L19.1934 20.6655C19.66 20.7973 20.1473 20.867 20.6433 20.867C20.734 20.867 20.8241 20.8647 20.9137 20.8602L19.3368 27.5282ZM20.6433 19.0506C19.3818 19.0506 18.2043 18.3709 17.57 17.2768C17.4075 16.9965 17.1082 16.824 16.7843 16.824C16.4604 16.824 16.161 16.9965 15.9986 17.2768C15.3643 18.3709 14.1867 19.0506 12.9252 19.0506C11.6956 19.0506 10.5704 18.427 9.91548 17.3825C9.74934 17.1176 9.45872 16.9568 9.14606 16.9568C8.8334 16.9568 8.54278 17.1176 8.37664 17.3825C8.04757 17.9073 7.59971 18.3257 7.07962 18.6123C7.04819 18.6267 7.01804 18.643 6.98892 18.6606C6.49625 18.9136 5.94298 19.0505 5.36682 19.0505C3.40912 19.0505 1.81639 17.4578 1.81639 15.5001C1.81639 14.6043 2.15103 13.749 2.75867 13.092C3.3631 12.4382 4.18248 12.0375 5.06573 11.9635C5.55663 11.9224 5.9253 11.4974 5.8966 11.0056C5.89236 10.9331 5.8903 10.8699 5.8903 10.8124C5.8903 9.0135 7.35377 7.55004 9.15266 7.55004C9.20552 7.55004 9.25831 7.55252 9.31105 7.55506C9.46811 9.45591 11.0643 10.955 13.005 10.955C14.9392 10.955 16.5313 9.46615 16.6975 7.57444C16.8291 7.55833 16.962 7.55004 17.0958 7.55004C18.8947 7.55004 20.3581 9.0135 20.3581 10.8124C20.3581 10.8744 20.3556 10.9423 20.3502 11.0262C20.3196 11.5013 20.6611 11.9194 21.1326 11.9843C22.8777 12.2245 24.1936 13.736 24.1936 15.5001C24.1937 17.4579 22.601 19.0506 20.6433 19.0506Z" fill="white"/>
</svg>
