<svg width="7" height="4" viewBox="0 0 7 4" fill="none" xmlns="http://www.w3.org/2000/svg">
<path d="M3.69088 3.91554L6.92072 0.489929C6.97156 0.436018 7.00008 0.36295 7 0.286797C6.99992 0.210645 6.97124 0.137647 6.92027 0.0838623C6.8693 0.0300774 6.80022 -8.87126e-05 6.72823 1.99225e-07C6.65623 8.91111e-05 6.58722 0.0304257 6.53637 0.0843364L3.49882 3.30608L0.461262 0.0843365C0.410215 0.0314701 0.34152 0.00202584 0.270081 0.0023917C0.19864 0.00275756 0.130218 0.032904 0.0796576 0.0862907C0.0290971 0.139677 0.00047684 0.211998 5.72548e-06 0.287563C-0.000464912 0.363128 0.0272512 0.435842 0.0771418 0.489929L3.30676 3.91554C3.33195 3.94231 3.3619 3.96355 3.39488 3.97804C3.42786 3.99254 3.46322 4 3.49893 4C3.53464 4 3.57 3.99254 3.60298 3.97804C3.63596 3.96355 3.66591 3.94231 3.6911 3.91554L3.69088 3.91554Z" fill="#BBBBBB"/>
</svg>
