<svg width="15" height="28" viewBox="0 0 15 28" fill="none" xmlns="http://www.w3.org/2000/svg">
<path d="M14.4996 8.57315V4.2873C14.4996 3.81393 14.1159 3.43013 13.6425 3.43013H12.7853V0.858615C12.7853 0.385242 12.4016 0.00144359 11.9281 0.00144359C10.7146 0.00144359 8.85614 -0.0915594 6.67453 1.21541C5.31838 0.811738 4.35926 0.858615 3.35642 0.858615C2.883 0.858615 2.49925 1.24241 2.49925 1.71579V3.43013H1.64208C1.16866 3.43013 0.784912 3.81393 0.784912 4.2873V8.57315C0.784912 12.0641 3.40705 14.9539 6.78511 15.3771V26.5737C6.78511 27.0471 7.16885 27.4309 7.64228 27.4309C8.11571 27.4309 8.49945 27.0471 8.49945 26.5737V23.5736H9.78521C12.3847 23.5736 14.4996 21.4587 14.4996 18.8592V17.5734C14.4996 17.1001 14.1159 16.7163 13.6425 16.7163H11.4995C10.3609 16.7163 9.31516 17.1221 8.49945 17.7967V15.3766C11.8725 14.9589 14.4996 12.0834 14.4996 8.57315ZM12.7853 8.57315C12.7853 10.0986 12.1107 11.4764 11.0444 12.4211C11.0612 12.2836 11.071 12.1439 11.071 12.0018C11.071 9.8311 10.2594 7.84665 8.92439 6.33481C10.0562 5.5625 11.3982 5.14447 12.7853 5.14447V8.57315ZM11.071 1.71579V3.60306C10.9125 3.63531 10.7553 3.67212 10.5993 3.71321C10.0432 3.09074 9.40896 2.56042 8.71653 2.13189C9.465 1.85824 10.2595 1.71579 11.071 1.71579ZM4.2136 2.57296C5.91653 2.57296 7.57028 3.19478 8.85641 4.38287C8.43195 4.60193 8.02495 4.85732 7.63976 5.14688C6.64314 4.3976 5.47862 3.86027 4.2136 3.60247V2.57296ZM2.49925 8.57315V5.14447C6.2804 5.14447 9.35662 8.22064 9.35662 12.0018C9.35662 12.9597 8.56561 13.7402 7.59722 13.7154C4.58588 13.641 2.49925 11.2485 2.49925 8.57315ZM11.4995 18.4306H12.7853V18.8592C12.7853 20.5134 11.4395 21.8593 9.78521 21.8593H8.49945V21.4307C8.49945 19.7765 9.84532 18.4306 11.4995 18.4306Z" fill="white"/>
</svg>
