<svg width="28" height="28" viewBox="0 0 28 28" fill="none" xmlns="http://www.w3.org/2000/svg">
<path d="M25.9377 10.2127L24.6001 9.98582C24.4811 9.65435 24.3465 9.32916 24.1977 9.01297L24.9854 7.911C25.6707 6.94819 25.5606 5.64784 24.7263 4.82167L23.119 3.21413C22.6647 2.75982 22.0624 2.50955 21.4233 2.50955C20.9201 2.50955 20.4388 2.66461 20.0349 2.95527L18.9287 3.74314C18.5866 3.58138 18.2394 3.43846 17.89 3.31499L17.6688 2.00439C17.4742 0.843619 16.4785 0.00134277 15.3012 0.00134277H13.0303C11.8532 0.00134277 10.8575 0.843619 10.6633 2.00209L10.4309 3.36396C10.1025 3.48387 9.7788 3.6201 9.46177 3.77223L8.3757 2.99001C7.96848 2.69684 7.4853 2.54198 6.97826 2.54198C6.33289 2.54198 5.73043 2.79268 5.28115 3.24803L3.67005 4.8539C2.83802 5.68592 2.729 6.98523 3.41098 7.94322L4.2114 9.06779C4.06388 9.38524 3.9312 9.7119 3.81402 10.0453L2.50321 10.2664C1.34264 10.4613 0.500366 11.4569 0.500366 12.634V14.9049C0.500366 16.082 1.34264 17.0777 2.50111 17.2721L3.86298 17.5044C3.98289 17.8329 4.11933 18.1568 4.27125 18.4737L3.49196 19.5576C2.80663 20.5204 2.91671 21.821 3.75103 22.647L5.35837 24.2545C5.81267 24.7088 6.41492 24.9591 7.05401 24.9591C7.55728 24.9591 8.03858 24.804 8.44225 24.5136L9.56682 23.7131C9.86229 23.8504 10.1687 23.9762 10.4832 24.0894L10.706 25.4268C10.9009 26.5874 11.8965 27.4296 13.0736 27.4296H15.3498C16.5268 27.4296 17.5227 26.5874 17.7171 25.4283L17.944 24.0904C18.2754 23.9714 18.6006 23.8368 18.9168 23.688L20.0152 24.4732C20.4225 24.7664 20.9056 24.9214 21.4127 24.9214C22.0515 24.9214 22.6538 24.6711 23.1081 24.2168L24.7154 22.6093C25.5477 21.7773 25.6565 20.478 24.9745 19.52L24.186 18.4128C24.3388 18.0893 24.4737 17.7643 24.5899 17.4412L25.9256 17.2185C27.0862 17.0237 27.9284 16.028 27.9284 14.8509V12.5846C27.9416 11.4063 27.1054 10.4094 25.9377 10.2127ZM26.3213 14.8509C26.3213 15.24 26.043 15.5691 25.6605 15.6334L23.8889 15.9286C23.562 15.983 23.2983 16.2136 23.2002 16.5307C23.0428 17.0406 22.8267 17.5619 22.5582 18.0792C22.4062 18.3709 22.4305 18.7185 22.6214 18.9859L23.6654 20.452C23.8905 20.7684 23.8543 21.1978 23.5792 21.473L21.9718 23.0803C21.8189 23.2333 21.6255 23.3143 21.4127 23.3143C21.2448 23.3143 21.0864 23.2641 20.9521 23.1674L19.4923 22.124C19.2238 21.9313 18.8748 21.907 18.5816 22.0604C18.0907 22.3174 17.569 22.5335 17.031 22.7024C16.7171 22.8008 16.4879 23.0636 16.4333 23.3871L16.1324 25.1606C16.0681 25.5442 15.739 25.8225 15.3498 25.8225H13.0736C12.6844 25.8225 12.3554 25.5442 12.2912 25.1617L11.9959 23.39C11.9419 23.0653 11.7134 22.802 11.3995 22.7028C10.8693 22.5354 10.3643 22.3278 9.89829 22.0857C9.77127 22.0198 9.63378 21.9874 9.49692 21.9874C9.31989 21.9874 9.14369 22.0418 8.99281 22.1491L7.50685 23.2067C7.37292 23.3032 7.22058 23.352 7.05401 23.352C6.84119 23.352 6.64783 23.2712 6.49486 23.118L4.8846 21.508C4.60984 21.2359 4.57489 20.8078 4.79901 20.4928L5.83674 19.0493C6.03198 18.7784 6.05583 18.4268 5.89847 18.1311C5.63459 17.6362 5.41591 17.1172 5.24829 16.5884C5.1491 16.2766 4.88732 16.0487 4.56506 15.9937L2.76918 15.6876C2.38581 15.6231 2.10749 15.2939 2.10749 14.9049V12.634C2.10749 12.245 2.38581 11.9158 2.7698 11.8514L4.51965 11.5561C4.84672 11.5011 5.11018 11.2698 5.20749 10.9518C5.37259 10.4115 5.58499 9.88893 5.83883 9.39926C5.98992 9.10818 5.96564 8.76144 5.77542 8.49379L4.72033 7.01138C4.49495 6.69498 4.53116 6.26558 4.8055 5.99124L6.41827 4.3839L6.42413 4.37783C6.56915 4.2303 6.76586 4.14911 6.97826 4.14911C7.14608 4.14911 7.3047 4.19933 7.43654 4.29434L8.8863 5.33792C9.15771 5.53337 9.50969 5.55681 9.80433 5.39944C10.2992 5.13557 10.8182 4.91689 11.3464 4.74948C11.6582 4.6505 11.8861 4.38913 11.9415 4.06603L12.2479 2.27015C12.3121 1.88679 12.6413 1.60847 13.0305 1.60847H15.3014C15.6904 1.60847 16.0196 1.88679 16.084 2.27078L16.3793 4.02125C16.4346 4.34854 16.6662 4.61179 16.9845 4.70888C17.5271 4.87378 18.0683 5.09643 18.5933 5.37099C18.885 5.52333 19.2326 5.49947 19.5013 5.30842L20.9707 4.2619C21.1044 4.16543 21.2568 4.11667 21.4236 4.11667C21.6362 4.11667 21.8295 4.19745 21.9827 4.35063L23.5928 5.96068C23.8675 6.23272 23.9027 6.66087 23.6771 6.97748L22.6327 8.43875C22.441 8.70745 22.4171 9.05608 22.5701 9.3482C22.8273 9.83913 23.0432 10.3608 23.2123 10.899C23.3109 11.2129 23.5735 11.4419 23.897 11.4965L25.669 11.7972L25.6705 11.7974C26.0528 11.8616 26.3268 12.186 26.3213 12.5687V14.8509Z" fill="white"/>
<path d="M14.2144 8.38257C11.2739 8.38257 8.88158 10.7748 8.88158 13.7154C8.88158 16.6559 11.2739 19.0482 14.2144 19.0482C17.1549 19.0482 19.5472 16.6559 19.5472 13.7154C19.5472 10.7748 17.1549 8.38257 14.2144 8.38257ZM14.2144 17.4411C12.1601 17.4411 10.4887 15.7697 10.4887 13.7154C10.4887 11.6611 12.1601 9.98969 14.2144 9.98969C16.2687 9.98969 17.9401 11.6611 17.9401 13.7154C17.9401 15.7697 16.2687 17.4411 14.2144 17.4411Z" fill="white"/>
</svg>
