<svg width="28" height="20" viewBox="0 0 28 20" fill="none" xmlns="http://www.w3.org/2000/svg">
<path d="M21.1471 12.647C19.2009 12.647 17.6177 14.2302 17.6177 16.1764C17.6177 18.1226 19.2009 19.7058 21.1471 19.7058C23.0936 19.7058 24.6765 18.1226 24.6765 16.1764C24.6765 14.2302 23.0933 12.647 21.1471 12.647ZM21.1471 17.9411C20.1739 17.9411 19.3824 17.1496 19.3824 16.1764C19.3824 15.2032 20.1739 14.4117 21.1471 14.4117C22.1203 14.4117 22.9118 15.2032 22.9118 16.1764C22.9118 17.1497 22.1203 17.9411 21.1471 17.9411Z" fill="#D2477F"/>
<path d="M9.08826 12.647C7.1421 12.647 5.55884 14.2302 5.55884 16.1764C5.55884 18.1226 7.1421 19.7058 9.08826 19.7058C11.0344 19.7058 12.6177 18.1226 12.6177 16.1764C12.6177 14.2302 11.0344 12.647 9.08826 12.647ZM9.08826 17.9411C8.11504 17.9411 7.32355 17.1496 7.32355 16.1764C7.32355 15.2032 8.11504 14.4117 9.08826 14.4117C10.0612 14.4117 10.853 15.2032 10.853 16.1764C10.853 17.1497 10.0615 17.9411 9.08826 17.9411Z" fill="#D2477F"/>
<path d="M23.5239 2.54474C23.3739 2.2468 23.0689 2.05884 22.7353 2.05884H18.0883V3.82355H22.1912L24.5938 8.60236L26.1709 7.80939L23.5239 2.54474Z" fill="#D2477F"/>
<path d="M18.5 15.3235H11.8235V17.0882H18.5V15.3235Z" fill="#D2477F"/>
<path d="M6.44111 15.3235H3.38233C2.89495 15.3235 2.5 15.7185 2.5 16.2058C2.5 16.6932 2.89501 17.0881 3.38233 17.0881H6.44116C6.92854 17.0881 7.32349 16.6931 7.32349 16.2058C7.32349 15.7184 6.92848 15.3235 6.44111 15.3235Z" fill="#D2477F"/>
<path d="M27.8147 9.92947L26.0791 7.69417C25.9124 7.47887 25.655 7.35298 25.3823 7.35298H18.9706V1.17652C18.9706 0.689142 18.5756 0.294189 18.0882 0.294189H3.38233C2.89495 0.294189 2.5 0.689197 2.5 1.17652C2.5 1.66384 2.89501 2.05885 3.38233 2.05885H17.2058V8.23531C17.2058 8.72268 17.6009 9.11763 18.0882 9.11763H24.9503L26.2352 10.7729V15.3235H23.7941C23.3067 15.3235 22.9117 15.7185 22.9117 16.2058C22.9117 16.6932 23.3067 17.0882 23.7941 17.0882H27.1176C27.6049 17.0882 27.9999 16.6932 28 16.2058V10.4707C28 10.2748 27.9347 10.0842 27.8147 9.92947Z" fill="#D2477F"/>
<path d="M6.38234 10.853H2.32349C1.83612 10.853 1.44116 11.248 1.44116 11.7354C1.44116 12.2227 1.83617 12.6177 2.32349 12.6177H6.38229C6.86966 12.6177 7.26462 12.2227 7.26462 11.7354C7.26467 11.248 6.86966 10.853 6.38234 10.853Z" fill="#D2477F"/>
<path d="M8.41176 7.38232H0.882328C0.395008 7.38232 0 7.77733 0 8.26471C0 8.75208 0.395008 9.14703 0.882328 9.14703H8.41176C8.89913 9.14703 9.29409 8.75203 9.29409 8.26471C9.29409 7.77739 8.89913 7.38232 8.41176 7.38232Z" fill="#D2477F"/>
<path d="M9.85292 3.91187H2.32349C1.83612 3.91187 1.44116 4.30687 1.44116 4.79419C1.44116 5.28157 1.83617 5.67652 2.32349 5.67652H9.85292C10.3403 5.67652 10.7352 5.28151 10.7352 4.79419C10.7353 4.30687 10.3403 3.91187 9.85292 3.91187Z" fill="#D2477F"/>
</svg>
