<svg width="31" height="31" viewBox="0 0 31 31" fill="none" xmlns="http://www.w3.org/2000/svg">
<path d="M27.6094 4.84375H3.39062C1.52106 4.84375 0 6.36481 0 8.23438V22.7656C0 24.6352 1.52106 26.1562 3.39062 26.1562H27.6094C29.4789 26.1562 31 24.6352 31 22.7656V8.23438C31 6.36481 29.4789 4.84375 27.6094 4.84375ZM3.39062 6.78125H27.6094C28.4106 6.78125 29.0625 7.43316 29.0625 8.23438V10.1719H1.9375V8.23438C1.9375 7.43316 2.58941 6.78125 3.39062 6.78125ZM27.6094 24.2188H3.39062C2.58941 24.2188 1.9375 23.5668 1.9375 22.7656V12.1094H29.0625V22.7656C29.0625 23.5668 28.4106 24.2188 27.6094 24.2188Z" fill="#16B8C3"/>
<path d="M6.78125 21.3125H5.8125C5.27751 21.3125 4.84375 20.8787 4.84375 20.3438V19.375C4.84375 18.84 5.27751 18.4062 5.8125 18.4062H6.78125C7.31624 18.4062 7.75 18.84 7.75 19.375V20.3438C7.75 20.8787 7.31624 21.3125 6.78125 21.3125Z" fill="#16B8C3"/>
</svg>
