<svg width="10" height="10" viewBox="0 0 10 10" fill="none" xmlns="http://www.w3.org/2000/svg">
<path d="M9.20677 6.34789C8.87535 6.05667 8.47343 5.80505 8.01208 5.60005C7.81487 5.51247 7.58408 5.60127 7.49649 5.79842C7.40891 5.99556 7.49771 6.22635 7.69485 6.31401C8.08388 6.48689 8.41911 6.69571 8.6911 6.93474C9.02641 7.22939 9.21875 7.65602 9.21875 8.10547V8.82812C9.21875 9.0435 9.0435 9.21875 8.82812 9.21875H1.17188C0.956497 9.21875 0.78125 9.0435 0.78125 8.82812V8.10547C0.78125 7.65602 0.973587 7.22939 1.3089 6.93474C1.70357 6.58791 2.85347 5.78125 5 5.78125C6.59386 5.78125 7.89062 4.48448 7.89062 2.89062C7.89062 1.29677 6.59386 0 5 0C3.40614 0 2.10938 1.29677 2.10938 2.89062C2.10938 3.8224 2.55264 4.65248 3.23929 5.18143C1.98288 5.45761 1.20132 5.98923 0.793228 6.34789C0.289154 6.79077 0 7.43134 0 8.10547V8.82812C0 9.47433 0.525665 10 1.17188 10H8.82812C9.47433 10 10 9.47433 10 8.82812V8.10547C10 7.43134 9.71085 6.79077 9.20677 6.34789ZM2.89062 2.89062C2.89062 1.72752 3.8369 0.78125 5 0.78125C6.1631 0.78125 7.10938 1.72752 7.10938 2.89062C7.10938 4.05373 6.1631 5 5 5C3.8369 5 2.89062 4.05373 2.89062 2.89062Z" fill="white"/>
</svg>
