<svg width="30" height="30" viewBox="0 0 30 30" fill="none" xmlns="http://www.w3.org/2000/svg">
<path d="M27.6203 19.0437C26.6261 18.17 25.4203 17.4152 24.0363 16.8002C23.4446 16.5374 22.7522 16.8038 22.4895 17.3952C22.2267 17.9867 22.4931 18.679 23.0846 18.942C24.2516 19.4607 25.2573 20.0871 26.0733 20.8042C27.0792 21.6882 27.6562 22.9681 27.6562 24.3164V26.4844C27.6562 27.1305 27.1305 27.6562 26.4844 27.6562H3.51562C2.86949 27.6562 2.34375 27.1305 2.34375 26.4844V24.3164C2.34375 22.9681 2.92076 21.6882 3.9267 20.8042C5.1107 19.7637 8.56041 17.3438 15 17.3438C19.7816 17.3438 23.6719 13.4534 23.6719 8.67188C23.6719 3.8903 19.7816 0 15 0C10.2184 0 6.32812 3.8903 6.32812 8.67188C6.32812 11.4672 7.65793 13.9574 9.71786 15.5443C5.94864 16.3728 3.60397 17.9677 2.37968 19.0437C0.867462 20.3723 0 22.294 0 24.3164V26.4844C0 28.423 1.577 30 3.51562 30H26.4844C28.423 30 30 28.423 30 26.4844V24.3164C30 22.294 29.1325 20.3723 27.6203 19.0437ZM8.67188 8.67188C8.67188 5.18257 11.5107 2.34375 15 2.34375C18.4893 2.34375 21.3281 5.18257 21.3281 8.67188C21.3281 12.1612 18.4893 15 15 15C11.5107 15 8.67188 12.1612 8.67188 8.67188Z" fill="white"/>
</svg>
