<svg width="14" height="14" viewBox="0 0 14 14" fill="none" xmlns="http://www.w3.org/2000/svg">
<path d="M0 12.5239C0 13.3392 0.66367 14 1.47609 14H12.5239C13.3392 14 14 13.3363 14 12.5239V1.47609C14 0.660809 13.3363 0 12.5239 0H1.47609C0.660809 0 0 0.66367 0 1.47609V12.5239ZM12.5239 13.2991H1.47609C1.04986 13.2991 0.700858 12.9501 0.700858 12.5239V10.6788L3.35554 8.02411L5.62403 10.2926C5.76134 10.4299 5.98161 10.4299 6.11892 10.2926L10.2154 6.19616L13.2991 9.27993V12.5239C13.2991 12.9501 12.9501 13.2991 12.5239 13.2991ZM1.47609 0.700858H12.5239C12.9501 0.700858 13.2991 1.04986 13.2991 1.47609V8.28729L10.4614 5.45239C10.3241 5.31508 10.1038 5.31508 9.96649 5.45239L5.87005 9.54883L3.60155 7.28034C3.46424 7.14303 3.24397 7.14303 3.10666 7.28034L0.700858 9.68615V1.47609C0.700858 1.04986 1.04986 0.700858 1.47609 0.700858Z" fill="#3B3B3B"/>
<path d="M4.3398 5.60972C5.32386 5.60972 6.12198 4.80873 6.12198 3.82753C6.12198 2.84633 5.321 2.04535 4.3398 2.04535C3.3586 2.04535 2.55762 2.84633 2.55762 3.82753C2.55762 4.80873 3.35574 5.60972 4.3398 5.60972ZM4.3398 2.74621C4.93767 2.74621 5.42112 3.23252 5.42112 3.82753C5.42112 4.42255 4.93481 4.90886 4.3398 4.90886C3.74478 4.90886 3.25848 4.42255 3.25848 3.82753C3.25848 3.23252 3.74192 2.74621 4.3398 2.74621Z" fill="#3B3B3B"/>
</svg>
