<svg width="30" height="30" viewBox="0 0 30 30" fill="none" xmlns="http://www.w3.org/2000/svg">
<path d="M29.8558 18.2502C29.4018 16.1682 27.9383 14.4818 25.9409 13.7392L19.3091 11.2733C19.7799 10.506 20.0518 9.60421 20.0518 8.63993C20.0518 6.83155 19.096 5.2429 17.6635 4.35046C17.7537 3.37927 18.175 2.47798 18.8733 1.7796L19.1525 1.5004C19.4957 1.15722 19.4957 0.600694 19.1525 0.257452C18.8093 -0.0857314 18.2528 -0.0857314 17.9095 0.257452L17.6303 0.536651C16.7603 1.40677 16.193 2.4989 15.9809 3.68519C15.6636 3.62255 15.3361 3.58892 15.0007 3.58892C14.6582 3.58892 14.3237 3.62355 14.0001 3.68882C13.7279 2.31521 12.9791 1.07894 11.8545 0.189542C11.4738 -0.111513 10.921 -0.047001 10.6199 0.333741C10.3188 0.714483 10.3833 1.2672 10.764 1.56831C11.6438 2.26405 12.1972 3.26114 12.3269 4.35749C10.9006 5.25122 9.94959 6.83618 9.94959 8.63993C9.94959 9.60421 10.2216 10.506 10.6923 11.2733L4.06056 13.7392C2.06322 14.4818 0.599723 16.1682 0.14568 18.2502C-0.308363 20.3323 0.320172 22.4749 1.82703 23.9817C3.01138 25.1661 4.58832 25.8077 6.22015 25.8077C6.66441 25.8077 7.11295 25.7601 7.55843 25.6629C9.25753 25.2925 10.6928 24.2494 11.5671 22.7929C12.5085 24.8473 13.6444 26.3388 14.1219 26.9213V29.1211C14.1219 29.6065 14.5154 30 15.0008 30C15.4862 30 15.8797 29.6065 15.8797 29.1211V26.9213C16.3572 26.3388 17.493 24.8473 18.4344 22.7929C19.3086 24.2495 20.744 25.2925 22.4431 25.6629C22.8888 25.7601 23.337 25.8077 23.7814 25.8077C25.4131 25.8077 26.9903 25.1659 28.1745 23.9817C29.6813 22.4749 30.3099 20.3323 29.8558 18.2502ZM10.4219 21.1355C9.88882 22.5692 8.67839 23.6197 7.1839 23.9456C5.68941 24.2715 4.1515 23.8202 3.06992 22.7387C1.98834 21.6571 1.53716 20.1192 1.86306 18.6247C2.18896 17.1302 3.23949 15.9198 4.6731 15.3867L10.5522 13.2008C10.2817 14.2581 10.1127 15.3925 10.1127 16.5765C10.1127 17.9419 10.3374 19.2411 10.6832 20.4324L10.4219 21.1355ZM14.9996 25.1771C14.4243 24.3865 13.5784 23.0822 12.9111 21.4646H17.0867C16.419 23.0803 15.5738 24.3858 14.9996 25.1771ZM17.6905 19.7068H12.3088C12.1135 18.9906 11.971 18.2361 11.9078 17.4555H18.0934C18.0298 18.2354 17.8866 18.99 17.6905 19.7068ZM11.908 15.6977C11.9852 14.7514 12.18 13.8424 12.4435 12.9932C13.1941 13.4358 14.068 13.691 15.0007 13.691C15.9344 13.691 16.809 13.4354 17.5602 12.9919C17.8228 13.8407 18.0169 14.7499 18.0936 15.6977H11.908ZM15.0007 11.9332C13.1848 11.9332 11.7075 10.4558 11.7075 8.63993C11.7075 6.82405 13.1848 5.34667 15.0007 5.34667C16.8166 5.34667 18.294 6.82399 18.294 8.63987C18.294 10.4558 16.8166 11.9332 15.0007 11.9332ZM26.9315 22.7388C25.8499 23.8204 24.312 24.2713 22.8175 23.9456C21.3231 23.6197 20.1126 22.5692 19.5795 21.1356L19.3181 20.4325C19.664 19.2411 19.8887 17.9419 19.8887 16.5766C19.8887 15.3925 19.7196 14.2582 19.4492 13.2008L25.3282 15.3868C26.7619 15.9199 27.8124 17.1303 28.1383 18.6248C28.4643 20.1192 28.0131 21.6572 26.9315 22.7388Z" fill="white"/>
</svg>
