<svg width="18" height="15" viewBox="0 0 18 15" fill="none" xmlns="http://www.w3.org/2000/svg">
<path d="M13.2188 0C12.242 0 11.3465 0.292168 10.5572 0.868407C9.80044 1.42085 9.29661 2.12449 9 2.63615C8.70339 2.12446 8.19956 1.42085 7.44282 0.868407C6.6535 0.292168 5.758 0 4.78125 0C2.05552 0 0 2.10455 0 4.89538C0 7.91044 2.5644 9.97331 6.44657 13.0962C7.10582 13.6265 7.85306 14.2277 8.62973 14.8688C8.73211 14.9534 8.86359 15 9 15C9.13641 15 9.26789 14.9534 9.37027 14.8688C10.147 14.2276 10.8942 13.6265 11.5539 13.0959C15.4356 9.97331 18 7.91044 18 4.89538C18 2.10455 15.9445 0 13.2188 0Z" fill="#16B8C3"/>
</svg>
