<svg width="12" height="11" viewBox="0 0 12 11" fill="none" xmlns="http://www.w3.org/2000/svg">
<path d="M8.8125 0C8.16134 0 7.56434 0.214257 7.03812 0.636832C6.53363 1.04196 6.19774 1.55796 6 1.93318C5.80226 1.55794 5.46637 1.04196 4.96188 0.636832C4.43566 0.214257 3.83866 0 3.1875 0C1.37034 0 0 1.54333 0 3.58994C0 5.80099 1.7096 7.31376 4.29771 9.60388C4.73721 9.99279 5.23537 10.4336 5.75316 10.9038C5.82141 10.9658 5.90906 11 6 11C6.09094 11 6.17859 10.9658 6.24684 10.9038C6.76467 10.4336 7.26281 9.99277 7.70257 9.60363C10.2904 7.31376 12 5.80099 12 3.58994C12 1.54333 10.6297 0 8.8125 0Z" fill="#3B3B3B"/>
</svg>
