<svg width="16" height="16" viewBox="0 0 16 16" fill="none" xmlns="http://www.w3.org/2000/svg">
<g clip-path="url(#clip0)">
<path d="M8.00229 4.30286C5.96049 4.30286 4.3075 5.95766 4.3075 7.99765C4.3075 10.0395 5.96229 11.6925 8.00229 11.6925C10.0441 11.6925 11.6971 10.0377 11.6971 7.99765C11.6971 5.95586 10.0423 4.30286 8.00229 4.30286ZM8.00229 10.3959C6.67689 10.3959 5.60409 9.32245 5.60409 7.99765C5.60409 6.67286 6.67749 5.59946 8.00229 5.59946C9.32709 5.59946 10.4005 6.67286 10.4005 7.99765C10.4011 9.32245 9.32769 10.3959 8.00229 10.3959Z" fill="white"/>
<path d="M10.9691 0.846135C9.6443 0.784335 6.3629 0.787335 5.0369 0.846135C3.87171 0.900735 2.84391 1.18214 2.01531 2.01073C0.630507 3.39553 0.807507 5.26153 0.807507 7.99813C0.807507 10.7989 0.651507 12.6217 2.01531 13.9855C3.40551 15.3751 5.2985 15.1933 8.0027 15.1933C10.7771 15.1933 11.7347 15.1951 12.7157 14.8153C14.0495 14.2975 15.0563 13.1053 15.1547 10.9639C15.2171 9.63853 15.2135 6.35773 15.1547 5.03173C15.0359 2.50393 13.6793 0.970935 10.9691 0.846135ZM13.0661 13.0693C12.1583 13.9771 10.8989 13.8961 7.9853 13.8961C4.9853 13.8961 3.78231 13.9405 2.90451 13.0603C1.89351 12.0541 2.07651 10.4383 2.07651 7.98853C2.07651 4.67353 1.73631 2.28613 5.0633 2.11573C5.8277 2.08873 6.0527 2.07973 7.9769 2.07973L8.0039 2.09773C11.2013 2.09773 13.7099 1.76293 13.8605 5.08933C13.8947 5.84833 13.9025 6.07633 13.9025 7.99753C13.9019 10.9627 13.9583 12.1729 13.0661 13.0693Z" fill="white"/>
<path d="M11.8442 5.0205C12.3211 5.0205 12.7076 4.63394 12.7076 4.1571C12.7076 3.68026 12.3211 3.2937 11.8442 3.2937C11.3674 3.2937 10.9808 3.68026 10.9808 4.1571C10.9808 4.63394 11.3674 5.0205 11.8442 5.0205Z" fill="white"/>
</g>
<defs>
<clipPath id="clip0">
<rect width="14.4" height="14.4" fill="white" transform="translate(0.800049 0.800049)"/>
</clipPath>
</defs>
</svg>
