<svg width="31" height="32" viewBox="0 0 31 32" fill="none" xmlns="http://www.w3.org/2000/svg">
<g clip-path="url(#clip0)">
<path d="M18.5667 11.1875C18.9015 11.1875 19.1733 10.9075 19.1733 10.5625C19.1733 10.2175 18.9015 9.9375 18.5667 9.9375C18.2311 9.9375 17.96 10.2175 17.96 10.5625C17.96 10.9075 18.2311 11.1875 18.5667 11.1875Z" fill="white"/>
<path d="M12.5001 11.1875C12.835 11.1875 13.1068 10.9075 13.1068 10.5625C13.1068 10.2175 12.835 9.9375 12.5001 9.9375C12.1646 9.9375 11.8935 10.2175 11.8935 10.5625C11.8935 10.9075 12.1646 11.1875 12.5001 11.1875Z" fill="white"/>
<path d="M13.9115 15.4834C14.4208 15.7307 14.9666 15.8562 15.5332 15.8562C16.0874 15.8562 16.6225 15.7359 17.1237 15.4986C17.4283 15.3543 17.5614 14.9832 17.4216 14.6695C17.2816 14.356 16.9214 14.2185 16.6169 14.3628C16.2758 14.5242 15.9111 14.6062 15.5332 14.6062C15.1467 14.6062 14.7751 14.521 14.4289 14.3528C14.1258 14.2056 13.7642 14.3394 13.6215 14.6516C13.4786 14.9639 13.6085 15.3362 13.9115 15.4834Z" fill="white"/>
<path d="M28.9125 25.2981C28.9125 21.8614 25.1133 19.1661 21.8568 19.0384L20.1954 17.5005C22.2189 15.9795 23.4472 13.5352 23.4472 10.9375V6.81251C23.4472 3.02173 20.444 -0.0625 16.7527 -0.0625H14.326C10.6397 -0.0625 7.67417 3.01075 7.67417 6.81251V10.9375C7.67417 13.5308 8.88606 15.9705 10.8833 17.4888L9.20929 19.0384C5.9599 19.1658 2.15363 21.8543 2.15363 25.2981V31.3126C2.15363 31.6578 2.4252 31.9376 2.76028 31.9376H28.3058C28.6409 31.9376 28.9125 31.6578 28.9125 31.3126V25.2981ZM14.1893 27.8126H16.8735L17.5095 30.6876H13.5348L14.1893 27.8126ZM16.9256 26.5626H14.1509L13.6855 25.0687L15.5334 24.1167L17.4209 25.0894L16.9256 26.5626ZM15.5332 22.2388L13.4251 18.7644C14.1097 18.9605 14.8211 19.0623 15.5393 19.0623C16.2507 19.0623 16.9569 18.9624 17.638 18.7696L15.5332 22.2388ZM16.4015 23.1666L19.3141 18.365L20.885 19.8191L18.8861 24.4468L16.4015 23.1666ZM14.326 1.1875H16.7527C19.775 1.1875 22.2339 3.7107 22.2339 6.81251V7.32912L21.0947 5.63917C20.9916 5.4861 20.8274 5.38844 20.6471 5.37281C20.4665 5.35719 20.2893 5.4253 20.1627 5.55861C18.9295 6.85792 17.5017 7.43752 15.5334 7.43752C13.5653 7.43752 12.1373 6.85792 10.9032 5.55861C10.7762 5.42457 10.5972 5.3567 10.4164 5.37306C10.2354 5.38942 10.0709 5.48854 9.96856 5.64332L8.88748 7.27541V6.81251C8.88748 3.7107 11.3271 1.1875 14.326 1.1875ZM8.88748 10.9375V9.49294L10.5724 6.94923C11.9222 8.1321 13.5172 8.68752 15.5334 8.68752C17.5517 8.68752 19.148 8.13088 20.498 6.94557L22.2339 9.52077V10.9375C22.2339 14.6804 19.2643 17.8125 15.5393 17.8125C11.8264 17.8125 8.88748 14.6902 8.88748 10.9375ZM11.752 18.3653L14.6651 23.1666L12.18 24.4468L10.1811 19.8191L11.752 18.3653ZM3.36693 25.2981C3.36693 22.7234 6.40494 20.5003 9.05976 20.2981L11.3295 25.5523C11.3968 25.7081 11.5231 25.8289 11.679 25.8865C11.835 25.9441 12.0068 25.9334 12.1551 25.8572L12.5874 25.6343L13.0796 27.2134L12.2885 30.6876H3.36693V25.2981ZM27.6992 30.6876H18.7539L17.9875 27.223L18.5153 25.6531L18.911 25.8572C19.0603 25.9341 19.2326 25.9437 19.3871 25.8865C19.543 25.8289 19.6693 25.7081 19.7366 25.5523L22.0064 20.2981C24.6612 20.5005 27.6992 22.7234 27.6992 25.2981V30.6876Z" fill="white"/>
<path d="M23.4199 27.8125H20.9933C20.6582 27.8125 20.3867 28.0923 20.3867 28.4375C20.3867 28.7827 20.6582 29.0625 20.9933 29.0625H23.4199C23.755 29.0625 24.0266 28.7827 24.0266 28.4375C24.0266 28.0923 23.755 27.8125 23.4199 27.8125Z" fill="white"/>
<path d="M25.8131 27.8125C26.148 27.8125 26.4198 28.0925 26.4198 28.4375C26.4198 28.7825 26.148 29.0625 25.8131 29.0625C25.4783 29.0625 25.2065 28.7825 25.2065 28.4375C25.2065 28.0925 25.4783 27.8125 25.8131 27.8125Z" fill="white"/>
</g>
<defs>
<clipPath id="clip0">
<rect width="31" height="32" fill="white"/>
</clipPath>
</defs>
</svg>
