<svg width="8" height="8" viewBox="0 0 8 8" fill="none" xmlns="http://www.w3.org/2000/svg">
<path d="M7.9306 7.60122L6.03732 5.7382C6.53311 5.19954 6.83774 4.48716 6.83774 3.70325C6.8375 2.02633 5.45627 0.667114 3.75231 0.667114C2.04834 0.667114 0.667114 2.02633 0.667114 3.70325C0.667114 5.38017 2.04834 6.73939 3.75231 6.73939C4.48853 6.73939 5.16379 6.48474 5.69419 6.06138L7.59481 7.93174C7.68742 8.02297 7.83777 8.02297 7.93038 7.93174C8.0232 7.84053 8.0232 7.69245 7.9306 7.60122ZM3.75231 6.27226C2.31057 6.27226 1.14181 5.12208 1.14181 3.70325C1.14181 2.28442 2.31057 1.13424 3.75231 1.13424C5.19405 1.13424 6.3628 2.28442 6.3628 3.70325C6.3628 5.12208 5.19405 6.27226 3.75231 6.27226Z" fill="white"/>
</svg>
