<svg width="8" height="8" viewBox="0 0 8 8" fill="none" xmlns="http://www.w3.org/2000/svg">
<path d="M7.47472 2.76879C7.48423 2.72634 7.48936 2.68287 7.48936 2.63836V1.61707C7.48936 0.732621 5.56 0.255371 3.74467 0.255371C1.92934 0.255371 0 0.732621 0 1.61707C0 1.65523 0.00382813 1.69256 0.0108438 1.72918C0.00420312 1.74739 0 1.76679 0 1.78729V2.63836C0 2.92129 0.197688 3.16248 0.525688 3.35979C0.515875 3.40267 0.510641 3.44597 0.510641 3.4894C0.510641 3.52756 0.514469 3.56489 0.521484 3.60153C0.514828 3.61973 0.510641 3.63914 0.510641 3.65964V4.5107C0.510641 4.58884 0.526 4.66373 0.554703 4.73547C0.240609 4.96822 0.170219 5.2012 0.170219 5.36176C0.170219 5.39992 0.174047 5.43725 0.181063 5.47387C0.174406 5.49207 0.170219 5.51147 0.170219 5.53198V6.38304C0.170219 7.2675 2.09958 7.74475 3.91491 7.74475C5.73023 7.74475 7.65959 7.2675 7.65959 6.38304V5.36176C7.65959 5.2862 7.64448 5.21157 7.61519 5.13872C7.858 4.96022 8 4.75045 8 4.5107V3.48942V3.4894C8 3.30197 7.90605 3.02967 7.47472 2.76879ZM1.27098 0.936043C1.92919 0.716652 2.80772 0.595809 3.74467 0.595809C4.68162 0.595809 5.56013 0.716652 6.21836 0.936043C6.80106 1.13028 7.14892 1.38487 7.14892 1.61707C7.14892 1.84928 6.80106 2.10387 6.21836 2.29811C5.56011 2.5175 4.68162 2.63834 3.74467 2.63834C2.80772 2.63834 1.92917 2.5175 1.27098 2.29811C0.688281 2.10387 0.340422 1.84928 0.340422 1.61707C0.340422 1.38487 0.688297 1.13028 1.27098 0.936043ZM7.14894 2.21125V2.63836C7.14894 2.83506 6.89859 3.04768 6.46809 3.22622V2.57048C6.74245 2.46895 6.97522 2.349 7.14894 2.21125ZM6.12766 2.68128V3.34817C5.91925 3.41289 5.69078 3.46815 5.44681 3.51339V2.83589C5.68669 2.79356 5.91556 2.74195 6.12766 2.68128ZM5.10639 2.88889V3.56878C4.88803 3.59937 4.66022 3.62256 4.42555 3.63779V2.95662C4.65619 2.94161 4.88452 2.91897 5.10639 2.88889ZM4.08511 2.97323V3.6542C3.97269 3.65776 3.85914 3.65962 3.74469 3.65962C3.63023 3.65962 3.51667 3.65776 3.40427 3.6542V2.97322C3.51786 2.9769 3.63148 2.97876 3.74469 2.97876C3.85788 2.97878 3.97152 2.97692 4.08511 2.97323ZM3.06383 2.95662V3.63781C2.82916 3.62256 2.60133 3.59939 2.38297 3.56879V2.8889C2.60484 2.91897 2.83317 2.94161 3.06383 2.95662ZM2.04255 2.8359V3.5134C1.79858 3.46815 1.57009 3.4129 1.3617 3.34818V2.68128C1.5738 2.74195 1.80269 2.79357 2.04255 2.8359ZM0.340422 2.63836V2.21125C0.514141 2.349 0.746906 2.46895 1.02127 2.57048V3.22622C0.590766 3.04768 0.340422 2.83506 0.340422 2.63836ZM0.851062 4.08356C1.02478 4.22131 1.25755 4.34126 1.53191 4.44279V5.09854C1.10141 4.92001 0.851062 4.70739 0.851062 4.51068V4.08356ZM1.19148 6.9709C0.760984 6.79237 0.510641 6.57975 0.510641 6.38304V5.95593C0.684359 6.09368 0.917125 6.21364 1.19148 6.31517V6.9709ZM2.21277 7.25809C1.9688 7.21284 1.74031 7.15759 1.53192 7.09287V6.42597C1.74402 6.48662 1.97291 6.53825 2.21277 6.58059V7.25809ZM3.23405 7.38248C2.99938 7.36723 2.77155 7.34404 2.55319 7.31347V6.63358C2.77506 6.66364 3.00339 6.68628 3.23405 6.70131V7.38248ZM4.25531 7.39889C4.14289 7.40245 4.02934 7.40431 3.91489 7.40431C3.80044 7.40431 3.68688 7.40245 3.57447 7.39889V6.71792C3.68806 6.72161 3.80169 6.72347 3.91489 6.72347C4.02809 6.72347 4.14172 6.72161 4.25531 6.71792V7.39889ZM5.27659 7.31347C5.05823 7.34406 4.83042 7.36725 4.59575 7.38248V6.70131C4.82641 6.68629 5.05473 6.66365 5.27659 6.63359V7.31347ZM6.29787 7.09286C6.08947 7.15758 5.861 7.21284 5.61703 7.25808V6.58058C5.85691 6.53825 6.0858 6.48662 6.29787 6.42597V7.09286ZM7.31916 6.38304C7.31916 6.57975 7.06881 6.79237 6.63831 6.9709V6.31517C6.91269 6.21362 7.14545 6.09368 7.31916 5.95593V6.38304ZM6.38859 6.04279C5.73034 6.26218 4.85186 6.38303 3.91491 6.38303C2.97795 6.38303 2.09941 6.26218 1.44122 6.04279C0.858516 5.84856 0.510656 5.59397 0.510656 5.36176C0.510656 5.22853 0.626016 5.1067 0.748734 5.01475C1.31881 5.57498 2.82247 5.8724 4.25534 5.8724C5.40119 5.8724 6.59227 5.68218 7.31508 5.3195C7.31759 5.33362 7.31917 5.3477 7.31917 5.36176C7.31916 5.59398 6.97128 5.84856 6.38859 6.04279ZM1.87234 5.22053V4.55361C2.08444 4.61426 2.31333 4.66589 2.55319 4.70822V5.38575C2.30922 5.34051 2.08073 5.28525 1.87234 5.22053ZM2.89363 5.44114V4.76122C3.1155 4.79128 3.34383 4.81392 3.57447 4.82895V5.51015C3.3398 5.4949 3.11197 5.47172 2.89363 5.44114ZM3.91489 5.52654V4.84554C4.02848 4.84923 4.14211 4.85109 4.25531 4.85109C4.36852 4.85109 4.48214 4.84923 4.59573 4.84554V5.52654C4.48331 5.53011 4.36977 5.53197 4.25531 5.53197C4.14086 5.53197 4.02731 5.53011 3.91489 5.52654ZM4.93617 5.51014V4.82893C5.16683 4.81392 5.39516 4.79128 5.61702 4.7612V5.44112C5.39867 5.47172 5.17084 5.4949 4.93617 5.51014ZM5.95745 5.38575V4.70822C6.19733 4.66589 6.42622 4.61426 6.6383 4.55361V5.22053C6.42989 5.28525 6.20142 5.34051 5.95745 5.38575ZM7.65958 4.5107C7.65958 4.7074 7.40923 4.92003 6.97873 5.09856V4.44281C7.25311 4.34126 7.48588 4.22132 7.65958 4.08357V4.5107ZM6.72902 4.17043C6.07081 4.38984 5.19228 4.51067 4.25533 4.51067C3.31838 4.51067 2.43983 4.38984 1.78164 4.17043C1.22895 3.98622 0.888125 3.7477 0.854422 3.52548C1.58534 3.83717 2.68436 4.00006 3.74469 4.00006C5.23688 4.00006 6.80583 3.67753 7.3172 3.0715C7.53881 3.20914 7.65958 3.35551 7.65958 3.4894C7.65958 3.72161 7.3117 3.9762 6.72902 4.17043Z" fill="#7D7D7D"/>
</svg>
