<svg width="12" height="12" viewBox="0 0 12 12" fill="none" xmlns="http://www.w3.org/2000/svg">
<path d="M11.2121 4.15313C11.2264 4.08945 11.234 4.02425 11.234 3.95747V2.42555C11.234 1.09887 8.34 0.382996 5.61701 0.382996C2.89402 0.382996 0 1.09887 0 2.42555C0 2.48278 0.00574219 2.53878 0.0162656 2.59371C0.00630469 2.62102 0 2.65013 0 2.68088V3.95747C0 4.38188 0.296531 4.74366 0.788531 5.03963C0.773813 5.10394 0.765961 5.16889 0.765961 5.23404C0.765961 5.29128 0.771703 5.34727 0.782227 5.40223C0.772242 5.42954 0.765961 5.45864 0.765961 5.48939V6.76599C0.765961 6.8832 0.789 6.99554 0.832055 7.10314C0.360914 7.45226 0.255328 7.80174 0.255328 8.04258C0.255328 8.09982 0.26107 8.15581 0.271594 8.21075C0.261609 8.23805 0.255328 8.26714 0.255328 8.29791V9.5745C0.255328 10.9012 3.14937 11.6171 5.87236 11.6171C8.59535 11.6171 11.4894 10.9012 11.4894 9.5745V8.04258C11.4894 7.92924 11.4667 7.8173 11.4228 7.70801C11.787 7.44026 12 7.12561 12 6.76599V5.23407V5.23404C12 4.95289 11.8591 4.54444 11.2121 4.15313ZM1.90648 1.404C2.89378 1.07492 4.21158 0.893652 5.61701 0.893652C7.02244 0.893652 8.34019 1.07492 9.32754 1.404C10.2016 1.69536 10.7234 2.07725 10.7234 2.42555C10.7234 2.77386 10.2016 3.15575 9.32754 3.4471C8.34016 3.77618 7.02244 3.95745 5.61701 3.95745C4.21158 3.95745 2.89376 3.77618 1.90648 3.4471C1.03242 3.15575 0.510633 2.77386 0.510633 2.42555C0.510633 2.07725 1.03245 1.69536 1.90648 1.404ZM10.7234 3.31681V3.95747C10.7234 4.25253 10.3479 4.57146 9.70214 4.83926V3.85566C10.1137 3.70336 10.4628 3.52343 10.7234 3.31681ZM9.19148 4.02186V5.02219C8.87888 5.11927 8.53617 5.20217 8.17022 5.27002V4.25377C8.53003 4.19028 8.87334 4.11286 9.19148 4.02186ZM7.65959 4.33327V5.35311C7.33205 5.399 6.99033 5.43378 6.63832 5.45663V4.43487C6.98428 4.41235 7.32677 4.37839 7.65959 4.33327ZM6.12766 4.45978V5.48124C5.95903 5.48658 5.78871 5.48937 5.61703 5.48937C5.44535 5.48937 5.27501 5.48658 5.1064 5.48124V4.45976C5.27679 4.46529 5.44723 4.46808 5.61703 4.46808C5.78681 4.46811 5.95727 4.46532 6.12766 4.45978ZM4.59574 4.43487V5.45665C4.24373 5.43378 3.90199 5.39902 3.57445 5.35313V4.33329C3.90727 4.37839 4.24976 4.41235 4.59574 4.43487ZM3.06382 4.25379V5.27004C2.69787 5.20217 2.35514 5.11929 2.04255 5.02221V4.02186C2.3607 4.11286 2.70403 4.1903 3.06382 4.25379ZM0.510633 3.95747V3.31681C0.771211 3.52343 1.12036 3.70336 1.5319 3.85566V4.83926C0.886148 4.57146 0.510633 4.25253 0.510633 3.95747ZM1.27659 6.12528C1.53717 6.3319 1.88632 6.51183 2.29786 6.66413V7.64775C1.65211 7.37996 1.27659 7.06102 1.27659 6.76596V6.12528ZM1.78723 10.4563C1.14148 10.1885 0.765961 9.86956 0.765961 9.5745V8.93384C1.02654 9.14046 1.37569 9.32039 1.78723 9.47269V10.4563ZM3.31915 10.8871C2.9532 10.8192 2.61047 10.7363 2.29788 10.6392V9.63889C2.61602 9.72987 2.95936 9.80731 3.31915 9.87082V10.8871ZM4.85107 11.0737C4.49906 11.0508 4.15732 11.016 3.82978 10.9701V9.9503C4.16259 9.9954 4.50509 10.0294 4.85107 10.0519V11.0737ZM6.38297 11.0983C6.21434 11.1036 6.04402 11.1064 5.87234 11.1064C5.70066 11.1064 5.53031 11.1036 5.3617 11.0983V10.0768C5.53209 10.0823 5.70253 10.0851 5.87234 10.0851C6.04214 10.0851 6.21258 10.0823 6.38297 10.0768V11.0983ZM7.91489 10.9701C7.58735 11.016 7.24563 11.0508 6.89362 11.0737V10.0519C7.23961 10.0294 7.5821 9.99542 7.91489 9.95032V10.9701ZM9.44681 10.6392C9.1342 10.7363 8.7915 10.8192 8.42555 10.8871V9.8708C8.78536 9.80731 9.1287 9.72987 9.44681 9.63889V10.6392ZM10.9787 9.5745C10.9787 9.86956 10.6032 10.1885 9.95747 10.4563V9.47269C10.369 9.32037 10.7182 9.14046 10.9787 8.93384V9.5745ZM9.58289 9.06413C8.59552 9.39322 7.27779 9.57448 5.87236 9.57448C4.46693 9.57448 3.14911 9.39322 2.16183 9.06413C1.28777 8.77278 0.765984 8.39089 0.765984 8.04258C0.765984 7.84273 0.939023 7.65999 1.1231 7.52206C1.97822 8.36241 4.2337 8.80854 6.38302 8.80854C8.10178 8.80854 9.8884 8.52322 10.9726 7.97918C10.9764 8.00037 10.9788 8.02149 10.9788 8.04258C10.9787 8.39091 10.4569 8.77278 9.58289 9.06413ZM2.80852 7.83073V6.83035C3.12666 6.92133 3.46999 6.99877 3.82978 7.06226V8.07856C3.46383 8.01071 3.1211 7.92781 2.80852 7.83073ZM4.34044 8.16164V7.14176C4.67325 7.18686 5.01574 7.22082 5.3617 7.24336V8.26517C5.0097 8.24229 4.66795 8.20751 4.34044 8.16164ZM5.87234 8.28975V7.26825C6.04273 7.27379 6.21316 7.27657 6.38297 7.27657C6.55277 7.27657 6.72321 7.27379 6.8936 7.26825V8.28975C6.72497 8.2951 6.55465 8.29789 6.38297 8.29789C6.21129 8.29789 6.04097 8.2951 5.87234 8.28975ZM7.40426 8.26514V7.24334C7.75024 7.22082 8.09273 7.18686 8.42552 7.14174V8.16162C8.09801 8.20751 7.75627 8.24229 7.40426 8.26514ZM8.93618 8.07856V7.06226C9.29599 6.99877 9.63933 6.92133 9.95745 6.83035V7.83073C9.64484 7.92781 9.30213 8.01071 8.93618 8.07856ZM11.4894 6.76599C11.4894 7.06104 11.1139 7.37998 10.4681 7.64778V6.66415C10.8797 6.51183 11.2288 6.33193 11.4894 6.1253V6.76599ZM10.0935 6.25559C9.10622 6.5847 7.78842 6.76594 6.38299 6.76594C4.97756 6.76594 3.65974 6.5847 2.67246 6.25559C1.84343 5.97926 1.33219 5.62149 1.28163 5.28816C2.37802 5.75569 4.02654 6.00003 5.61703 6.00003C7.85531 6.00003 10.2087 5.51623 10.9758 4.60718C11.3082 4.81364 11.4894 5.03321 11.4894 5.23404C11.4894 5.58235 10.9676 5.96424 10.0935 6.25559Z" fill="white"/>
</svg>
