<svg width="34" height="32" viewBox="0 0 34 32" fill="none" xmlns="http://www.w3.org/2000/svg">
<path d="M33.0039 7.03906H25.4336V1.12891C25.4336 0.578797 24.9876 0.132812 24.4375 0.132812H0.996094C0.445984 0.132812 0 0.578797 0 1.12891V26.8945C0 29.6408 2.23424 31.875 4.98047 31.875H29.0195C31.7658 31.875 34 29.6408 34 26.8945V8.03516C34 7.48505 33.554 7.03906 33.0039 7.03906ZM4.98047 29.8828C3.33273 29.8828 1.99219 28.5423 1.99219 26.8945V2.125H23.4414C23.4414 28.4528 23.4289 26.9891 23.4642 27.3645C23.5508 28.2879 23.8952 29.1587 24.4398 29.8828H4.98047ZM32.0078 26.8945C32.0078 28.5423 30.6673 29.8828 29.0195 29.8828C28.796 29.8828 28.6413 29.8828 28.4219 29.8828C26.7741 29.8828 25.4336 28.5423 25.4336 26.8945V9.03125H32.0078V26.8945Z" fill="white"/>
<path d="M20.1875 4.91406H5.3125C4.76239 4.91406 4.31641 5.36005 4.31641 5.91016C4.31641 6.46027 4.76239 6.90625 5.3125 6.90625H20.1875C20.7376 6.90625 21.1836 6.46027 21.1836 5.91016C21.1836 5.36005 20.7376 4.91406 20.1875 4.91406Z" fill="white"/>
<path d="M20.1875 9.16406H5.3125C4.76239 9.16406 4.31641 9.61005 4.31641 10.1602C4.31641 10.7103 4.76239 11.1562 5.3125 11.1562H20.1875C20.7376 11.1562 21.1836 10.7103 21.1836 10.1602C21.1836 9.61005 20.7376 9.16406 20.1875 9.16406Z" fill="white"/>
<path d="M20.1875 25.1016H5.3125C4.76239 25.1016 4.31641 25.5475 4.31641 26.0977C4.31641 26.6478 4.76239 27.0938 5.3125 27.0938H20.1875C20.7376 27.0938 21.1836 26.6478 21.1836 26.0977C21.1836 25.5475 20.7376 25.1016 20.1875 25.1016Z" fill="white"/>
<path d="M20.1875 13.4141H12.75C12.1999 13.4141 11.7539 13.86 11.7539 14.4102V21.8477C11.7539 22.3978 12.1999 22.8438 12.75 22.8438H20.1875C20.7376 22.8438 21.1836 22.3978 21.1836 21.8477V14.4102C21.1836 13.86 20.7376 13.4141 20.1875 13.4141ZM19.1914 20.8516H13.7461V15.4062H19.1914V20.8516Z" fill="white"/>
<path d="M5.3125 17H8.5C9.05011 17 9.49609 16.554 9.49609 16.0039C9.49609 15.4538 9.05011 15.0078 8.5 15.0078H5.3125C4.76239 15.0078 4.31641 15.4538 4.31641 16.0039C4.31641 16.554 4.76239 17 5.3125 17Z" fill="white"/>
<path d="M5.3125 21.25H8.5C9.05011 21.25 9.49609 20.804 9.49609 20.2539C9.49609 19.7038 9.05011 19.2578 8.5 19.2578H5.3125C4.76239 19.2578 4.31641 19.7038 4.31641 20.2539C4.31641 20.804 4.76239 21.25 5.3125 21.25Z" fill="white"/>
</svg>
