<svg width="39" height="39" viewBox="0 0 39 39" fill="none" xmlns="http://www.w3.org/2000/svg">
<g clip-path="url(#clip0)">
<path d="M16.25 39C12.8913 39 10.1562 36.2667 10.1562 32.9062C10.1562 32.2335 10.7022 31.6875 11.375 31.6875C12.0478 31.6875 12.5938 32.2335 12.5938 32.9062C12.5938 34.923 14.235 36.5625 16.25 36.5625C18.265 36.5625 19.9063 34.923 19.9063 32.9062C19.9063 32.2335 20.4522 31.6875 21.125 31.6875C21.7978 31.6875 22.3438 32.2335 22.3438 32.9062C22.3438 36.2667 19.609 39 16.25 39Z" fill="#6DBED2"/>
<path d="M29.6562 34.1251H2.84365C1.27558 34.1251 0 32.8495 0 31.2815C0 30.4492 0.362411 29.6613 0.9944 29.1201C1.03516 29.0844 1.0789 29.0519 1.12443 29.0225C3.50986 26.9409 4.875 23.946 4.875 20.7837V16.25C4.875 10.9576 8.46133 6.41402 13.5964 5.20003C14.2528 5.04888 14.9095 5.45027 15.0639 6.10695C15.218 6.76185 14.8119 7.41824 14.1587 7.57267C10.127 8.52481 7.3125 12.0933 7.3125 16.25V20.7837C7.3125 24.7099 5.59149 28.4247 2.5952 30.9741C2.5708 30.9937 2.54967 31.0116 2.52349 31.0294C2.47975 31.0848 2.4375 31.1693 2.4375 31.2815C2.4375 31.5022 2.62287 31.6876 2.84365 31.6876H29.6562C29.8772 31.6876 30.0626 31.5022 30.0626 31.2815C30.0626 31.1675 30.0203 31.0848 29.9748 31.0294C29.9504 31.0116 29.9275 30.9937 29.9049 30.9741C28.449 29.7327 27.2999 28.2346 26.4909 26.5201C26.2016 25.9122 26.4614 25.1859 27.0708 24.8967C27.6852 24.6075 28.405 24.8708 28.6927 25.4784C29.336 26.837 30.2379 28.0299 31.3786 29.0275C31.4209 29.0567 31.4649 29.0877 31.5021 29.1201C32.1377 29.6613 32.5001 30.4492 32.5001 31.2815C32.5001 32.8495 31.2245 34.1251 29.6562 34.1251Z" fill="#6DBED2"/>
<path d="M28.4373 21.1249C22.6134 21.1249 17.875 16.3865 17.875 10.5626C17.875 4.73843 22.6134 0 28.4373 0C34.2615 0 38.9999 4.73843 38.9999 10.5626C38.9999 16.3865 34.2615 21.1249 28.4373 21.1249ZM28.4373 2.4375C23.9571 2.4375 20.3125 6.08244 20.3125 10.5626C20.3125 15.0428 23.9571 18.6874 28.4373 18.6874C32.9175 18.6874 36.5624 15.0428 36.5624 10.5626C36.5624 6.08244 32.9175 2.4375 28.4373 2.4375Z" fill="#6DBED2"/>
<path d="M28.8438 15.4377C28.1711 15.4377 27.6251 14.8917 27.6251 14.2189V8.9375H26.8125C26.1397 8.9375 25.5938 8.3915 25.5938 7.71875C25.5938 7.046 26.1397 6.5 26.8125 6.5H28.8438C29.5166 6.5 30.0626 7.046 30.0626 7.71875V14.2189C30.0626 14.8917 29.5166 15.4377 28.8438 15.4377Z" fill="#6DBED2"/>
</g>
<defs>
<clipPath id="clip0">
<rect width="39" height="39" fill="white"/>
</clipPath>
</defs>
</svg>
