<svg width="15" height="15" viewBox="0 0 15 15" fill="none" xmlns="http://www.w3.org/2000/svg">
<path d="M2.83933 9.3491C4.22654 11.0073 5.89644 12.3129 7.8024 13.2368C8.52806 13.5807 9.49852 13.9887 10.5797 14.0586C10.6468 14.0615 10.7109 14.0644 10.7779 14.0644C11.5036 14.0644 12.0864 13.8138 12.5615 13.298C12.5644 13.2951 12.5702 13.2892 12.5731 13.2834C12.7421 13.0794 12.9345 12.8958 13.1356 12.7005C13.2725 12.5694 13.4124 12.4324 13.5465 12.2925C14.1672 11.6456 14.1672 10.8237 13.5407 10.1972L11.7892 8.44566C11.4919 8.13674 11.1364 7.97354 10.7633 7.97354C10.3903 7.97354 10.0318 8.13674 9.72584 8.44275L8.68252 9.48607C8.58634 9.4307 8.48726 9.38115 8.394 9.33452C8.27743 9.27624 8.1696 9.22087 8.07343 9.15967C7.12336 8.5564 6.26073 7.76954 5.43598 6.75828C5.01923 6.23079 4.73946 5.78781 4.5442 5.3361C4.81815 5.08838 5.07461 4.82901 5.32232 4.57546C5.40975 4.48512 5.50009 4.39477 5.59044 4.30443C5.90518 3.98969 6.07421 3.6254 6.07421 3.25528C6.07421 2.88516 5.9081 2.52087 5.59044 2.20613L4.72197 1.33767C4.61997 1.23567 4.5238 1.13658 4.42472 1.03458C4.23237 0.836406 4.03128 0.632405 3.83311 0.448803C3.53294 0.154458 3.18031 0 2.80728 0C2.43716 0 2.08161 0.154458 1.76978 0.451717L0.679832 1.54167C0.283486 1.93801 0.0590844 2.41887 0.0124555 2.97551C-0.0429163 3.67203 0.0853132 4.41226 0.417544 5.30695C0.927548 6.69125 1.69692 7.97646 2.83933 9.3491ZM0.723546 3.03671C0.758518 2.6491 0.907148 2.32562 1.18692 2.04584L2.27104 0.961721C2.44007 0.79852 2.62659 0.714005 2.80728 0.714005C2.98505 0.714005 3.16574 0.79852 3.33185 0.96755C3.52711 1.14824 3.71071 1.33767 3.90888 1.53875C4.00797 1.64075 4.10997 1.74276 4.21197 1.84767L5.08043 2.71613C5.26112 2.89682 5.35438 3.08042 5.35438 3.26111C5.35438 3.4418 5.26112 3.6254 5.08043 3.80608C4.99009 3.89643 4.89975 3.98969 4.8094 4.08003C4.53837 4.35397 4.28483 4.61335 4.00506 4.86106C3.99923 4.86689 3.99631 4.86981 3.99048 4.87563C3.7486 5.11752 3.78648 5.34775 3.84477 5.52261C3.84768 5.53135 3.8506 5.53718 3.85351 5.54593C4.07791 6.08507 4.38974 6.59799 4.87643 7.20999C5.75073 8.28829 6.67165 9.12469 7.68582 9.76876C7.81114 9.85036 7.9452 9.91447 8.07051 9.97859C8.18708 10.0369 8.29491 10.0922 8.39109 10.1534C8.40274 10.1593 8.41149 10.1651 8.42314 10.1709C8.51932 10.2205 8.61257 10.2438 8.70583 10.2438C8.93898 10.2438 9.09052 10.0952 9.14006 10.0456L10.23 8.95566C10.399 8.78663 10.5826 8.69629 10.7633 8.69629C10.9848 8.69629 11.1655 8.83326 11.2792 8.95566L13.0365 10.7101C13.3862 11.0598 13.3833 11.4387 13.0277 11.8088C12.9053 11.9399 12.7771 12.0652 12.6401 12.1964C12.4361 12.3945 12.2234 12.5985 12.0311 12.8288C11.6959 13.1902 11.2966 13.3592 10.7808 13.3592C10.7313 13.3592 10.6788 13.3563 10.6293 13.3534C9.67338 13.2922 8.78452 12.9191 8.11714 12.6015C6.30444 11.7243 4.71323 10.4798 3.39305 8.90029C2.30601 7.59177 1.57452 6.37359 1.09075 5.06798C0.790575 4.26654 0.676917 3.62248 0.723546 3.03671Z" fill="#00FF12"/>
</svg>
