<svg width="18" height="18" viewBox="0 0 18 18" fill="none" xmlns="http://www.w3.org/2000/svg">
<path d="M17.828 17.0207L13.1807 12.4477C14.3977 11.1255 15.1454 9.37682 15.1454 7.45261C15.1448 3.33639 11.7544 0 7.5718 0C3.38919 0 -0.0012207 3.33639 -0.0012207 7.45261C-0.0012207 11.5688 3.38919 14.9052 7.5718 14.9052C9.37898 14.9052 11.0365 14.2802 12.3384 13.241L17.0038 17.832C17.2311 18.056 17.6001 18.056 17.8275 17.832C18.0553 17.6081 18.0553 17.2447 17.828 17.0207ZM7.5718 13.7586C4.03286 13.7586 1.164 10.9353 1.164 7.45261C1.164 3.96991 4.03286 1.14663 7.5718 1.14663C11.1108 1.14663 13.9796 3.96991 13.9796 7.45261C13.9796 10.9353 11.1108 13.7586 7.5718 13.7586Z" fill="#854FC8"/>
</svg>
