<svg width="12" height="12" viewBox="0 0 12 12" fill="none" xmlns="http://www.w3.org/2000/svg">
<path d="M11.4093 10.9301L8.55331 7.95969C9.28765 7.08675 9.68999 5.98841 9.68999 4.845C9.68999 2.17351 7.51648 0 4.845 0C2.17351 0 0 2.17351 0 4.845C0 7.51648 2.17351 9.68999 4.845 9.68999C5.84791 9.68999 6.80364 9.38749 7.62076 8.81326L10.4985 11.8062C10.6188 11.9311 10.7805 12 10.9539 12C11.118 12 11.2737 11.9374 11.3918 11.8237C11.6429 11.5821 11.651 11.1814 11.4093 10.9301ZM4.845 1.26391C6.81965 1.26391 8.42608 2.87034 8.42608 4.845C8.42608 6.81965 6.81965 8.42608 4.845 8.42608C2.87034 8.42608 1.26391 6.81965 1.26391 4.845C1.26391 2.87034 2.87034 1.26391 4.845 1.26391Z" fill="white"/>
</svg>
