<svg width="9" height="11" viewBox="0 0 9 11" fill="none" xmlns="http://www.w3.org/2000/svg">
<path fill-rule="evenodd" clip-rule="evenodd" d="M8.29787 2.27941H6.84217C6.67893 1.14079 5.70357 0.295288 4.5533 0.295288C3.40304 0.295288 2.42768 1.14079 2.26444 2.27941H0.808735C0.420972 2.27941 0.106628 2.59375 0.106628 2.98152V10.0026C0.106628 10.3903 0.420972 10.7047 0.808735 10.7047H8.29787C8.68564 10.7047 8.99998 10.3903 8.99998 10.0026V2.98152C8.99998 2.59375 8.68564 2.27941 8.29787 2.27941ZM4.55343 0.992207C5.29883 1.0412 5.93075 1.5584 6.12615 2.2794H2.98071C3.1761 1.5584 3.80802 1.0412 4.55343 0.992207ZM8.29796 10.0026H0.808825V2.9815H2.21304V3.68361C2.21304 3.87749 2.37021 4.03466 2.56409 4.03466C2.75797 4.03466 2.91514 3.87749 2.91514 3.68361V2.9815H6.19164V3.68361C6.19164 3.87749 6.34881 4.03466 6.5427 4.03466C6.73658 4.03466 6.89375 3.87749 6.89375 3.68361V2.9815H8.29796V10.0026Z" fill="white"/>
</svg>
