<svg width="15" height="17" viewBox="0 0 15 17" fill="none" xmlns="http://www.w3.org/2000/svg">
<path d="M14.6042 9.32664C15.0844 5.28444 14.3735 2.7325 13.0912 1.57825L13.0918 1.57758C11.0221 -0.393551 4.03227 -0.685297 1.55611 1.66611C0.444123 2.81633 0.052445 4.50444 0.00952139 6.59429C-0.0334023 8.6848 -0.0843741 12.6009 3.56481 13.6633H3.56816L3.56481 15.2857C3.56481 15.2857 3.53999 15.9429 3.95984 16.075C4.44005 16.2306 4.65735 15.9255 6.15096 14.1415C8.64858 14.3581 10.5667 13.8618 10.7847 13.7894C11.2891 13.6204 14.1428 13.2428 14.6042 9.32664ZM6.3971 13C6.3971 13 4.8163 14.9711 4.32469 15.4828C4.16373 15.6492 3.98734 15.6337 3.99002 15.3038C3.99002 15.0871 4.00209 12.6103 4.00209 12.6103C0.908235 11.7237 1.09066 8.38903 1.12419 6.64459C1.15773 4.89947 1.47697 3.47025 2.41861 2.50782C4.59095 0.470958 10.719 0.926351 12.2803 2.3938C14.1891 4.08593 13.5097 8.86656 13.5137 9.02953C13.1214 12.2984 10.8088 12.5057 10.3836 12.6472C10.2019 12.7076 8.51511 13.1415 6.3971 13Z" fill="white"/>
<path d="M7.27154 2.89062C7.01333 2.89062 7.01333 3.29303 7.27154 3.29639C9.27487 3.31181 10.9247 4.70817 10.9429 7.26951C10.9429 7.53979 11.3386 7.53644 11.3352 7.26615H11.3345C11.3131 4.5063 9.51162 2.90605 7.27154 2.89062Z" fill="white"/>
<path d="M9.90528 6.84506C9.89925 7.11199 10.2943 7.12473 10.2976 6.85445C10.3305 5.33267 9.39221 4.07917 7.62899 3.94704C7.37078 3.92826 7.34395 4.33403 7.60149 4.35281C9.13064 4.46883 9.93613 5.51241 9.90528 6.84506Z" fill="white"/>
<path d="M9.4853 8.57597C9.15398 8.38416 8.81663 8.50354 8.67713 8.692L8.38538 9.06959C8.23716 9.26141 7.96017 9.23592 7.96017 9.23592C5.93873 8.70139 5.39816 6.58606 5.39816 6.58606C5.39816 6.58606 5.37335 6.29968 5.55846 6.14609L5.92331 5.84428C6.10573 5.69942 6.22109 5.35066 6.03531 5.00794C5.53901 4.11124 5.20568 3.80206 5.036 3.56463C4.85759 3.3413 4.58932 3.291 4.31032 3.4419H4.30428C3.72414 3.78126 3.08901 4.4164 3.29222 5.07032C3.63896 5.75978 4.27611 7.9576 6.30694 9.61821C7.26132 10.4036 8.77169 11.2084 9.41286 11.3942L9.4189 11.4036C10.0507 11.6142 10.665 10.9542 10.993 10.3566V10.3519C11.1385 10.0629 11.0902 9.78924 10.8776 9.61016C10.5007 9.24263 9.93197 8.83687 9.4853 8.57597Z" fill="white"/>
<path d="M7.90665 5.44428C8.55117 5.48184 8.86371 5.81852 8.89724 6.50999C8.90932 6.78028 9.30166 6.7615 9.28959 6.49121C9.24667 5.58847 8.77585 5.08546 7.92811 5.03851C7.66989 5.02309 7.64575 5.42885 7.90665 5.44428Z" fill="white"/>
</svg>
