<svg width="17" height="18" viewBox="0 0 17 18" fill="none" xmlns="http://www.w3.org/2000/svg">
<path d="M16.2495 10.7026C16.7542 6.45413 16.007 3.77196 14.6592 2.55882L14.6599 2.55811C12.4846 0.486391 5.13806 0.179757 2.53555 2.65116C1.36681 3.86007 0.955146 5.63432 0.910032 7.83081C0.864918 10.028 0.811345 14.144 4.64674 15.2605H4.65027L4.64674 16.9657C4.64674 16.9657 4.62066 17.6565 5.06193 17.7954C5.56664 17.9589 5.79503 17.6382 7.36486 15.7631C9.98993 15.9908 12.006 15.4692 12.2351 15.3931C12.7651 15.2154 15.7645 14.8186 16.2495 10.7026ZM7.62356 14.5634C7.62356 14.5634 5.9621 16.6351 5.4454 17.1729C5.27622 17.3478 5.09083 17.3315 5.09365 16.9847C5.09365 16.757 5.10634 14.1538 5.10634 14.1538C1.85461 13.2219 2.04634 9.71714 2.08159 7.88368C2.11683 6.04951 2.45237 4.54736 3.44206 3.53582C5.72525 1.39502 12.166 1.87365 13.807 3.41598C15.8132 5.19446 15.0991 10.219 15.1033 10.3903C14.691 13.826 12.2604 14.0439 11.8135 14.1926C11.6225 14.256 9.84966 14.7121 7.62356 14.5634Z" fill="white"/>
<path d="M8.54082 3.9386C8.26943 3.9386 8.26943 4.36154 8.54082 4.36507C10.6464 4.38128 12.3804 5.8489 12.3995 8.54093C12.3995 8.82501 12.8154 8.82149 12.8118 8.53741H12.8111C12.7886 5.63672 10.8952 3.95481 8.54082 3.9386Z" fill="white"/>
<path d="M11.3108 8.09442C11.3045 8.37497 11.7197 8.38836 11.7232 8.10429C11.7577 6.50485 10.7716 5.18738 8.91836 5.04852C8.64698 5.02878 8.61878 5.45525 8.88946 5.47498C10.4966 5.59693 11.3432 6.69377 11.3108 8.09442Z" fill="white"/>
<path d="M10.868 9.9139C10.5198 9.7123 10.1652 9.83777 10.0186 10.0359L9.71198 10.4327C9.5562 10.6343 9.26507 10.6075 9.26507 10.6075C7.14049 10.0457 6.57233 7.82245 6.57233 7.82245C6.57233 7.82245 6.54625 7.52145 6.7408 7.36003L7.12427 7.04282C7.31601 6.89056 7.43725 6.52401 7.24199 6.1638C6.72036 5.22134 6.37002 4.89638 6.19168 4.64684C6.00418 4.41211 5.72221 4.35924 5.42897 4.51784H5.42263C4.81289 4.87453 4.14534 5.54207 4.35893 6.22936C4.72336 6.954 5.39302 9.26398 7.52748 11.0093C8.53056 11.8348 10.118 12.6807 10.7919 12.8759L10.7982 12.8858C11.4623 13.1071 12.108 12.4135 12.4527 11.7854V11.7805C12.6056 11.4767 12.5549 11.1891 12.3314 11.0009C11.9353 10.6146 11.3375 10.1881 10.868 9.9139Z" fill="white"/>
<path d="M9.20885 6.62211C9.88627 6.66158 10.2148 7.01545 10.25 7.74221C10.2627 8.02628 10.6751 8.00655 10.6624 7.72247C10.6173 6.77366 10.1224 6.24498 9.23141 6.19564C8.96002 6.17943 8.93464 6.6059 9.20885 6.62211Z" fill="white"/>
</svg>
