<svg width="17" height="10" viewBox="0 0 17 10" fill="none" xmlns="http://www.w3.org/2000/svg">
<path d="M13.5443 5.70499C13.2921 5.36899 13.3643 5.2195 13.5443 4.91916C13.5476 4.91573 15.6296 1.88076 15.8441 0.851502L15.8454 0.850816C15.952 0.47573 15.8454 0.200073 15.3299 0.200073H13.6243C13.1901 0.200073 12.9899 0.436645 12.8826 0.70133C12.8826 0.70133 12.0142 2.89424 10.7856 4.31573C10.3891 4.72647 10.2058 4.85813 9.98935 4.85813C9.88274 4.85813 9.71699 4.72647 9.71699 4.35139V0.850816C9.71699 0.400987 9.59543 0.200073 9.23597 0.200073H6.55398C6.28162 0.200073 6.11976 0.409902 6.11976 0.60533C6.11976 1.03184 6.73403 1.1299 6.79774 2.3299V4.93356C6.79774 5.50407 6.69958 5.60899 6.48183 5.60899C5.90201 5.60899 4.49471 3.40716 3.66073 0.887159C3.49237 0.398245 3.32792 0.200759 2.89045 0.200759H1.18414C0.697274 0.200759 0.599121 0.43733 0.599121 0.702016C0.599121 1.16967 1.17894 3.49493 3.29541 6.56693C4.70596 8.66385 6.69243 9.80007 8.4995 9.80007C9.58568 9.80007 9.71829 9.54773 9.71829 9.11367C9.71829 7.11002 9.62013 6.92076 10.1642 6.92076C10.4164 6.92076 10.8506 7.05242 11.8647 8.06385C13.0237 9.26316 13.2141 9.80007 13.8628 9.80007H15.5685C16.0547 9.80007 16.3011 9.54773 16.1594 9.0499C15.835 8.00282 13.6431 5.84899 13.5443 5.70499Z" fill="white"/>
</svg>
