<svg width="14" height="9" viewBox="0 0 14 9" fill="none" xmlns="http://www.w3.org/2000/svg">
<path d="M11.6175 5.16086C11.3911 4.84586 11.4559 4.70571 11.6175 4.42414C11.6204 4.42093 13.4889 1.57564 13.6814 0.610714L13.6826 0.610071C13.7782 0.258428 13.6826 0 13.22 0H11.6892C11.2996 0 11.1199 0.221786 11.0236 0.469929C11.0236 0.469929 10.2443 2.52579 9.14173 3.85843C8.78589 4.2435 8.62138 4.36693 8.42712 4.36693C8.33146 4.36693 8.1827 4.2435 8.1827 3.89186V0.610071C8.1827 0.188357 8.07361 0 7.75102 0H5.3441C5.09968 0 4.95442 0.196714 4.95442 0.379929C4.95442 0.779786 5.50569 0.871714 5.56286 1.99671V4.43764C5.56286 4.9725 5.47477 5.07086 5.27935 5.07086C4.759 5.07086 3.49604 3.00664 2.7476 0.644143C2.59651 0.185786 2.44892 0.000642811 2.05632 0.000642811H0.525018C0.0880864 0.000642811 0 0.222428 0 0.470571C0 0.909 0.520351 3.08893 2.41975 5.96893C3.68563 7.93479 5.46836 9 7.09008 9C8.06486 9 8.18387 8.76343 8.18387 8.3565C8.18387 6.47807 8.09578 6.30064 8.58405 6.30064C8.81039 6.30064 9.20007 6.42407 10.1101 7.37229C11.1502 8.49664 11.3211 9 11.9033 9H13.434C13.8704 9 14.0915 8.76343 13.9643 8.29671C13.6732 7.31507 11.7062 5.29586 11.6175 5.16086Z" fill="white"/>
</svg>
