<svg width="15" height="15" viewBox="0 0 15 15" fill="none" xmlns="http://www.w3.org/2000/svg">
<path d="M10.942 8.94235L10.9363 8.98922C9.56196 8.30422 9.41821 8.21297 9.24071 8.47922C9.11759 8.6636 8.75884 9.08172 8.65071 9.20547C8.54134 9.32735 8.43259 9.33672 8.24696 9.25235C8.05946 9.1586 7.45759 8.96172 6.74509 8.32422C6.19009 7.82735 5.81759 7.21797 5.70759 7.03047C5.52446 6.71422 5.90759 6.66922 6.25634 6.00922C6.31884 5.87797 6.28696 5.77485 6.24071 5.68172C6.19384 5.58797 5.82071 4.66922 5.66446 4.30297C5.51446 3.93797 5.36009 3.98422 5.24446 3.98422C4.88446 3.95297 4.62134 3.95797 4.38946 4.19922C3.38071 5.30797 3.63509 6.45172 4.49821 7.66797C6.19446 9.88797 7.09821 10.2967 8.75071 10.8642C9.19696 11.0061 9.60384 10.9861 9.92571 10.9398C10.2845 10.883 11.0301 10.4892 11.1857 10.0486C11.3451 9.60797 11.3451 9.24235 11.2982 9.15797C11.252 9.0736 11.1295 9.02672 10.942 8.94235Z" fill="white"/>
<path d="M12.825 2.1559C8.01937 -2.48973 0.06625 0.879645 0.063125 7.43339C0.063125 8.74339 0.40625 10.0209 1.06 11.149L0 15.0003L3.95937 13.9678C8.9 16.6365 14.9975 13.0928 15 7.43715C15 5.45215 14.225 3.58402 12.8156 2.18027L12.825 2.1559ZM13.7513 7.41652C13.7475 12.1871 8.51062 15.1665 4.36875 12.7315L4.14375 12.5978L1.8 13.2071L2.42812 10.929L2.27875 10.6946C-0.29875 6.59152 2.6625 1.22902 7.545 1.22902C9.20375 1.22902 10.7606 1.8759 11.9331 3.04777C13.105 4.20965 13.7513 5.76652 13.7513 7.41652Z" fill="white"/>
</svg>
