<svg width="16" height="16" viewBox="0 0 16 16" fill="none" xmlns="http://www.w3.org/2000/svg">
<path d="M11.3045 9.38463L11.2991 9.42963C9.97967 8.77204 9.84168 8.68444 9.67128 8.94004C9.55308 9.11704 9.20869 9.51843 9.10489 9.63723C8.99989 9.75422 8.89549 9.76322 8.7173 9.68223C8.5373 9.59223 7.95951 9.40323 7.27552 8.79124C6.74273 8.31425 6.38514 7.72926 6.27954 7.54926C6.10374 7.24567 6.47154 7.20247 6.80633 6.56888C6.86633 6.44288 6.83573 6.34389 6.79133 6.25449C6.74633 6.16449 6.38814 5.2825 6.23814 4.93091C6.09414 4.58052 5.94595 4.62492 5.83495 4.62492C5.48936 4.59492 5.23676 4.59972 5.01416 4.83131C4.04578 5.89569 4.28998 6.99367 5.11856 8.16125C6.74693 10.2924 7.61452 10.6848 9.20089 11.2296C9.62928 11.3658 10.0199 11.3466 10.3289 11.3022C10.6733 11.2476 11.389 10.8696 11.5384 10.4466C11.6914 10.0236 11.6914 9.67263 11.6464 9.59163C11.602 9.51063 11.4844 9.46563 11.3045 9.38463Z" fill="white"/>
<path d="M13.1118 2.86967C8.49851 -1.59005 0.863648 1.64449 0.860648 7.93598C0.860648 9.19356 1.19004 10.4199 1.81763 11.5029L0.800049 15.2L4.60098 14.2089C9.34389 16.7708 15.1974 13.3689 15.1998 7.93958C15.1998 6.03401 14.4558 4.24065 13.1028 2.89307L13.1118 2.86967ZM14.001 7.91978C13.9974 12.4995 8.9701 15.3596 4.99397 13.0221L4.77798 12.8937L2.52802 13.4787L3.13101 11.2917L2.98761 11.0667C0.513254 7.12779 3.356 1.97989 8.04312 1.97989C9.63549 1.97989 11.1301 2.60088 12.2556 3.72586C13.3806 4.84124 14.001 6.33581 14.001 7.91978Z" fill="white"/>
</svg>
