<svg width="11" height="11" viewBox="0 0 11 11" fill="none" xmlns="http://www.w3.org/2000/svg">
<g clip-path="url(#clip0)">
<path d="M10.2127 3.44298L7.6637 0.795952C7.58055 0.709714 7.4531 0.682643 7.34216 0.727306C7.23079 0.7724 7.15783 0.880251 7.15783 1.00024V2.27478H7.05982C4.95161 2.27478 3.23633 3.99007 3.23633 6.09827V6.6865C3.23633 6.82293 3.3324 6.93667 3.46532 6.96769C3.48693 6.97314 3.50847 6.97551 3.53001 6.97551C3.64102 6.97551 3.74729 6.91038 3.79864 6.80806C4.35003 5.70492 5.45863 5.01982 6.69196 5.01982H7.15783V6.2943C7.15783 6.41435 7.23079 6.52221 7.34216 6.56687C7.45238 6.61196 7.58055 6.58453 7.6637 6.49822L10.2127 3.85119C10.3225 3.7371 10.3225 3.55751 10.2127 3.44298Z" fill="#16B8C3"/>
<path d="M9.11802 10.1174H2.05927C1.41065 10.1174 0.882812 9.58965 0.882812 8.94096V3.45087C0.882812 2.80225 1.41065 2.27441 2.05927 2.27441H3.23573C3.45258 2.27441 3.62786 2.44969 3.62786 2.66654C3.62786 2.88339 3.45258 3.05867 3.23573 3.05867H2.05927C1.84278 3.05867 1.66707 3.23438 1.66707 3.45087V8.94096C1.66707 9.15745 1.84278 9.33316 2.05927 9.33316H9.11802C9.33444 9.33316 9.51014 9.15745 9.51014 8.94096V5.80379C9.51014 5.58694 9.68542 5.41159 9.90227 5.41159C10.1192 5.41159 10.2945 5.58694 10.2945 5.80379V8.94096C10.2945 9.58965 9.76663 10.1174 9.11802 10.1174Z" fill="#16B8C3"/>
</g>
<defs>
<clipPath id="clip0">
<rect width="9.41177" height="9.41177" fill="white" transform="translate(0.882812 0.706055)"/>
</clipPath>
</defs>
</svg>
