<svg width="34" height="34" viewBox="0 0 34 34" fill="none" xmlns="http://www.w3.org/2000/svg">
<path fill-rule="evenodd" clip-rule="evenodd" d="M4.25036 12.4775C4.25 12.672 4.25 12.8738 4.25 13.0834V20.9167C4.25 23.7451 4.25 25.1594 5.12868 26.038C6.00736 26.9167 7.42157 26.9167 10.25 26.9167H23.75C26.5784 26.9167 27.9926 26.9167 28.8713 26.038C29.75 25.1594 29.75 23.7451 29.75 20.9167V13.0834C29.75 12.8738 29.75 12.672 29.7496 12.4775L17.9713 19.0211C17.3672 19.3566 16.6328 19.3566 16.0287 19.0211L4.25036 12.4775ZM4.30451 10.3346C4.45126 10.3425 4.59853 10.383 4.73564 10.4592L17 17.2727L29.2644 10.4592C29.4015 10.383 29.5487 10.3425 29.6955 10.3346C29.6123 9.21917 29.4022 8.49289 28.8713 7.96205C27.9926 7.08337 26.5784 7.08337 23.75 7.08337H10.25C7.42157 7.08337 6.00736 7.08337 5.12868 7.96205C4.59785 8.49288 4.38771 9.21917 4.30451 10.3346Z" fill="white"/>
</svg>
