<svg width="24" height="24" viewBox="0 0 24 24" fill="none" xmlns="http://www.w3.org/2000/svg">
<g clip-path="url(#clip0_1333:1731)">
<path d="M11.8054 5.7406C8.45908 5.7406 5.75 8.45263 5.75 11.796C5.75 15.1422 8.46203 17.8513 11.8054 17.8513C15.1516 17.8513 17.8607 15.1393 17.8607 11.796C17.8607 8.44968 15.1487 5.7406 11.8054 5.7406ZM11.8054 15.7263C9.63318 15.7263 7.87498 13.9672 7.87498 11.796C7.87498 9.62477 9.63416 7.86558 11.8054 7.86558C13.9766 7.86558 15.7357 9.62477 15.7357 11.796C15.7367 13.9672 13.9775 15.7263 11.8054 15.7263Z" fill="white"/>
<path d="M16.6657 0.0749847C14.4945 -0.0262986 9.1167 -0.021382 6.94354 0.0749847C5.0339 0.164468 3.34946 0.625651 1.99147 1.98363C-0.27806 4.25317 0.0120235 7.31133 0.0120235 11.7963C0.0120235 16.3865 -0.243643 19.3739 1.99147 21.609C4.26985 23.8864 7.37227 23.5884 11.8041 23.5884C16.3511 23.5884 17.9205 23.5914 19.5282 22.9689C21.7142 22.1203 23.3642 20.1664 23.5255 16.6569C23.6277 14.4847 23.6218 9.10788 23.5255 6.93472C23.3308 2.79193 21.1075 0.279518 16.6657 0.0749847ZM20.1025 20.1074C18.6147 21.5952 16.5507 21.4625 11.7756 21.4625C6.85897 21.4625 4.88739 21.5352 3.44877 20.0927C1.79186 18.4436 2.09177 15.7955 2.09177 11.7806C2.09177 6.34767 1.53422 2.43498 6.9868 2.15572C8.23957 2.11147 8.60832 2.09672 11.7619 2.09672L11.8061 2.12622C17.0463 2.12622 21.1576 1.57752 21.4044 7.02912C21.4605 8.27303 21.4733 8.6467 21.4733 11.7953C21.4723 16.655 21.5647 18.6383 20.1025 20.1074Z" fill="white"/>
<path d="M18.0986 6.91682C18.8801 6.91682 19.5136 6.2833 19.5136 5.50181C19.5136 4.72032 18.8801 4.08679 18.0986 4.08679C17.3171 4.08679 16.6836 4.72032 16.6836 5.50181C16.6836 6.2833 17.3171 6.91682 18.0986 6.91682Z" fill="white"/>
</g>
<defs>
<clipPath id="clip0_1333:1731">
<rect width="23.6" height="23.6" fill="white"/>
</clipPath>
</defs>
</svg>
