<svg width="23" height="25" viewBox="0 0 23 25" fill="none" xmlns="http://www.w3.org/2000/svg">
<path d="M22.7702 14.4043C23.5022 8.24249 22.4185 4.35237 20.4637 2.59287L20.4647 2.59184C17.3097 -0.412908 6.65451 -0.85764 2.87992 2.7268C1.18482 4.48016 0.587759 7.05348 0.522327 10.2392C0.456895 13.4259 0.379195 19.3955 5.94192 21.015H5.94703L5.94192 23.4881C5.94192 23.4881 5.90409 24.49 6.5441 24.6914C7.27612 24.9286 7.60736 24.4634 9.88419 21.7439C13.6915 22.0742 16.6155 21.3176 16.9478 21.2072C17.7166 20.9496 22.0668 20.374 22.7702 14.4043ZM10.2594 20.0039C10.2594 20.0039 7.84967 23.0086 7.10027 23.7887C6.8549 24.0422 6.58601 24.0187 6.5901 23.5157C6.5901 23.1855 6.60851 19.4099 6.60851 19.4099C1.89231 18.0583 2.17039 12.9751 2.22151 10.3159C2.27263 7.65565 2.75928 5.47698 4.19469 4.00987C7.50615 0.90493 16.8476 1.59912 19.2276 3.83607C22.1373 6.41551 21.1017 13.703 21.1078 13.9514C20.5097 18.9345 16.9846 19.2504 16.3364 19.4661C16.0593 19.5581 13.488 20.2196 10.2594 20.0039Z" fill="white"/>
<path d="M11.5882 4.59399C11.1946 4.59399 11.1946 5.20742 11.5882 5.21253C14.642 5.23604 17.157 7.36462 17.1846 11.2691C17.1846 11.6811 17.7878 11.676 17.7827 11.2639H17.7817C17.749 7.05689 15.0029 4.61751 11.5882 4.59399Z" fill="white"/>
<path d="M15.6068 10.6216C15.5976 11.0285 16.1998 11.048 16.2049 10.6359C16.255 8.31619 14.8247 6.40537 12.1369 6.20397C11.7433 6.17534 11.7024 6.79388 12.095 6.8225C14.426 6.99937 15.6539 8.59018 15.6068 10.6216Z" fill="white"/>
<path d="M14.9644 13.2606C14.4594 12.9682 13.9451 13.1502 13.7325 13.4375L13.2877 14.0131C13.0618 14.3055 12.6396 14.2666 12.6396 14.2666C9.55814 13.4518 8.7341 10.2272 8.7341 10.2272C8.7341 10.2272 8.69628 9.79069 8.97845 9.55657L9.53462 9.0965C9.81271 8.87567 9.98855 8.34404 9.70536 7.8216C8.9488 6.45469 8.44068 5.98338 8.18202 5.62146C7.91007 5.28101 7.50112 5.20433 7.07582 5.43436H7.06662C6.18226 5.95169 5.21408 6.91987 5.52386 7.91668C6.05242 8.96768 7.02368 12.318 10.1194 14.8494C11.5743 16.0466 13.8766 17.2734 14.854 17.5566L14.8632 17.5709C15.8263 17.892 16.7628 16.886 17.2627 15.975V15.9679C17.4846 15.5272 17.411 15.1101 17.0869 14.8371C16.5123 14.2769 15.6453 13.6583 14.9644 13.2606Z" fill="white"/>
<path d="M12.5583 8.48613C13.5408 8.54338 14.0172 9.05662 14.0683 10.1107C14.0867 10.5227 14.6848 10.4941 14.6664 10.0821C14.601 8.70594 13.8833 7.93916 12.591 7.8676C12.1974 7.84408 12.1606 8.46262 12.5583 8.48613Z" fill="white"/>
</svg>
