<svg width="24" height="24" viewBox="0 0 24 24" fill="none" xmlns="http://www.w3.org/2000/svg">
<path d="M17.2174 14.0698L17.2086 14.1436C15.0462 13.0658 14.82 12.9223 14.5408 13.3412C14.347 13.6312 13.7826 14.2891 13.6125 14.4838C13.4404 14.6756 13.2693 14.6903 12.9773 14.5576C12.6822 14.4101 11.7353 14.1003 10.6143 13.0973C9.74106 12.3155 9.15499 11.3568 8.98192 11.0618C8.6938 10.5642 9.29659 10.4934 9.8453 9.45499C9.94363 9.24848 9.89348 9.08623 9.82072 8.93971C9.74696 8.79221 9.15991 7.3467 8.91407 6.77046C8.67807 6.19618 8.43518 6.26895 8.25326 6.26895C7.68686 6.21978 7.27287 6.22765 6.90805 6.60722C5.32093 8.35167 5.72115 10.1512 7.07915 12.0648C9.74795 15.5576 11.1699 16.2007 13.7698 17.0936C14.4719 17.3168 15.1121 17.2854 15.6185 17.2126C16.183 17.1231 17.3561 16.5036 17.6009 15.8103C17.8517 15.1171 17.8517 14.5418 17.7779 14.4091C17.7052 14.2763 17.5124 14.2026 17.2174 14.0698Z" fill="white"/>
<path d="M20.1782 3.39198C12.6173 -3.91722 0.104234 1.38399 0.0993178 11.6953C0.0993178 13.7564 0.639174 15.7664 1.66775 17.5413L0 23.6007L6.22949 21.9762C14.0028 26.1751 23.5963 20.5995 23.6003 11.7012C23.6003 8.57814 22.3809 5.63892 20.1635 3.43033L20.1782 3.39198ZM21.6355 11.6688C21.6296 19.1747 13.3902 23.8623 6.87358 20.0311L6.51957 19.8207L2.83203 20.7795L3.82029 17.1952L3.58527 16.8264C-0.470039 10.3708 4.18905 1.93368 11.8709 1.93368C14.4807 1.93368 16.9302 2.95144 18.775 4.79521C20.6188 6.62325 21.6355 9.07276 21.6355 11.6688Z" fill="white"/>
</svg>
