<svg width="10" height="10" viewBox="0 0 10 10" fill="none" xmlns="http://www.w3.org/2000/svg">
<g clip-path="url(#clip0)">
<path d="M8.34961 1.30859H7.93945V0.625H7.25586V1.30859H2.74414V0.625H2.06055V1.30859H1.65039C1.08499 1.30859 0.625 1.76858 0.625 2.33398V8.34961C0.625 8.91501 1.08499 9.375 1.65039 9.375H8.34961C8.91501 9.375 9.375 8.91501 9.375 8.34961V2.33398C9.375 1.76858 8.91501 1.30859 8.34961 1.30859ZM8.69141 8.34961C8.69141 8.53808 8.53808 8.69141 8.34961 8.69141H1.65039C1.46192 8.69141 1.30859 8.53808 1.30859 8.34961V3.83789H8.69141V8.34961ZM8.69141 3.1543H1.30859V2.33398C1.30859 2.14552 1.46192 1.99219 1.65039 1.99219H2.06055V2.67578H2.74414V1.99219H7.25586V2.67578H7.93945V1.99219H8.34961C8.53808 1.99219 8.69141 2.14552 8.69141 2.33398V3.1543Z" fill="#854FC8"/>
<path d="M2.60742 4.55566H1.92383V5.23926H2.60742V4.55566Z" fill="#854FC8"/>
<path d="M3.97461 4.55566H3.29102V5.23926H3.97461V4.55566Z" fill="#854FC8"/>
<path d="M5.3418 4.55566H4.6582V5.23926H5.3418V4.55566Z" fill="#854FC8"/>
<path d="M6.70898 4.55566H6.02539V5.23926H6.70898V4.55566Z" fill="#854FC8"/>
<path d="M8.07617 4.55566H7.39258V5.23926H8.07617V4.55566Z" fill="#854FC8"/>
<path d="M2.60742 5.92285H1.92383V6.60645H2.60742V5.92285Z" fill="#854FC8"/>
<path d="M3.97461 5.92285H3.29102V6.60645H3.97461V5.92285Z" fill="#854FC8"/>
<path d="M5.3418 5.92285H4.6582V6.60645H5.3418V5.92285Z" fill="#854FC8"/>
<path d="M6.70898 5.92285H6.02539V6.60645H6.70898V5.92285Z" fill="#854FC8"/>
<path d="M2.60742 7.29004H1.92383V7.97363H2.60742V7.29004Z" fill="#854FC8"/>
<path d="M3.97461 7.29004H3.29102V7.97363H3.97461V7.29004Z" fill="#854FC8"/>
<path d="M5.3418 7.29004H4.6582V7.97363H5.3418V7.29004Z" fill="#854FC8"/>
<path d="M6.70898 7.29004H6.02539V7.97363H6.70898V7.29004Z" fill="#854FC8"/>
<path d="M8.07617 5.92285H7.39258V6.60645H8.07617V5.92285Z" fill="#854FC8"/>
</g>
<defs>
<clipPath id="clip0">
<rect width="8.75" height="8.75" fill="white" transform="translate(0.625 0.625)"/>
</clipPath>
</defs>
</svg>
