<svg width="18" height="18" viewBox="0 0 18 18" fill="none" xmlns="http://www.w3.org/2000/svg">
<g clip-path="url(#clip0)">
<path d="M14.7855 9.00032C14.4305 9.00032 14.1426 9.28813 14.1426 9.64318V16.0716C14.1426 16.4267 13.8548 16.7145 13.4998 16.7145H1.92855C1.5735 16.7145 1.28568 16.4267 1.28568 16.0716V3.21468C1.28568 2.85963 1.5735 2.57182 1.92855 2.57182H9.64273C9.99778 2.57182 10.2856 2.284 10.2856 1.92896C10.2856 1.57391 9.99778 1.28613 9.64273 1.28613H1.92855C0.863439 1.28613 0 2.14957 0 3.21468V16.0716C0 17.1367 0.863439 18.0002 1.92855 18.0002H13.4998C14.5649 18.0002 15.4284 17.1367 15.4284 16.0716V9.64314C15.4284 9.28813 15.1406 9.00032 14.7855 9.00032Z" fill="white"/>
<path d="M17.2794 0.720879C16.8178 0.259234 16.1918 -6.51633e-05 15.539 1.01705e-05C14.8858 -0.00187317 14.2591 0.257878 13.7988 0.721294L5.33115 9.18821C5.26091 9.25899 5.20791 9.34502 5.17623 9.43956L3.89054 13.2967C3.77834 13.6335 3.96045 13.9975 4.29731 14.1097C4.36266 14.1315 4.4311 14.1426 4.49996 14.1427C4.56896 14.1425 4.63756 14.1315 4.7031 14.1099L8.56019 12.8242C8.65492 12.7926 8.74099 12.7393 8.81154 12.6686L17.2791 4.20104C18.2402 3.24008 18.2403 1.68195 17.2794 0.720879ZM16.3702 3.29266L8.01311 11.6497L5.51629 12.4835L6.34748 9.98984L14.7077 1.63283C15.1673 1.17413 15.9118 1.17488 16.3705 1.63449C16.5896 1.85405 16.7131 2.15128 16.7141 2.46147C16.7149 2.77331 16.591 3.07254 16.3702 3.29266Z" fill="white"/>
</g>
<defs>
<clipPath id="clip0">
<rect width="18" height="18" fill="white"/>
</clipPath>
</defs>
</svg>
