<svg width="12" height="11" viewBox="0 0 12 11" fill="none" xmlns="http://www.w3.org/2000/svg">
<path d="M8.48179 0.882812C7.90723 0.882812 7.38047 1.06613 6.91616 1.4277C6.47102 1.77433 6.17465 2.21583 6.00017 2.53687C5.82569 2.21581 5.52933 1.77433 5.08419 1.4277C4.61988 1.06613 4.09311 0.882812 3.51855 0.882812C1.91518 0.882812 0.706055 2.20331 0.706055 3.95442C0.706055 5.84623 2.21453 7.14057 4.49815 9.10003C4.88595 9.4328 5.3255 9.80998 5.78237 10.2122C5.84259 10.2653 5.91993 10.2946 6.00017 10.2946C6.08041 10.2946 6.15775 10.2653 6.21798 10.2123C6.67488 9.80993 7.11442 9.43278 7.50244 9.09982C9.78582 7.14057 11.2943 5.84623 11.2943 3.95442C11.2943 2.20331 10.0852 0.882812 8.48179 0.882812Z" fill="#DE33FE"/>
</svg>
