<svg width="36" height="36" viewBox="0 0 36 36" fill="none" xmlns="http://www.w3.org/2000/svg">
<path d="M0 32.2043C0 34.3008 1.70658 36 3.79567 36H32.2043C34.3008 36 36 34.2934 36 32.2043V3.79567C36 1.69922 34.2934 0 32.2043 0H3.79567C1.69922 0 0 1.70658 0 3.79567V32.2043ZM32.2043 34.1978H3.79567C2.69963 34.1978 1.80221 33.3004 1.80221 32.2043V27.4597L8.62852 20.6334L14.4618 26.4667C14.8149 26.8198 15.3813 26.8198 15.7344 26.4667L26.2681 15.933L34.1978 23.8627V32.2043C34.1978 33.3004 33.3004 34.1978 32.2043 34.1978ZM3.79567 1.80221H32.2043C33.3004 1.80221 34.1978 2.69963 34.1978 3.79567V21.3102L26.9007 14.0204C26.5476 13.6673 25.9812 13.6673 25.6281 14.0204L15.0944 24.5541L9.26114 18.7209C8.90805 18.3678 8.34164 18.3678 7.98856 18.7209L1.80221 24.9072V3.79567C1.80221 2.69963 2.69963 1.80221 3.79567 1.80221Z" fill="#3B3B3B"/>
<path d="M11.1589 14.4243C13.6894 14.4243 15.7417 12.3646 15.7417 9.84155C15.7417 7.31846 13.682 5.25879 11.1589 5.25879C8.63584 5.25879 6.57617 7.31846 6.57617 9.84155C6.57617 12.3646 8.62848 14.4243 11.1589 14.4243ZM11.1589 7.061C12.6963 7.061 13.9395 8.31151 13.9395 9.84155C13.9395 11.3716 12.689 12.6221 11.1589 12.6221C9.62889 12.6221 8.37838 11.3716 8.37838 9.84155C8.37838 8.31151 9.62153 7.061 11.1589 7.061Z" fill="#3B3B3B"/>
</svg>
