<svg width="37" height="37" viewBox="0 0 37 37" fill="none" xmlns="http://www.w3.org/2000/svg">
<path d="M0 33.0989C0 35.2536 1.75398 37 3.9011 37H33.0989C35.2536 37 37 35.246 37 33.0989V3.9011C37 1.74642 35.246 0 33.0989 0H3.9011C1.74642 0 0 1.75398 0 3.9011V33.0989ZM33.0989 35.1477H3.9011C2.77462 35.1477 1.85227 34.2254 1.85227 33.0989V28.2225L8.86821 21.2066L14.8635 27.2019C15.2264 27.5648 15.8085 27.5648 16.1714 27.2019L26.9978 16.3756L35.1477 24.5255V33.0989C35.1477 34.2254 34.2254 35.1477 33.0989 35.1477ZM3.9011 1.85227H33.0989C34.2254 1.85227 35.1477 2.77462 35.1477 3.9011V21.9021L27.6479 14.4099C27.285 14.047 26.7029 14.047 26.34 14.4099L15.5137 25.2362L9.51839 19.2409C9.1555 18.878 8.57335 18.878 8.21046 19.2409L1.85227 25.5991V3.9011C1.85227 2.77462 2.77462 1.85227 3.9011 1.85227Z" fill="#656565"/>
<path d="M11.4688 14.8254C14.0696 14.8254 16.1789 12.7085 16.1789 10.1153C16.1789 7.52215 14.062 5.40527 11.4688 5.40527C8.87567 5.40527 6.75879 7.52215 6.75879 10.1153C6.75879 12.7085 8.86811 14.8254 11.4688 14.8254ZM11.4688 7.25754C13.0489 7.25754 14.3266 8.54279 14.3266 10.1153C14.3266 11.6879 13.0414 12.9731 11.4688 12.9731C9.8963 12.9731 8.61106 11.6879 8.61106 10.1153C8.61106 8.54279 9.88874 7.25754 11.4688 7.25754Z" fill="#656565"/>
</svg>
