<svg width="12" height="11" viewBox="0 0 12 11" fill="none" xmlns="http://www.w3.org/2000/svg">
<path d="M8.48179 0.882324C7.90723 0.882324 7.38047 1.06565 6.91616 1.42721C6.47102 1.77384 6.17465 2.21534 6.00017 2.53638C5.82569 2.21532 5.52933 1.77384 5.08419 1.42721C4.61988 1.06565 4.09311 0.882324 3.51855 0.882324C1.91518 0.882324 0.706055 2.20282 0.706055 3.95393C0.706055 5.84574 2.21453 7.14009 4.49815 9.09954C4.88595 9.43231 5.3255 9.80949 5.78237 10.2118C5.84259 10.2649 5.91993 10.2941 6.00017 10.2941C6.08041 10.2941 6.15775 10.2649 6.21798 10.2118C6.67488 9.80945 7.11442 9.43229 7.50244 9.09934C9.78582 7.14009 11.2943 5.84574 11.2943 3.95393C11.2943 2.20282 10.0852 0.882324 8.48179 0.882324Z" fill="#DE33FE"/>
</svg>
