<svg width="11" height="11" viewBox="0 0 11 11" fill="none" xmlns="http://www.w3.org/2000/svg">
<g clip-path="url(#clip0)">
<path d="M10.2127 3.4428L7.6637 0.795769C7.58055 0.709531 7.4531 0.68246 7.34216 0.727123C7.23079 0.772217 7.15783 0.880068 7.15783 1.00005V2.2746H7.05982C4.95161 2.2746 3.23633 3.98988 3.23633 6.09808V6.68631C3.23633 6.82274 3.3324 6.93648 3.46532 6.9675C3.48693 6.97296 3.50847 6.97533 3.53001 6.97533C3.64102 6.97533 3.74729 6.9102 3.79864 6.80788C4.35003 5.70474 5.45863 5.01964 6.69196 5.01964H7.15783V6.29411C7.15783 6.41417 7.23079 6.52202 7.34216 6.56669C7.45238 6.61178 7.58055 6.58435 7.6637 6.49804L10.2127 3.85101C10.3225 3.73691 10.3225 3.55733 10.2127 3.4428Z" fill="#16B8C3"/>
<path d="M9.11802 10.1176H2.05927C1.41065 10.1176 0.882812 9.58983 0.882812 8.94114V3.45105C0.882812 2.80244 1.41065 2.2746 2.05927 2.2746H3.23573C3.45258 2.2746 3.62786 2.44987 3.62786 2.66673C3.62786 2.88358 3.45258 3.05885 3.23573 3.05885H2.05927C1.84278 3.05885 1.66707 3.23456 1.66707 3.45105V8.94114C1.66707 9.15764 1.84278 9.33334 2.05927 9.33334H9.11802C9.33444 9.33334 9.51014 9.15764 9.51014 8.94114V5.80397C9.51014 5.58712 9.68542 5.41177 9.90227 5.41177C10.1192 5.41177 10.2945 5.58712 10.2945 5.80397V8.94114C10.2945 9.58983 9.76663 10.1176 9.11802 10.1176Z" fill="#16B8C3"/>
</g>
<defs>
<clipPath id="clip0">
<rect width="9.41177" height="9.41177" fill="white" transform="translate(0.882812 0.705872)"/>
</clipPath>
</defs>
</svg>
