<svg width="30" height="30" viewBox="0 0 30 30" fill="none" xmlns="http://www.w3.org/2000/svg">
<path d="M7.5 1.875V0H0.9375C0.419707 0 0 0.419707 0 0.9375V7.5H1.875V3.19688L10.5844 11.9062L11.9062 10.5844L3.19688 1.875H7.5Z" fill="#FFE2E2"/>
<path d="M29.0625 0H22.5V1.875H26.8031L18.0938 10.5844L19.4156 11.9062L28.125 3.19688V7.5H30V0.9375C30 0.419707 29.5803 0 29.0625 0Z" fill="#FFE2E2"/>
<path d="M28.125 26.8031L19.4156 18.0938L18.0938 19.4156L26.8031 28.125H22.5V30H29.0625C29.5803 30 30 29.5803 30 29.0625V22.5H28.125V26.8031Z" fill="#FFE2E2"/>
<path d="M10.5844 18.0845L1.875 26.8032V22.5001H0V29.0626C0 29.5804 0.419707 30.0001 0.9375 30.0001H7.5V28.1251H3.19688L11.9062 19.4157L10.5844 18.0845Z" fill="#FFE2E2"/>
</svg>
