<svg width="24" height="18" viewBox="0 0 24 18" fill="none" xmlns="http://www.w3.org/2000/svg">
<path d="M22.1278 16.887H7.08217C6.46207 16.887 5.95947 16.3844 5.95947 15.7643C5.95947 15.1442 6.46207 14.6416 7.08217 14.6416H22.1275C22.7476 14.6416 23.2502 15.1442 23.2502 15.7643C23.2502 16.3844 22.7479 16.887 22.1278 16.887Z" fill="#16B8C3"/>
<path d="M22.1278 9.84012H7.08217C6.46207 9.84012 5.95947 9.33753 5.95947 8.71742C5.95947 8.09732 6.46207 7.59473 7.08217 7.59473H22.1275C22.7476 7.59473 23.2502 8.09732 23.2502 8.71742C23.2505 9.33753 22.7479 9.84012 22.1278 9.84012Z" fill="#16B8C3"/>
<path d="M22.1278 2.79325H7.08217C6.46207 2.79325 5.95947 2.29065 5.95947 1.67055C5.95947 1.05045 6.46207 0.547852 7.08217 0.547852H22.1275C22.7476 0.547852 23.2502 1.05045 23.2502 1.67055C23.2502 2.29065 22.7479 2.79325 22.1278 2.79325Z" fill="#16B8C3"/>
<path d="M2.25778 3.26557C3.09051 3.26557 3.76557 2.59051 3.76557 1.75778C3.76557 0.925058 3.09051 0.25 2.25778 0.25C1.42506 0.25 0.75 0.925058 0.75 1.75778C0.75 2.59051 1.42506 3.26557 2.25778 3.26557Z" fill="#16B8C3"/>
<path d="M2.25778 10.2255C3.09051 10.2255 3.76557 9.55047 3.76557 8.71774C3.76557 7.88502 3.09051 7.20996 2.25778 7.20996C1.42506 7.20996 0.75 7.88502 0.75 8.71774C0.75 9.55047 1.42506 10.2255 2.25778 10.2255Z" fill="#16B8C3"/>
<path d="M2.25778 17.1865C3.09051 17.1865 3.76557 16.5114 3.76557 15.6787C3.76557 14.846 3.09051 14.1709 2.25778 14.1709C1.42506 14.1709 0.75 14.846 0.75 15.6787C0.75 16.5114 1.42506 17.1865 2.25778 17.1865Z" fill="#16B8C3"/>
</svg>
