<svg width="17" height="32" viewBox="0 0 17 32" fill="none" xmlns="http://www.w3.org/2000/svg">
<path opacity="0.5" d="M0.35625 16.4686L14.8072 30.8806C15.0347 31.1075 15.3429 31.2347 15.6642 31.2344C15.9854 31.234 16.2934 31.106 16.5202 30.8786C16.7471 30.6512 16.8744 30.3429 16.874 30.0217C16.8736 29.7004 16.7457 29.3925 16.5182 29.1656L2.92725 15.6116L16.5183 2.0576C16.7413 1.82982 16.8655 1.5233 16.8639 1.20452C16.8624 0.885746 16.7352 0.580435 16.51 0.354828C16.2848 0.129221 15.9797 0.00151245 15.6609 -0.000589477C15.3422 -0.0026914 15.0354 0.120983 14.8073 0.343601L0.35625 14.7546C0.24332 14.867 0.153711 15.0007 0.092565 15.1478C0.0314192 15.295 -5.58408e-05 15.4527 -5.58547e-05 15.6121C-5.58686e-05 15.7715 0.0314192 15.9292 0.092565 16.0764C0.153711 16.2235 0.24332 16.3572 0.35625 16.4696L0.35625 16.4686Z" fill="white"/>
</svg>
