<svg width="17" height="32" viewBox="0 0 17 32" fill="none" xmlns="http://www.w3.org/2000/svg">
<path d="M16.5168 15.0001L2.0658 0.58815C1.83837 0.361257 1.53013 0.234001 1.20888 0.234376C0.887634 0.234751 0.579691 0.362727 0.352798 0.59015C0.125905 0.817573 -0.00135081 1.12581 -0.000975736 1.44706C-0.000600663 1.76831 0.127375 2.07626 0.354798 2.30315L13.9458 15.8571L0.354798 29.4111C0.13178 29.6389 0.00756915 29.9455 0.00911252 30.2642C0.0106559 30.583 0.137829 30.8883 0.363042 31.1139C0.588255 31.3395 0.893342 31.4672 1.21211 31.4693C1.53089 31.4714 1.83763 31.3478 2.0658 31.1251L16.5168 16.7141C16.6297 16.6017 16.7193 16.4681 16.7805 16.3209C16.8416 16.1738 16.8731 16.016 16.8731 15.8566C16.8731 15.6973 16.8416 15.5395 16.7805 15.3924C16.7193 15.2452 16.6297 15.1116 16.5168 14.9991V15.0001Z" fill="white"/>
</svg>
