<svg width="16" height="16" viewBox="0 0 16 16" fill="none" xmlns="http://www.w3.org/2000/svg">
<path d="M15.1773 6.20312C14.843 5.78438 14.3867 5.55312 13.893 5.55312H12.7648C12.6586 2.65937 10.5617 0.34375 7.99921 0.34375C5.43671 0.34375 3.33983 2.65937 3.23358 5.55312H2.10546C1.61171 5.55312 1.15546 5.78438 0.821081 6.20312C0.399206 6.72813 0.246082 7.45938 0.405457 8.1625L1.75858 14.125C1.96171 15.025 2.66171 15.6562 3.45858 15.6562H12.5367C13.3336 15.6562 14.0336 15.0281 14.2367 14.125L15.593 8.1625C15.7523 7.45938 15.5992 6.72813 15.1773 6.20312ZM7.99921 1.61875C9.86171 1.61875 11.3867 3.3625 11.4867 5.55312H4.51171C4.61171 3.36562 6.13671 1.61875 7.99921 1.61875ZM14.3492 7.87813L12.9961 13.8438C12.9273 14.15 12.7305 14.3813 12.5398 14.3813H3.45858C3.26796 14.3813 3.07108 14.15 3.00233 13.8438L1.64921 7.87813C1.57733 7.5625 1.53358 6.82812 2.10546 6.82812H13.893C14.5086 6.82812 14.4211 7.5625 14.3492 7.87813Z" fill="white"/>
<path d="M4.83281 8.09668C4.47969 8.09668 4.19531 8.38105 4.19531 8.73418V12.7186C4.19531 13.0717 4.47969 13.3561 4.83281 13.3561C5.18594 13.3561 5.47031 13.0717 5.47031 12.7186V8.73418C5.47344 8.38418 5.18594 8.09668 4.83281 8.09668Z" fill="white"/>
<path d="M7.92461 8.09668C7.57149 8.09668 7.28711 8.38105 7.28711 8.73418V12.7186C7.28711 13.0717 7.57149 13.3561 7.92461 13.3561C8.27774 13.3561 8.56212 13.0717 8.56212 12.7186V8.73418C8.56212 8.38418 8.27462 8.09668 7.92461 8.09668Z" fill="white"/>
<path d="M11.0125 8.09668C10.6594 8.09668 10.375 8.38105 10.375 8.73418V12.7186C10.375 13.0717 10.6594 13.3561 11.0125 13.3561C11.3656 13.3561 11.65 13.0717 11.65 12.7186V8.73418C11.65 8.38418 11.3656 8.09668 11.0125 8.09668Z" fill="white"/>
</svg>
