<svg width="18" height="16" viewBox="0 0 18 16" fill="none" xmlns="http://www.w3.org/2000/svg">
<path d="M12.9705 0.411621C12.0512 0.411621 11.2084 0.704935 10.4655 1.28343C9.75324 1.83804 9.27905 2.54444 8.99989 3.05811C8.72072 2.54441 8.24653 1.83804 7.53431 1.28343C6.79141 0.704935 5.94859 0.411621 5.0293 0.411621C2.4639 0.411621 0.529297 2.52442 0.529297 5.3262C0.529297 8.35309 2.94285 10.424 6.59665 13.5592C7.21712 14.0916 7.92041 14.6951 8.6514 15.3387C8.74775 15.4237 8.8715 15.4704 8.99989 15.4704C9.12827 15.4704 9.25202 15.4237 9.34837 15.3387C10.0794 14.695 10.7827 14.0916 11.4035 13.5588C15.0569 10.424 17.4705 8.35309 17.4705 5.3262C17.4705 2.52442 15.5359 0.411621 12.9705 0.411621Z" fill="#DE33FE"/>
</svg>
