<svg width="17" height="17" viewBox="0 0 17 17" fill="none" xmlns="http://www.w3.org/2000/svg">
<path d="M15.5723 5.76803C15.5922 5.67959 15.6028 5.58903 15.6028 5.49629V3.36862C15.6028 1.52601 11.5833 0.531738 7.8014 0.531738C4.01947 0.531738 0 1.52601 0 3.36862C0 3.44811 0.00797526 3.52588 0.0225911 3.60218C0.00875651 3.6401 0 3.68053 0 3.72324V5.49629C0 6.08574 0.411849 6.58822 1.09518 6.99928C1.07474 7.08861 1.06383 7.17881 1.06383 7.2693C1.06383 7.3488 1.07181 7.42656 1.08643 7.5029C1.07256 7.54082 1.06383 7.58125 1.06383 7.62396V9.39701C1.06383 9.5598 1.09583 9.71582 1.15563 9.86527C0.50127 10.3502 0.354622 10.8355 0.354622 11.1701C0.354622 11.2495 0.362598 11.3273 0.377214 11.4036C0.363346 11.4415 0.354622 11.4819 0.354622 11.5247V13.2977C0.354622 15.1403 4.37412 16.1346 8.15605 16.1346C11.938 16.1346 15.9575 15.1403 15.9575 13.2977V11.1701C15.9575 11.0126 15.926 10.8572 15.865 10.7054C16.3708 10.3335 16.6667 9.89649 16.6667 9.39701V7.26934V7.2693C16.6667 6.87881 16.4709 6.31152 15.5723 5.76803ZM2.64788 1.9498C4.01914 1.49274 5.84941 1.24098 7.8014 1.24098C9.75338 1.24098 11.5836 1.49274 12.9549 1.9498C14.1689 2.35446 14.8936 2.88486 14.8936 3.36862C14.8936 3.85238 14.1689 4.38278 12.9549 4.78744C11.5836 5.2445 9.75338 5.49626 7.8014 5.49626C5.84941 5.49626 4.01911 5.2445 2.64788 4.78744C1.43392 4.38278 0.709212 3.85238 0.709212 3.36862C0.709212 2.88486 1.43395 2.35446 2.64788 1.9498ZM14.8936 4.60648V5.49629C14.8936 5.90609 14.3721 6.34906 13.4752 6.721V5.35488C14.0468 5.14336 14.5317 4.89346 14.8936 4.60648ZM12.766 5.58571V6.97507C12.3318 7.1099 11.8558 7.22503 11.3475 7.31927V5.90781C11.8473 5.81963 12.3241 5.71211 12.766 5.58571ZM10.6383 6.01823V7.43467C10.1834 7.49841 9.70879 7.54671 9.21989 7.57845V6.15934C9.70039 6.12806 10.1761 6.08089 10.6383 6.01823ZM8.51064 6.19395V7.61263C8.27643 7.62005 8.03988 7.62393 7.80143 7.62393C7.56299 7.62393 7.3264 7.62005 7.09222 7.61263V6.19391C7.32887 6.2016 7.56559 6.20547 7.80143 6.20547C8.03724 6.2055 8.27399 6.20163 8.51064 6.19395ZM6.38298 6.15934V7.57848C5.89408 7.54671 5.41943 7.49844 4.96452 7.4347V6.01826C5.42676 6.08089 5.90244 6.12806 6.38298 6.15934ZM4.25531 5.90785V7.3193C3.74704 7.22503 3.27103 7.10993 2.83688 6.9751V5.58571C3.27874 5.71211 3.7556 5.81966 4.25531 5.90785ZM0.709212 5.49629V4.60648C1.07113 4.89346 1.55605 5.14336 2.12764 5.35488V6.721C1.23076 6.34906 0.709212 5.90609 0.709212 5.49629ZM1.77305 8.50713C2.13496 8.79411 2.61989 9.04401 3.19147 9.25553V10.6217C2.2946 10.2497 1.77305 9.80677 1.77305 9.39697V8.50713ZM2.48226 14.5224C1.58538 14.1505 1.06383 13.7075 1.06383 13.2977V12.4079C1.42575 12.6949 1.91068 12.9448 2.48226 13.1563V14.5224ZM4.60993 15.1207C4.10166 15.0265 3.62565 14.9114 3.1915 14.7765V13.3871C3.63337 13.5135 4.11022 13.6211 4.60993 13.7093V15.1207ZM6.7376 15.3799C6.2487 15.3481 5.77406 15.2998 5.31914 15.2361V13.8197C5.78138 13.8823 6.25706 13.9295 6.7376 13.9608V15.3799ZM8.86523 15.4141C8.63102 15.4215 8.39447 15.4254 8.15602 15.4254C7.91758 15.4254 7.68099 15.4215 7.44681 15.4141V13.9954C7.68346 14.0031 7.92018 14.0069 8.15602 14.0069C8.39186 14.0069 8.62858 14.0031 8.86523 13.9954V15.4141ZM10.9929 15.2361C10.538 15.2998 10.0634 15.3481 9.57448 15.3799V13.9608C10.055 13.9295 10.5307 13.8823 10.9929 13.8197V15.2361ZM13.1206 14.7765C12.6864 14.9113 12.2104 15.0265 11.7021 15.1207V13.7092C12.2019 13.6211 12.6787 13.5135 13.1206 13.3871V14.7765ZM15.2482 13.2977C15.2482 13.7075 14.7267 14.1505 13.8298 14.5224V13.1563C14.4014 12.9448 14.8864 12.6949 15.2482 12.4079V13.2977ZM13.3096 12.5889C11.9382 13.0459 10.108 13.2977 8.15605 13.2977C6.20407 13.2977 4.37376 13.0459 3.00254 12.5889C1.78857 12.1842 1.06387 11.6538 1.06387 11.1701C1.06387 10.8925 1.3042 10.6387 1.55986 10.4471C2.74753 11.6143 5.88014 12.2339 8.8653 12.2339C11.2525 12.2339 13.7339 11.8376 15.2397 11.082C15.245 11.1114 15.2483 11.1408 15.2483 11.1701C15.2482 11.6538 14.5235 12.1842 13.3096 12.5889ZM3.90072 10.8758V9.48639C4.34258 9.61276 4.81943 9.72031 5.31914 9.8085V11.22C4.81087 11.1258 4.33486 11.0106 3.90072 10.8758ZM6.02839 11.3354V9.91891C6.49062 9.98154 6.96631 10.0287 7.44681 10.06V11.4792C6.95791 11.4474 6.48327 11.3991 6.02839 11.3354ZM8.15602 11.5133V10.0946C8.39268 10.1023 8.62939 10.1062 8.86523 10.1062C9.10107 10.1062 9.33779 10.1023 9.57445 10.0946V11.5133C9.34023 11.5208 9.10368 11.5246 8.86523 11.5246C8.62679 11.5246 8.39023 11.5208 8.15602 11.5133ZM10.2837 11.4792V10.06C10.7642 10.0287 11.2399 9.98154 11.7021 9.91888V11.3354C11.2472 11.3991 10.7726 11.4474 10.2837 11.4792ZM12.4114 11.22V9.8085C12.9111 9.72031 13.388 9.61276 13.8298 9.48639V10.8758C13.3956 11.0106 12.9196 11.1258 12.4114 11.22ZM15.9575 9.39701C15.9575 9.8068 15.4359 10.2498 14.539 10.6217V9.25557C15.1106 9.04401 15.5956 8.79414 15.9575 8.50716V9.39701ZM14.0188 8.68812C12.6475 9.14522 10.8173 9.39694 8.86527 9.39694C6.91328 9.39694 5.08297 9.14522 3.71175 8.68812C2.56032 8.30433 1.85026 7.80742 1.78005 7.34447C3.3028 7.99382 5.59242 8.33317 7.80143 8.33317C10.9102 8.33317 14.1788 7.66123 15.2442 6.39867C15.7059 6.68542 15.9575 6.99037 15.9575 7.2693C15.9575 7.75306 15.2327 8.28346 14.0188 8.68812Z" fill="#FFEA03"/>
</svg>
