<svg width="16" height="16" viewBox="0 0 16 16" fill="none" xmlns="http://www.w3.org/2000/svg">
<g clip-path="url(#clip0)">
<path d="M4.33317 12.6667H2.99984C2.81584 12.6667 2.6665 12.5173 2.6665 12.3333C2.6665 12.1493 2.81584 12 2.99984 12H4.33317C4.51717 12 4.6665 12.1493 4.6665 12.3333C4.6665 12.5173 4.51717 12.6667 4.33317 12.6667Z" fill="white"/>
<path d="M15.1665 12.6667H14.3332C14.1492 12.6667 13.9999 12.5174 13.9999 12.3334C13.9999 12.1494 14.1492 12.0001 14.3332 12.0001H14.8899L15.3392 9.60542C15.3332 8.38008 14.2865 7.33341 12.9999 7.33341H10.8112L9.75054 12.0001H11.6665C11.8505 12.0001 11.9999 12.1494 11.9999 12.3334C11.9999 12.5174 11.8505 12.6667 11.6665 12.6667H9.33321C9.23188 12.6667 9.13588 12.6207 9.07254 12.5414C9.00921 12.4627 8.98521 12.3587 9.00788 12.2601L10.2199 6.92675C10.2545 6.77408 10.3892 6.66675 10.5452 6.66675H12.9999C14.6539 6.66675 15.9999 8.01275 15.9999 9.66675L15.4939 12.3947C15.4645 12.5527 15.3272 12.6667 15.1665 12.6667Z" fill="white"/>
<path d="M13.0002 14.0001C12.0815 14.0001 11.3335 13.2527 11.3335 12.3334C11.3335 11.4141 12.0815 10.6667 13.0002 10.6667C13.9188 10.6667 14.6668 11.4141 14.6668 12.3334C14.6668 13.2527 13.9188 14.0001 13.0002 14.0001ZM13.0002 11.3334C12.4488 11.3334 12.0002 11.7821 12.0002 12.3334C12.0002 12.8847 12.4488 13.3334 13.0002 13.3334C13.5515 13.3334 14.0002 12.8847 14.0002 12.3334C14.0002 11.7821 13.5515 11.3334 13.0002 11.3334Z" fill="white"/>
<path d="M5.66667 14.0001C4.748 14.0001 4 13.2527 4 12.3334C4 11.4141 4.748 10.6667 5.66667 10.6667C6.58533 10.6667 7.33333 11.4141 7.33333 12.3334C7.33333 13.2527 6.58533 14.0001 5.66667 14.0001ZM5.66667 11.3334C5.11533 11.3334 4.66667 11.7821 4.66667 12.3334C4.66667 12.8847 5.11533 13.3334 5.66667 13.3334C6.218 13.3334 6.66667 12.8847 6.66667 12.3334C6.66667 11.7821 6.218 11.3334 5.66667 11.3334Z" fill="white"/>
<path d="M4.3335 6.66667H1.66683C1.48283 6.66667 1.3335 6.51733 1.3335 6.33333C1.3335 6.14933 1.48283 6 1.66683 6H4.3335C4.5175 6 4.66683 6.14933 4.66683 6.33333C4.66683 6.51733 4.5175 6.66667 4.3335 6.66667Z" fill="white"/>
<path d="M4.33317 8.66667H0.999837C0.815837 8.66667 0.666504 8.51733 0.666504 8.33333C0.666504 8.14933 0.815837 8 0.999837 8H4.33317C4.51717 8 4.6665 8.14933 4.6665 8.33333C4.6665 8.51733 4.51717 8.66667 4.33317 8.66667Z" fill="white"/>
<path d="M4.33333 10.6667H0.333333C0.149333 10.6667 0 10.5173 0 10.3333C0 10.1493 0.149333 10 0.333333 10H4.33333C4.51733 10 4.66667 10.1493 4.66667 10.3333C4.66667 10.5173 4.51733 10.6667 4.33333 10.6667Z" fill="white"/>
<path d="M9.33317 12.6667H6.99984C6.81584 12.6667 6.6665 12.5174 6.6665 12.3334C6.6665 12.1494 6.81584 12.0001 6.99984 12.0001H9.06717L10.5818 5.33341H2.99984C2.81584 5.33341 2.6665 5.18408 2.6665 5.00008C2.6665 4.81608 2.81584 4.66675 2.99984 4.66675H10.9998C11.1012 4.66675 11.1972 4.71275 11.2605 4.79208C11.3238 4.87075 11.3478 4.97475 11.3252 5.07341L9.6585 12.4067C9.62384 12.5594 9.4885 12.6667 9.33317 12.6667Z" fill="white"/>
</g>
<defs>
<clipPath id="clip0">
<rect width="16" height="16" fill="white"/>
</clipPath>
</defs>
</svg>
