<svg width="512" height="512" viewBox="0 0 512 512" fill="none" xmlns="http://www.w3.org/2000/svg">
<g clip-path="url(#clip0)">
<g filter="url(#filter0_d)">
<path d="M411 262.862V215C411 145.178 364.589 85.999 301 66.67V45C301 20.187 280.813 0 256 0C231.187 0 211 20.187 211 45V66.67C147.41 85.999 101 145.177 101 215V262.862C101 324.194 77.6222 382.35 35.1732 426.618C31.0132 430.956 29.8442 437.357 32.2022 442.885C34.5602 448.413 39.9902 452 46.0002 452H182.509C189.477 486.192 219.781 512 256 512C292.22 512 322.522 486.192 329.491 452H466C472.01 452 477.439 448.413 479.797 442.885C482.155 437.357 480.986 430.956 476.827 426.618C434.378 382.35 411 324.193 411 262.862V262.862ZM241 45C241 36.729 247.729 30 256 30C264.271 30 271 36.729 271 45V60.728C266.063 60.252 261.06 60 256 60C250.94 60 245.937 60.252 241 60.728V45ZM256 482C236.445 482 219.772 469.459 213.58 452H298.42C292.228 469.459 275.555 482 256 482V482ZM78.3302 422C112.491 376.208 131 320.792 131 262.862V215C131 146.075 187.075 90 256 90C324.925 90 381 146.075 381 215V262.862C381 320.792 399.509 376.208 433.671 422H78.3302Z" fill="#6DBED2"/>
<path d="M451 215C451 223.284 457.716 230 466 230C474.284 230 481 223.284 481 215C481 154.9 457.596 98.397 415.099 55.9C409.242 50.043 399.744 50.042 393.886 55.9C388.028 61.758 388.028 71.255 393.886 77.113C430.717 113.944 451 162.913 451 215V215Z" fill="#6DBED2"/>
<path d="M46 230C54.284 230 61 223.284 61 215C61 162.914 81.284 113.945 118.114 77.1141C123.972 71.2561 123.972 61.7591 118.114 55.9011C112.257 50.0431 102.759 50.0431 96.901 55.9011C54.404 98.3981 31 154.9 31 215C31 223.284 37.716 230 46 230V230Z" fill="#6DBED2"/>
</g>
</g>
<defs>
<filter id="filter0_d" x="26.999" y="0" width="458.001" height="520" filterUnits="userSpaceOnUse" color-interpolation-filters="sRGB">
<feFlood flood-opacity="0" result="BackgroundImageFix"/>
<feColorMatrix in="SourceAlpha" type="matrix" values="0 0 0 0 0 0 0 0 0 0 0 0 0 0 0 0 0 0 127 0" result="hardAlpha"/>
<feOffset dy="4"/>
<feGaussianBlur stdDeviation="2"/>
<feComposite in2="hardAlpha" operator="out"/>
<feColorMatrix type="matrix" values="0 0 0 0 0 0 0 0 0 0 0 0 0 0 0 0 0 0 0.25 0"/>
<feBlend mode="normal" in2="BackgroundImageFix" result="effect1_dropShadow"/>
<feBlend mode="normal" in="SourceGraphic" in2="effect1_dropShadow" result="shape"/>
</filter>
<clipPath id="clip0">
<rect width="512" height="512" fill="white"/>
</clipPath>
</defs>
</svg>
