<svg width="31" height="23" viewBox="0 0 31 23" fill="none" xmlns="http://www.w3.org/2000/svg">
<path d="M27.6094 0.84375H3.39062C1.52106 0.84375 0 2.36481 0 4.23438V18.7656C0 20.6352 1.52106 22.1562 3.39062 22.1562H27.6094C29.4789 22.1562 31 20.6352 31 18.7656V4.23438C31 2.36481 29.4789 0.84375 27.6094 0.84375ZM3.39062 2.78125H27.6094C28.4106 2.78125 29.0625 3.43316 29.0625 4.23438V6.17188H1.9375V4.23438C1.9375 3.43316 2.58941 2.78125 3.39062 2.78125ZM27.6094 20.2188H3.39062C2.58941 20.2188 1.9375 19.5668 1.9375 18.7656V8.10938H29.0625V18.7656C29.0625 19.5668 28.4106 20.2188 27.6094 20.2188Z" fill="#16B8C3"/>
<path d="M6.78125 17.3125H5.8125C5.27751 17.3125 4.84375 16.8787 4.84375 16.3438V15.375C4.84375 14.84 5.27751 14.4062 5.8125 14.4062H6.78125C7.31624 14.4062 7.75 14.84 7.75 15.375V16.3438C7.75 16.8787 7.31624 17.3125 6.78125 17.3125Z" fill="#16B8C3"/>
</svg>
