<svg width="17" height="17" viewBox="0 0 17 17" fill="none" xmlns="http://www.w3.org/2000/svg">
<path d="M15.5723 5.76816C15.5922 5.67971 15.6028 5.58915 15.6028 5.49641V3.36874C15.6028 1.52613 11.5833 0.53186 7.8014 0.53186C4.01947 0.53186 0 1.52613 0 3.36874C0 3.44823 0.00797526 3.526 0.0225911 3.6023C0.00875651 3.64023 0 3.68066 0 3.72336V5.49641C0 6.08586 0.411849 6.58834 1.09518 6.99941C1.07474 7.08873 1.06383 7.17893 1.06383 7.26943C1.06383 7.34892 1.07181 7.42669 1.08643 7.50302C1.07256 7.54094 1.06383 7.58137 1.06383 7.62408V9.39713C1.06383 9.55992 1.09583 9.71594 1.15563 9.86539C0.50127 10.3503 0.354622 10.8357 0.354622 11.1702C0.354622 11.2497 0.362598 11.3274 0.377214 11.4037C0.363346 11.4417 0.354622 11.4821 0.354622 11.5248V13.2978C0.354622 15.1405 4.37412 16.1347 8.15605 16.1347C11.938 16.1347 15.9575 15.1405 15.9575 13.2978V11.1702C15.9575 11.0128 15.926 10.8573 15.865 10.7055C16.3708 10.3336 16.6667 9.89661 16.6667 9.39713V7.26946V7.26943C16.6667 6.87893 16.4709 6.31165 15.5723 5.76816ZM2.64788 1.94993C4.01914 1.49286 5.84941 1.24111 7.8014 1.24111C9.75338 1.24111 11.5836 1.49286 12.9549 1.94993C14.1689 2.35458 14.8936 2.88499 14.8936 3.36874C14.8936 3.8525 14.1689 4.3829 12.9549 4.78756C11.5836 5.24462 9.75338 5.49638 7.8014 5.49638C5.84941 5.49638 4.01911 5.24462 2.64788 4.78756C1.43392 4.3829 0.709212 3.8525 0.709212 3.36874C0.709212 2.88499 1.43395 2.35458 2.64788 1.94993ZM14.8936 4.6066V5.49641C14.8936 5.90621 14.3721 6.34918 13.4752 6.72112V5.35501C14.0468 5.14348 14.5317 4.89358 14.8936 4.6066ZM12.766 5.58583V6.97519C12.3318 7.11002 11.8558 7.22516 11.3475 7.31939V5.90794C11.8473 5.81975 12.3241 5.71223 12.766 5.58583ZM10.6383 6.01835V7.43479C10.1834 7.49853 9.70879 7.54683 9.21989 7.57857V6.15947C9.70039 6.12818 10.1761 6.08101 10.6383 6.01835ZM8.51064 6.19407V7.61275C8.27643 7.62017 8.03988 7.62405 7.80143 7.62405C7.56299 7.62405 7.3264 7.62017 7.09222 7.61275V6.19404C7.32887 6.20172 7.56559 6.20559 7.80143 6.20559C8.03724 6.20562 8.27399 6.20175 8.51064 6.19407ZM6.38298 6.15947V7.57861C5.89408 7.54683 5.41943 7.49856 4.96452 7.43482V6.01838C5.42676 6.08101 5.90244 6.12818 6.38298 6.15947ZM4.25531 5.90797V7.31943C3.74704 7.22516 3.27103 7.11005 2.83688 6.97522V5.58583C3.27874 5.71223 3.7556 5.81978 4.25531 5.90797ZM0.709212 5.49641V4.6066C1.07113 4.89358 1.55605 5.14348 2.12764 5.35501V6.72112C1.23076 6.34918 0.709212 5.90621 0.709212 5.49641ZM1.77305 8.50725C2.13496 8.79423 2.61989 9.04413 3.19147 9.25566V10.6218C2.2946 10.2499 1.77305 9.80689 1.77305 9.3971V8.50725ZM2.48226 14.5226C1.58538 14.1506 1.06383 13.7076 1.06383 13.2978V12.408C1.42575 12.695 1.91068 12.9449 2.48226 13.1564V14.5226ZM4.60993 15.1209C4.10166 15.0266 3.62565 14.9115 3.1915 14.7767V13.3873C3.63337 13.5136 4.11022 13.6212 4.60993 13.7094V15.1209ZM6.7376 15.38C6.2487 15.3482 5.77406 15.2999 5.31914 15.2362V13.8198C5.78138 13.8824 6.25706 13.9296 6.7376 13.9609V15.38ZM8.86523 15.4142C8.63102 15.4216 8.39447 15.4255 8.15602 15.4255C7.91758 15.4255 7.68099 15.4216 7.44681 15.4142V13.9955C7.68346 14.0032 7.92018 14.0071 8.15602 14.0071C8.39186 14.0071 8.62858 14.0032 8.86523 13.9955V15.4142ZM10.9929 15.2362C10.538 15.3 10.0634 15.3483 9.57448 15.38V13.9609C10.055 13.9296 10.5307 13.8824 10.9929 13.8198V15.2362ZM13.1206 14.7766C12.6864 14.9115 12.2104 15.0266 11.7021 15.1208V13.7094C12.2019 13.6212 12.6787 13.5136 13.1206 13.3873V14.7766ZM15.2482 13.2978C15.2482 13.7076 14.7267 14.1506 13.8298 14.5226V13.1564C14.4014 12.9449 14.8864 12.695 15.2482 12.408V13.2978ZM13.3096 12.589C11.9382 13.0461 10.108 13.2978 8.15605 13.2978C6.20407 13.2978 4.37376 13.0461 3.00254 12.589C1.78857 12.1843 1.06387 11.6539 1.06387 11.1702C1.06387 10.8926 1.3042 10.6388 1.55986 10.4472C2.74753 11.6144 5.88014 12.234 8.8653 12.234C11.2525 12.234 13.7339 11.8377 15.2397 11.0821C15.245 11.1115 15.2483 11.1409 15.2483 11.1702C15.2482 11.654 14.5235 12.1843 13.3096 12.589ZM3.90072 10.8759V9.48652C4.34258 9.61288 4.81943 9.72044 5.31914 9.80862V11.2201C4.81087 11.1259 4.33486 11.0108 3.90072 10.8759ZM6.02839 11.3355V9.91903C6.49062 9.98167 6.96631 10.0288 7.44681 10.0601V11.4793C6.95791 11.4476 6.48327 11.3992 6.02839 11.3355ZM8.15602 11.5135V10.0947C8.39268 10.1024 8.62939 10.1063 8.86523 10.1063C9.10107 10.1063 9.33779 10.1024 9.57445 10.0947V11.5135C9.34023 11.5209 9.10368 11.5248 8.86523 11.5248C8.62679 11.5248 8.39023 11.5209 8.15602 11.5135ZM10.2837 11.4793V10.0601C10.7642 10.0288 11.2399 9.98167 11.7021 9.919V11.3355C11.2472 11.3992 10.7726 11.4476 10.2837 11.4793ZM12.4114 11.2201V9.80862C12.9111 9.72044 13.388 9.61288 13.8298 9.48652V10.8759C13.3956 11.0108 12.9196 11.1259 12.4114 11.2201ZM15.9575 9.39713C15.9575 9.80693 15.4359 10.2499 14.539 10.6218V9.25569C15.1106 9.04413 15.5956 8.79426 15.9575 8.50728V9.39713ZM14.0188 8.68824C12.6475 9.14534 10.8173 9.39706 8.86527 9.39706C6.91328 9.39706 5.08297 9.14534 3.71175 8.68824C2.56032 8.30445 1.85026 7.80754 1.78005 7.34459C3.3028 7.99394 5.59242 8.33329 7.80143 8.33329C10.9102 8.33329 14.1788 7.66135 15.2442 6.39879C15.7059 6.68554 15.9575 6.99049 15.9575 7.26943C15.9575 7.75318 15.2327 8.28359 14.0188 8.68824Z" fill="#FFEA03"/>
</svg>
