<svg width="23" height="23" viewBox="0 0 23 23" fill="none" xmlns="http://www.w3.org/2000/svg">
<path d="M0 20.575C0 21.9144 1.09031 23 2.42501 23H20.575C21.9144 23 23 21.9097 23 20.575V2.42501C23 1.08561 21.9097 0 20.575 0H2.42501C1.08561 0 0 1.09031 0 2.42501V20.575ZM20.575 21.8486H2.42501C1.72476 21.8486 1.15141 21.2752 1.15141 20.575V17.5437L5.51267 13.1825L9.23948 16.9093C9.46506 17.1349 9.82693 17.1349 10.0525 16.9093L16.7824 10.1794L21.8486 15.2456V20.575C21.8486 21.2752 21.2752 21.8486 20.575 21.8486ZM2.42501 1.15141H20.575C21.2752 1.15141 21.8486 1.72476 21.8486 2.42501V13.6148L17.1866 8.9575C16.961 8.73192 16.5991 8.73192 16.3735 8.9575L9.64365 15.6874L5.91684 11.9606C5.69125 11.735 5.32938 11.735 5.1038 11.9606L1.15141 15.913V2.42501C1.15141 1.72476 1.72476 1.15141 2.42501 1.15141Z" fill="#656565"/>
<path d="M7.12904 9.2161C8.74572 9.2161 10.0569 7.9002 10.0569 6.28822C10.0569 4.67625 8.74102 3.36035 7.12904 3.36035C5.51707 3.36035 4.20117 4.67625 4.20117 6.28822C4.20117 7.9002 5.51237 9.2161 7.12904 9.2161ZM7.12904 4.51176C8.11127 4.51176 8.9055 5.3107 8.9055 6.28822C8.9055 7.26575 8.10657 8.06469 7.12904 8.06469C6.15152 8.06469 5.35258 7.26575 5.35258 6.28822C5.35258 5.3107 6.14682 4.51176 7.12904 4.51176Z" fill="#656565"/>
</svg>
