<svg width="10" height="10" viewBox="0 0 10 10" fill="none" xmlns="http://www.w3.org/2000/svg">
<path d="M9.98564 3.85276C9.95119 3.74669 9.85953 3.66938 9.74918 3.65337L6.64913 3.20288L5.26271 0.393769C5.21338 0.293769 5.11152 0.230469 5.00002 0.230469C4.88849 0.230469 4.78666 0.293769 4.7373 0.393769L3.35082 3.20288L0.250836 3.65337C0.140505 3.66938 0.0488058 3.74669 0.0143528 3.85274C-0.0201197 3.95881 0.0086302 4.07524 0.0884932 4.15307L2.33161 6.33966L1.80216 9.42721C1.78329 9.53713 1.82849 9.64819 1.9187 9.71375C1.96974 9.75082 2.03018 9.76969 2.09093 9.76969C2.13757 9.76969 2.18436 9.75858 2.22722 9.73604L5 8.27827L7.77266 9.73602C7.87139 9.78791 7.99098 9.77928 8.0812 9.71373C8.17141 9.64819 8.21663 9.53709 8.19778 9.42717L7.66815 6.33966L9.91152 4.15305C9.99136 4.07524 10.0201 3.95881 9.98564 3.85276Z" fill="#16B8C3"/>
</svg>
