<svg width="20" height="20" viewBox="0 0 20 20" fill="none" xmlns="http://www.w3.org/2000/svg">
<path d="M18.2422 1.17188H17.6562V0.585938C17.6562 0.262344 17.3939 0 17.0703 0C16.7467 0 16.4844 0.262344 16.4844 0.585938V1.17188H14.1016V0.585938C14.1016 0.262344 13.8392 0 13.5156 0C13.192 0 12.9297 0.262344 12.9297 0.585938V1.17188H10.5859V0.585938C10.5859 0.262344 10.3236 0 10 0C9.67641 0 9.41406 0.262344 9.41406 0.585938V1.17188H7.07031V0.585938C7.07031 0.262344 6.80797 0 6.48438 0C6.16078 0 5.89844 0.262344 5.89844 0.585938V1.17188H3.51562V0.585938C3.51562 0.262344 3.25328 0 2.92969 0C2.60609 0 2.34375 0.262344 2.34375 0.585938V1.17188H1.75781C0.788555 1.17188 0 1.96043 0 2.92969C0 3.6475 0 17.436 0 18.2422C0 19.2114 0.788555 20 1.75781 20H18.2422C19.2114 20 20 19.2114 20 18.2422C20 17.4357 20 3.64715 20 2.92969C20 1.96043 19.2114 1.17188 18.2422 1.17188ZM18.8281 18.2422C18.8281 18.5653 18.5653 18.8281 18.2422 18.8281H1.75781C1.43473 18.8281 1.17188 18.5653 1.17188 18.2422V5.85938H18.8281V18.2422ZM18.8281 4.6875H1.17188V2.92969C1.17188 2.6066 1.43473 2.34375 1.75781 2.34375H2.34375V2.92969C2.34375 3.25328 2.60609 3.51562 2.92969 3.51562C3.25328 3.51562 3.51562 3.25328 3.51562 2.92969V2.34375H5.89844V2.92969C5.89844 3.25328 6.16078 3.51562 6.48438 3.51562C6.80797 3.51562 7.07031 3.25328 7.07031 2.92969V2.34375H9.41406V2.92969C9.41406 3.25328 9.67641 3.51562 10 3.51562C10.3236 3.51562 10.5859 3.25328 10.5859 2.92969V2.34375H12.9297V2.92969C12.9297 3.25328 13.192 3.51562 13.5156 3.51562C13.8392 3.51562 14.1016 3.25328 14.1016 2.92969V2.34375H16.4844V2.92969C16.4844 3.25328 16.7467 3.51562 17.0703 3.51562C17.3939 3.51562 17.6562 3.25328 17.6562 2.92969V2.34375H18.2422C18.5653 2.34375 18.8281 2.6066 18.8281 2.92969V4.6875Z" fill="#16B8C3"/>
<path d="M14.6875 16.4844H14.1016V14.7266C14.1016 13.7573 13.313 12.9688 12.3438 12.9688H10.5859V11.657C11.2679 11.4152 11.7578 10.7639 11.7578 10C11.7578 9.70227 11.6728 9.39883 11.5855 9.24621L10.5085 7.36512C10.4041 7.18277 10.2101 7.07031 10 7.07031C9.78992 7.07031 9.5959 7.18277 9.49148 7.36512L8.41453 9.24621C8.32863 9.39633 8.24219 9.69824 8.24219 10C8.24219 10.7639 8.73207 11.4152 9.41406 11.657V12.9688H7.65625C6.68699 12.9688 5.89844 13.7573 5.89844 14.7266V16.4844H5.3125C4.98891 16.4844 4.72656 16.7467 4.72656 17.0703C4.72656 17.3939 4.98891 17.6562 5.3125 17.6562C5.62484 17.6562 14.2001 17.6562 14.6875 17.6562C15.0111 17.6562 15.2734 17.3939 15.2734 17.0703C15.2734 16.7467 15.0111 16.4844 14.6875 16.4844ZM9.45094 9.79449L10 8.83551L10.5491 9.79449C10.5736 9.8598 10.5859 9.92879 10.5859 10C10.5859 10.3231 10.3231 10.5859 10 10.5859C9.67691 10.5859 9.41406 10.3231 9.41406 10C9.41406 9.92883 9.42645 9.85984 9.45094 9.79449ZM12.9297 16.4844H7.07031V14.7266C7.07031 14.4035 7.33316 14.1406 7.65625 14.1406H12.3438C12.6668 14.1406 12.9297 14.4035 12.9297 14.7266V16.4844Z" fill="#16B8C3"/>
</svg>
